<svg id="layer_1" class="svg-content img-responsive svg" xmlns="http://www.w3.org/2000/svg" viewBox="88.5 0 600 700" preserveAspectRatio="xMaxYMax meet">
    <g id="areas">
        <path id="sao_Tome___Principe_2" fill="#bbddac" stroke="#FFF" stroke-width=".478" stroke-miterlimit="3.974" d="M295.4 334.5c.3-.5.4-1.1.1-1.6-.6.4-.7 1.1-.1 1.6"><title>São Tomé e Príncipe</title></path>
        <path id="burkina_Faso_1_" fill="#bbddac" stroke="#FFF" stroke-width=".797" stroke-miterlimit="3.974" d="M190.3 251.9c.6-1.5 1.1-3.2.7-4.8-.4-1.7.7-.7 1.3-2 .4-.8 1.3-3.2.4-4-.6-.5.6-1.6-1.3-2.1.9 0 1.5-.7 2.1-1.1 1.1-.7 2.7-.1 3.8-.8 1.4-.9 3.1-4.2 1.9-5.6-.6-.7.3-1.2 1-1.1 1.2.1 1.1-.9.9-1.8-.1-.6-1.3-1.5-.3-1.9.8-.3 1.9-2.5 2.4-3.2-.1 1.4 3.1 3 4.2 3.1-.3-1.3.6-1.1 1.6-1.1-.1-1.2.4-2.8-.2-3.9.9.2 1.8.2 2.5.7 1.2-1.8 1-5.6 4.1-5.9 1.5-.2 3.3 2.2 3.6-.4.2-1.4 1.7-1.2 2.7-1.7 1.3-.7 2.2-1.6 3.5-2.2 1.6-.7 4.5-4.6 6.7-2.6.4.4 1.4-.5 2.1-.3.9.3 1.9.6 2.7 1 1.3.6-1.1 4 .9 5.2 1.3.7.3 2.8 1.2 3.8.5.5 1.6 1.7 1.4 2.4 1 .4 3.6 2.2 5.3 3.5-.8.4-1.5.4-2.2-.2-1 2.7 2.5 5.8 4.6 6.8 1.7.8 2.7-1.2 3.9-.9 1 .3 1.2 1.9 1.6 2.7-2.7.9-.4 2.5.6 4.3 1.1 2-1.5 4.9-3.5 5-.5 0-2.4.6-2.7.3-1-.8-1.2-.4-2 .3-1.6 1.4-2.5 3.3-4.5 3.6-3.1.4-3.7-.5-5.5-.9-.9-.2-1.7-.5-2.6-.5-.8 0-2.9 2.1-3.5 1.8-1.5-.6 1.7-.7-9.2-.7-3.6 0-5.8.3-8.7 0 .4 1.7-1.3 2.5-.8 3.5.6 1.4.9 2.5 1.2 3.9.2 1.2.3 2.7.2 4.1-.1 1.2.8 2.7 0 3.3-1.3-1-2.6-3.4-3.5-4.9-.8 1.1-3.9-.2-5.1.2-1.3.5-4.1.9-4.1 2.8-.8-.1-3.7-1.4-4.3-2-.5-.6-1-.9-1.1-1.4-.2-.9-1-2.7-1.7-3-.6-.5-1.9.4-2.3-1.3"><title>Burkina Faso</title></path>
        <g id="libya">
            <path fill="#bbddac" stroke="#FFF" stroke-width=".797" stroke-miterlimit="3.974" d="M311.9 70.4c-1-.9 1.2-1.9 1.7-2.2 1.7-.8 2.6-1.3 3.7-2.9.8-1.4 1.7-2 1.3-3.8-.3-1.5-1-3-.8-4.6.2-2.2 2.8-1.6 3.2-3.1.5-1.7 1.8-2.5 3.2-3.2 1.1-.5 4.5-1.5 4.6-2.9 0-.7-.7-1.2-.6-2 .1-1.4.2-2.9.3-4.3 1.4 1 3.2 1.5 4.7 2.4 1.6 1 3.3 1.3 5.1 1.1 1.8-.2 3.2-1.4 5.1-.7 1.7.6 3.5.7 5.1 1.4 1.5.6 2.6 1.7 4.1 2.3 1.3.5 3 0 4.2.8 1.4.9 1.6 2.5 1.9 4 .3 1.9 1.1 3.5 2.6 4.7 2.7 2.3 6 1.8 9.3 2.4 3.3.6 7.9 2.1 10.5 4.2 2.1 1.7 4 4.6 7 4.3 3.5-.3 7.1-3.4 7.9-6.8.4-1.6-.7-2.8-1.2-4.3-.5-1.6-.9-3.4-.4-5.1 1-3 6-6.8 9.1-6.9 1.6-.1 2.6-1.2 4.1-1.4 1.5-.1 3.2-.1 4.7.2 1.8.4 3.3 1.3 5 1.9 2 .8 1.5 1 1.6 2.8.1 1.4 2.3 1.7 3.4 1.8 2 .1 3.2 1 5 1.6 1.8.5 3.7-.1 5.5.3 1 .2 2.6 2.3 2.2 3.3-.4 1.1-1.8 1.4-2 2.7-.3 1.8.9 3.1 1.2 4.7.4 1.9-.8 3.5-1.5 5.1-.7 1.7 1.1 3.8 1.4 5.5.5 3 1 5.9 1.2 9l1.9 80.6h-8c.1 1.5 0 3.1.1 4.6l-63.9-36.2-14.5 6.9c-1.2.3-2.7-1.7-3.4-2.4-3-3-6.2-3.6-10.2-4.5-1.4-.3-3.3-.5-4.5-1.3-1-.6-1.5-2.4-1.9-3.4-1.2-3-2.7-3.8-5.6-4.9-1-.4-1.9-1.2-3-1.2-1 0-2.2 1.2-3.1.1-.8-.9-2.2-3.1-2.2-4.2 0-2.5-.3-3.4-1.6-5.5-1.1-1.6-4.5-4.5-3-6.7 1.7-2.5 4.4-1.5 3.3-5.6-.6-2.1-1-3.6-.3-5.7.6-1.8 1-3.3.3-5.1-.7-1.9-.2-3.9 0-5.8.2-2.3-.1-4.7-.9-6.9-.7-1.7-1.7-3.5-2.9-5.1">
                <title id="title4017">Libya</title>
            </path>
        </g>
        <path id="madagascar_1_" fill="#bbddac" stroke="#FFF" stroke-width=".478" stroke-miterlimit="3.974" d="M635.8 459.8c-.3 0-.6.3-.5 1.2.2 1.2-2.2 3.3-3.3 3.3 2.1 1 .7 4.1.3 5.5-.6 2-.6 3.3-3.1 3.4.3 1.5-.2.3-.9 1.2-.5.6-.5 1.5-.8 2.2-.6 0-2.9-4.7-3.3-1.4-.1 1.2.3 2 .7 3 .4 1-.3 3.6-.5 1.7-.2.9-3 1-1.9 3.1.6 1.1 2.9.7 2 2.5.3-1.4-1.1-1.5-2-.9-1.2.9-1.1 3-2.8 3.5-.2-1.2.9-2.1.7-3.3-1.2.3-.9 1.1-1.4 1.9-.5.8-1.8 1.3-2 2.2-.1.7.6 1.4.9 2 .5 1.1-1.4 1.3-2 1.8.1-.7 1.5-2.9-.4-2.9-1.1 0-2 1.4-2.8 2-.6.4-2 1.2-1.9 2 .1.4-.3 1-.1 1.4.2.6 1 .5 1.2 1.2-.9-.1-1.8.1-1.9-1.1-.2-1.5-1.7-1.5-1.7.1-.4-.6-2.1-.8-2.7-.5-.8.4-.5 1.6-1 2.2 0-1.6-1.8-.4-2 .6-.3-.5-.6-1-.9-1.4-.9.6-1.6 1.7-2.7 2.1-1 .4-2.8-.4-3.6.3-.4.4-.1 3.4-.4 3.1.3 1.2-.6 2.6-1.2 3.7-1 1.7-4.2 4.8-3 6.8.8 1.4.1 3.9.2 5.5.2 1.8 1.5 3.4 1.5 5.2 0 1.7-.1 2.8.8 4.3 1 1.6.4 2.3-.1 3.9-.3 1.1 1.1 1.5.4 2.7-.7 1.3-1.6 2.5-2.4 3.8-.8 1.4-1.9 2.7-2.5 4.2-.5 1.1-.1 3.1-1.5 3.6-1.7.6-2.2.7-2.4 2.7-.1 1.7-1.6 3.2-2.1 4.9.6 2.6-.7 5.7 1.1 8 .9 1.1.9 2.3 1.3 3.6.4 1.2 1.6 1.4.4 2.7-1.1 1.3-1 5.5-.2 7.1.7 1.4 1.4 2.5 1.7 4 .5 2 1.8 2.6 3.3 3.8-1.9-1.1-.2.4.2.5.7.2 1.4.1 2.1.3 1.7.4 2.6 2.3 4.3 2.7 2.9.6 5.9-3.1 8.6-3.9 1-.3 2 .3 2.9 0 .7-.3 1.3-.7 2.1-.9 1.1-.2 1.7-1.5 2.1-2.4.6-1.2.9-2.4 1.3-3.7.5-1.7 1.5-3.2 2.1-4.8 1-3.1 2.1-6.1 2.9-9.3 1.2-4.5 3-8.5 4.6-12.9 1.3-3.5 2-7.2 3.6-10.6.5-1 1.3-2.6.9-3.7.5 0 1.1-2.2 1.3-2.5.9-2.4 1.4-4.9 2.4-7.3 1.4-3.5 2.7-6.4 3.5-10.1.6-2.8-1.3-6.8 2-8.6.7-.4 1.4-2.4 1.5-3.3.1-.8-.1-1.5 0-2.3.2-1-1.1-.9-1.1-1.9 0-.8-.8-6.6 1.1-5.8 1.6.7 1 4 2.6 4.6 1.7.6 2.9-4.1 3.1-5.1.3-1.5-.7-2.2-1.1-3.6-.7-2.4-.7-4.8-.8-7.3-.2-4.6-1.3-9.5-3.1-13.6-.3.2-.5.4-.8.5.2-.6-.1-.8-.4-1.1-.6-.6.3-1-.2-1.7-.5-.6-.9-3.1-2.2-2.3-.1-.3-.1-.6-.1-.8 1.9.1.8-1.5.1-1.6zm-8.4 11.3c-.8.6-.6 1.9.5 1.8.4-.6 0-1.3-.5-1.8z" ><title>Madagascar</title></path>
        <path id="ivory_Coast_1_" fill="#bbddac" stroke="#FFF" stroke-width=".797" stroke-miterlimit="3.974" d="M164.8 288.3c.5-1 1.6-1.2 2.1-2.3.3-.7.5-1.8.5-2.6.1-1.4-.5-3.8-1.4-4.9.6-.7 1.5-.3 2.2.1.1-.8 1.4-1.7.9-2.6-.4-.7.3-2.3 1.2-1.7-.7-1.1-2-1.8-2.4-3.1-.6-2.5 4.1-.5 4.9-.2-.6-1.7-.3-3.6-2.5-3.9.4-1.1.4-2.3 1.9-2.5-1.2-1.4-1.4-1.1-1-3.2-2.6 1.7-2.5-4.1-2.2-5.4.3-1.2 1.2-1.6 2.3-1.9.6-.2.6-1.3 1.1-1.7.7-.6 1.5-.2 2.2-.5-.2 1.5 2.9 3 4.1 2.5-.8-1.4.6-1.4 1.6-1.4 1.3 0 .9-2.2.9-3.1.5.3 1.1 1.3 1.8 1.1.7-.2.8-1.5 1.5-1.8.6 1.1-.2 4.7 1.3 5 1.4.3.3-2.7 4.5-2.6.4 0-.9 1.2 2.5 1.4 1.6.1 1.9 3.2 2.1 3.5 1.1 1.3 3.2 2.7 5.3 3.1 0-1.9 2.8-2.3 4.1-2.8 1.2-.5 4.3.9 5.1-.2 1.3 1.5 1.8 3.2 3.5 4.9.2-.2.4-.5.5-.8.5 1.5-.7 3-.5 3.8.4 1.3 1.1 1.9 1.3 3.4.1 1.2.9 3.3.5 4.5-.5 1.3-1.2 2-1.8 3.2-.9 1.6-2.3 2.5-2.2 4.2.1 2.3-1.1 3.9-1.5 5.6-.5 1.8-.3 4.7.8 6.1 1.1 1.4 1.6 3.4 1.2 4.9 2.7-.8 1.1 3.4 1.6 4.7-.6 0-1.1.1-1.6.2.2-.3.3-.6.5-.8-1.3 1.9-2.4-.5-2.6-1.5-.7.8-1 1.8-2.2 1.9-.8.1-1.8-.3-2.3-.8-.4.8-1.4 0-1.8-.3.7-.1 1.4.5 1.9-.2-.2-.3-.5-.5-.8-.6.3 1.5-.3.1-1.4.4.2.5-2.5.2-3.2.3-.3 0-3.8.6-3.5.8 1.7.9 5.1-2 6.5-.3-2.1.1-4.2.5-6.3.8-.5.1-1.4.3-1.7-.3-.4-.8-2.5-.4-3.2.3 1.2-.5 1.9-.4 3.1.1-2.6.3-5.4.2-7.9 1.2-2.1.9-4.1 2.7-6.4 2.9-1.2.1-3.8 1.5-4.7 2.4-2 1.9-2.4-1.6-2-3.1.4-1.8 1-3.7 1.5-5.1.6-1.9.1-4-1.4-5.3-.9-.8-2.3-1.1-2.1-2.7.2-1.9-5.5-.2-4.4-2.4-.9.1-1.5-.2-2-.7"><title>Ivory Coast</title></path>
        <path id="cameroon_1_" fill="#bbddac" stroke="#FFF" stroke-width=".797" stroke-miterlimit="3.974" d="M305.2 304c1-.9 1.6-2.1 1.7-3.4 0-1.2 1.6-3.5 1.2-4.3-.4-.8-.6-1.2.6-2.6 1.2-1.4 2.4-2.8 3.8-4.1.8-.7 1.8-1 2.2-2 .4-.9 1.7-3.2 2.7-3.4 1.1-.3 1.7 1.1 3 .8 1-.2 1.1-1.7 1.3-2.5.2.8 2.4 3.1 3.2 3.3s1 1.3.7 2.2c-.2.6.9 1.5 2.1 1.2.4-.6 2.4-2.5 1.9-3.6-.3-.8 1.3-1.8 1.8-2.3.9-.7 0-1.9.5-2.9 1-2 2.4-3.8 3-6.2.3-1-.1-2.1.2-3.1.2-.8 1.4-1 1.4-2.3-.4-.1 2.7.3 3.3-2.7.1-.7 1.3-4 .2-4.2 1.3-.7 3.3-1.5 3.5-3 .1-1 .1-1.8.1-2.8 0-1 1-.9 1.5-1.6.6-.9.5-2.1.8-3.1.4-1.1.7-2.2.8-2.9.3-1.3 1-3.8 2.4-4.3.7-.3 5-.3 5.6-2.7.2-.7-.6-1.2-.5-2 .2-1.4.3-2.2.5-3.2.3-1.2-2-2.3-2.7-2.1-.6.2-1.4-1-1.6-2.6-.2-2.5-.1-3.5-.4-4.2.9 0 2.4-.1 3.1.7 1.1 1.2 0 2.4 2.3 3.1 1.2.3 1.4 3.2 1.4 4.2.1 1-.1.2.9 1.1 2 1.9-.2 7.7.1 10.2.4 3.5 2.1 7.6 5.3 9.4-1.3 1.1-2.9.6-4 .1-1.1.1-1.3.3-2.5.3-2.4.1-4.8-1.5-6 .5-1.5 2.4-1.3 2.8.7 5s4.1 4.2 6.3 6.2c.7.6 1.5 1.6 1.9 2.4.8 1.6 1.5 4.8 2.5 6.3.9 1.6-.9 2.6-1.4 3.3-.7 1-1.8 3.3-2.5 4.9-.2.5-.8 1.4-1 1.9-.4 1-1 1.8-1.5 2.8-.7 1.4-4 2.7-2.1 3.5 1.4.6 1.3 2 1.1 3.9-.1.8-.1 1.6-.6 2.3.1-.1 1 1.3 1 1.4.2 1.6-.1 4 .9 5.3.6.8 1.5 1.1 1.8 2.3.2.9.6 2.1 1.4 2.7-2.6.1 3.3 7.1 3.8 7.5 1.3 1 3.1 1.6 3.3 2.6.2.7.3 1.1.3 1.8.1 1.7.5 3.5.9 5.2-2 .9.2 4.3-1.1 5.2-1.1-1.1-2.4-2.1-4-2.6-.7-.2-2.7-1-3.2-.7-.7.5-2.1.4-2.5-.7 0-.1-2.4-.5-2.6-.6-.7-.3-2.8-.1-3.7-.1-1.7-.1-3.5-.1-5.2-.3-.3 0-1.1.2-1.5.1-.6-.3.3-1-.9-.9-1.6.2-3 .4-4.6.1-1.9-.4-3.5-.1-5.4-.1-1.2 0-3.5-.7-4.7-.1-.3.2-.2 1.2-.6 1.2h-3.5c-1.6 0-3.3.1-4.9.1-3.5.1-4.3-1.9-3.5-5.1.4-1.9 1.1-3.9.1-5.7-.5-.8-2.1-2.3-.4-2.9-1 .6-2.8-.4-1.7-1.5.6-.6 1.9-1.6.2-1.7.3-.4.5-.8.5-1.3-.5 1.3-1.1.3-2 .3.3.4.6.7 0 .5 0 .4 0 .8-.2 1.2-.7 0-1.1-.6-.8-1.2-.6 1.1-2.4-.3-2.6-1.1-.4-1.3-.4-3.5-1.4-4.5-1.1 1.3-.9-.2-1.5-.2.1.5.2 1 .2 1.5-2.1 0-.9-2-.7-3.2"><title>Cameroon</title></path>
        <g id="botswana">
            <path fill="#bbddac" stroke="#FFF" stroke-width=".797" stroke-miterlimit="3.974" d="M396.4 578.1l.9-25.7h7.3l1-34.1c2.6-.6 9.2-1 12.9-2.3 1.2-.4 4-1 5.2-.3 1.6.9 1.9 2.8 2.7 4.3 2.1-1.6 3.7-5 6.1-5 .9 0 .8.5 1.5.6.9.1 1.4-1.1 2-1.4 2.1-1.2 4.3-1.1 3.9-.3-.1.2 0 1.4.1 1.7.6 1.4 1.3 2.7 2.3 3.9.9 1.2 1.6 1.8 2.3 3.8.5 1.4.7 1.7 1.1 3.1.9 2.9 3 5.3 5.6 6.7 2.8 1.4 5.3 1.1 4.4 5.5 2.5-.6 4.5-.3 3.4 3.1-.4 1.2-.2 2 .4 3 .7 1.1 1.2 3.7 2.4 4 2.3.7 4.3.6 6.8 1.4 1.8.6.2 1.5.8 2.4.4.7 2.1.5 2.3 1.5-2.9.4-2.4 1-3.5 2.5-1.2 1.7-4.4.8-5.8 2.4-1.3 1.4-2.3 3.7-4 5-.2.1-.9.8-1.6 1.3-1.2.8-2.4 1.1-3.3 2.1-1.2 1.3-1.4 1.7-1.6 3.7-.3 2.5-1.7 3-3.4 5.1-1 1.2-2.7 1.6-4.4 1.8-1.2.2-.5.7-.7 1.9-.3 1.6-1.1 3-1.6 4.5-.8 2.2-2 3-4.2 2.8-2.1-.2-1.8 1.3-4.5.7-1.1-.2-3.6-1.4-4.5-1.5-1.3-.1-2.2-.9-3-1.9-1.1-1.4-4.2-2.5-5.8-.4-1.5 1.9-.8 4-2.2 5.9-.7 1-1.6 1.6-2.5 2.2-1.1.8-1.4 2-2.4 2.9-.7.7-1.3.4-2.1.7-.3.2-.3.5-.2.9-.3.9-1.6 1.1-2.3 1-1.2-.1-1.9-.4-3-.5-1-.1-2-.5-3.3.6-1.9-3.7 2.1-5.4.7-10.4-.5-1.9-1.3-4-2.3-5.8-1.2-1.3-2.9-2-3.9-3.4"><title>Botswana</title></path>
        </g>
        <g id="kenya">
            <path fill="#bbddac" stroke="#FFF" stroke-width=".797" stroke-miterlimit="3.974" d="M513.6 358.3c1.6-1.2-2.4-6.1 3.2-5 0-.3.3-.9 0-1.5l3.4-.4c-2.2-3.4-3.2-.7-4.2.2-.9.8-3.1-2.7-3-4.8.9-1.5.3-2.2 1.9-3.7 1.2-1.1 2.1-4.6 4.1-5.5.9-.4.8-.6.7-1.4-.1-1.2 1.4-1.8 1.7-3 .4-1.3.5-2.6.6-3.9.1-1.2-1.1-2-1.3-3.4-.6-3-2.4-3.6-2.7-5-.2-1-.8-1.9-1.1-2.9-.2-.4-.4-.9-.4-1.4 0-.7.7-1 .5-1.8-.2-.6-.9-.8-1.4-1-1.2-.5-.3-1.4-1.6-1.2.5-1.2-1-2.4-.8-3.2.1-.8 1.2-1.5 1.7-2.1 2-2.1 4.4-1.5 7.1-1.5 1.5 0 3-.1 4.5-.1.7 0 1.5 0 2.2.1.6.1.8 1.2 1.6 1.5 2.3.9 4.9-.2 7.3.9 2.5 1.2 5.2 3.3 7.1 5.2 1 1 1.8 1.7 3.2 1.8.9.1 3-.5 3.8 0 2 1.3 5.2.1 6.9 1.9.2-1.2 1.9-3 2.7-4 1.3-1.9 4.2-2.6 6.2-3.5 2.1-1 2.5 1.3 4.1 2.2 1.1.6 2.3.2 3.4 0 .9-.2 2 .4 2.9 0-1.3 2.3-2.5 4.7-4.1 6.8-1.7 2.2-3.2 3.4-3.2 6.3 0 6.9.1 13.8.1 20.7 0 5.2-1 10.1 2.4 14.3 1.2 1.4 3 3.3 1.7 5.2-.7 1.1-3 3.1-4.4 1.9-.1.3-.2.6-.3.8-.2-.3-.4-.6-.6-.8.4.8 1.3 2.4.5 3.2-.1-2.1-1 .3-1.2.8-.4 1-1.3 1.2-2.2 1.3-2.1.3-2.9 2.2-2.3 3.9.3.8-1.2 3.2-1.8 3.7-1 .8-1.9 6.5-3.1 6 .5 2.2-1.7 3.8-2.1 5.8-.9-.7-.8.5-1.5.3-.9-.2-2.2-1.9-2.9-2.4-3.2-2.5-7.3-5.1-9.2-7.8-.5-.7-1.5-.8-.4-2 1.6-1.7-1.2-3.8-2.6-4.7l-27.1-16.8"><title>Kenya</title></path>
        </g>
        <path id="sierra_Leone_Island_1_" fill="#bbddac" stroke="#FFF" stroke-width=".478" stroke-miterlimit="3.974" d="M130 278.1c-.1.2-.1.4-.2.5 1 .3 2.1.8 3.2.9.2-.4.3-1-.1-1.3-.9-.5-2.1-.1-2.9-.1"><title>Sierra Leone Island</title></path>
        <path id="sierra_Leone_1_" fill="#bbddac" stroke="#FFF" stroke-width=".797" stroke-miterlimit="3.974" d="M126.8 265c.7-.6 1.5-.1 2.2-.5.7-.4.5-1.7 1.4-1.9 1.4-.4 2.4-3.2 2.8-4.4.7-2.1 2.9-.5 4.5-1.6 1.3-.9 5-1 6.4 0 1.3.9 1.9 2.6 2.7 3.9.4.7.9 1.4 1.2 2.1.2.6-.4 1.2 0 1.6.5.5 1 .4 1.1 1.2 0 .6-.2 1.8.3 2.3.7.7-1.6 3.1-1.5 4.4.2-.4 1.9-1.3 2.3-1.5 1.6-1 1.3.4.9 1.5-.4 1.4-2.4 1-2.6 3-.2 1.9-.2 1.8-1.3 2.9-.8.9-1.7 1.8-2.8 2.6-1.6 1.2-2.3 4.1-3 3.9-.8-.2-7-3.6-8-4.4 1.7.5.4-.3-.1-.6.7-.5 1.7-.5 2.4-1.2-1.4.2-3.5.4-2.3-1.7-.9 2.2-2.1-.3-2.9-.2-.6.1-1.1-3.7-1.1-4.2-1.2.3-3-.7-2.2-2.2.5.4 1 .8 1.6 1.1-1.3-.7.6-1.8 1.4-1.8-.3-.5-.2-.4-.1-1-.7 1.4-1.4.7-2.2.2-.1.3-.2.6-.3.8-1-1.7-.2-2.4 1.3-2.7-.6-.8-1.7-.7-2.1-1.6"><title>Sierra Leone</title></path>
        <path id="mali_1_" fill="#bbddac" stroke="#FFF" stroke-width=".797" stroke-miterlimit="3.974" d="M136.4 211.8c1.4-.3 2.1.4 3.3-1.1 1-1.3.5-4 1-5.6 1.1-3.6 6.1 2.4 6.7 3.5 1-2.6 2.6-4.1 5.6-2.9 2 .8 6.2.7 6.7-2.1 1.1 2.8 6.7 1.5 8.9 1.4 5.4-.4 10.9-.1 16.2-.1 1.9 0 4.2-.2 6.1 0 1.4.1 1-2.1 1.1-3.3.2-1.3 1.4-3.9.1-4.8-2.4-1.5-1.8-2.9-1.7-4.8l-5.6-75H199c14.7 11 28.4 21.9 42.3 32.8 1.7 1.2 4.8 2.4 4.6 4.9-.1.8-.2 1.5 1.2 2 .7.3 1.4.5 2 .9 1 .6.8 1.8 1.6 2.6.7.7 1.5.8 2.5 1 .7.1.2-.6 1.4 0 .9.4 1.3 1.6 2.3 1.9 1.6.5 3.7.6 5.2 1.5 1.1.6.8 3.6.3 4.6-.6 1.4-1.6 2.8.7 3.1 2.4.3 5.2-.9 7.5-1.2-.3 6.6.6 13.6-.2 20.1-.1.7.1 1.3-.4 4.8-.2 1.2.2-.3-1.4 3.1-.5 1.1-.5 2.3-.9 3.4-.4 1-1.5 1.4-2.3 2-1 .8-.3 1.8-1.7 1.6-.3-.1-3.1-.8-3.3-.3-.3 1.3-9.1.8-10.4.9-3.3.3-3.2-.1-5.5 2.4-.7.8-2.1 1.1-3.2.8-.6-.1-1.9-.1-2.5-.1-1.1 0-1-.8-1 .5-.8-.3-1.5-.7-2.3-1-1.8-.8-2.3.5-3 0-.7-.5-1.8-1.1-3.3.2-1.6 1.4-3.9 2.6-4.8 3.2-1.5 1-2.6 1.8-4.2 2.2-1.3.3-.2 3-2.1 2.2-1.2-.5-2.2-1.2-3.4-.4-1 .7-1.6 2.1-2 3.2-.2.7-.5 1.7-.8 2.3-.3-.2-2-.6-2.6-.7.6 1.1 0 2.7.2 3.9-1 0-1.9-.2-1.6 1.1-1.1-.1-4.3-1.7-4.2-3.1-2 4.9-3.5 2.6-2.5 4.3.6 1 .6 1.7.4 2.5-.1.3-2.5-.1-1.9.9 1.1 1.9.6 3.9-1.5 5.7-1 .8-2.2.5-3.3.7-1.1.2-1.7 1.4-2.9 1.3 2.1.5.6 1.7 1.2 2 1.1.6.2 3.5-.4 4.5-.2.3-1.3.5-1.3.8.3 1.6.6 3.6-.6 5.1-.4.6-1.8.6-2.4.7-1.3.4-.6 2.1-2.3 2-1.9-.2-.6-3.9-1.3-5-.7.3-.9 1.6-1.5 1.8-.7.2-1.3-.8-1.8-1.1 0 .9.4 3.1-.9 3.1-1 0-2.4.1-1.6 1.4-1.2.5-4.3-1-4.1-2.5-.6.3-1.6 0-2.1.5-.7.9-.6 2-2.1 2.1 1.1-2-2.5-2.3-2.5-4.1 0-1.1.3-2.4 0-3.5-.4-1.5-2.4.3-3.1.2.3-1 1.1-3.6 2.5-3.1.5-1.5-2.5-2-2.7-3.5-1 .6-.9-.5-.8-1.2.2-1.4-.4-1.9-1-3.1-.5-.9.1-2.2-1-2.8-.4-.2-1.9-1-2.3-.6-.5.5 1.1 1.6 0 2.1-1.2.6-2.1 1.5-3.3 2.1-.8.4-1.8-.8-2.4-1.1-1.5-.6-2.6-.5-3.6.7-2.6 3.1-1.2-.6-3.4-1.4-1.5-.5-3 4.2-4.5.6-.5-1.2 1.5-2.2.5-3.5-.5-.8-.1-2.6.2-3.3.3-.9-2.5-6.3-3.1-3.9-.7-.2-1.7-2.3-2-2.9-.3-.6.6-1.7.6-2.8 0-1.7.1-2.4-1-3.7-.4-.5-.8-1-.6-1.7-.1-.7-.4-.7-.9-1.9"><title>Mali</title></path>
        <path id="democratic_Republic_of_the_Congo_1_" fill="#bbddac" stroke="#FFF" stroke-width=".797" stroke-miterlimit="3.974" d="M334.8 402.1c.7-.6 1.6-.1 1.9-1.1.2-.8.9-4 .3-4.6-1.5-1.7 4.3-4.3 5.4-5.2.3 1.2 2.1 1.4 2.2 2.7.6-.6 1.3-1 2-1.5.9-.7.5-2 1.3-2.8 1.3 1.7 3.2-1.6 4.7-.8 1.4.7.1 1-.1 2s.4 2.1.4 3.2c.6-.8 2.1.2 2.9-.4 1.3-.9 2.1-2.6 3-3.8.5-.6 2.6-1.6 2.7-2.2.3-1.5 1.5-1.8 2.7-2.4 2.8-1.2 3.4-6.6 3.3-9.1-.1-1.9.1-3.7-.1-5.7-.2-1.9 2.1-2.3 2.9-3.8 1.9-3.5 1.7-5.7 5.5-8.2 1.6-1.1 2.6-2.3 3.6-3.8s.3-3.6.7-5.3c.4-1.5 1.1-7.9 1.2-9.6.1-1.9 1.2-3.6 1.5-5.4.3-1.8-.2-3.7.2-5.5.8-3.3 2.7-6.1 3.9-9.2.7-1.8.3-3.8.3-5.7 0-.9.4-1.8.2-2.6-.1-.8-.6-1.4-.8-2.1-.3-1.2 1.7-1.1 2.1-2.2.6-1.5 1.3-2.7 2.4-3.9 1.1-1.1 2.4-2.1 4-2.1 1.4 0 1.9 1.2 2.8 1.4 2 .4 3.9 2.6 4.7 4.5.6 1.5 2.8.4 4 .8.7.2 1 1.1 1.8 1.1.7 0 .8-.2 1.5.2 1.1.5 1.3 0 2.3-.1.7 0 1.5.3 2.1.6 1.2.4 2.7 1.3 4 .8 2.2-.8 1.6-6.2 4.5-6.3 1.7-.1 2.2 3.4 4.4 1.3.9-.9 7.4-1.7 7-3.9 1.3-.1 1.8 1.8 3.1 1.7 1.5-.2 4.2-.4 4.8-2 .2-.6-.4-1.2.4-1.6 1-.5 1.8-.2 2.6.6 1.2 1.2 2.4-.2 3.8.4.7.3 1.2.8 1.9 1.2.8.4 1.3.1 2.2.2 2 .3 2.7-1.9 4.8-.7.8.4 3.5 2.2 3.5 3.2 0 .5.6 1.7 1.1 1.9 2 .8 4 3.8 6.1 1.8 1.2-1.2 2.1-1.4 3.8-.6 1.7.8 2.3.5 3.3-1.5 1.3-2.6 4.6 3.9 4.8 4.3.8 1.9 5.8 2.1 4.3 5.1 1-.2 2.2-.3 2.4 1 .1.3.3.6.5.9.1.6-.7 1.9-.6 2.5.3 2.2-.1 4.3-.4 6.4-.2 1.1.6.9 1.9.7.6-.1 2.7 1.4 2.3 2.6-.9 2.8-4.4 5.6-6.4 7.7-.7.7-2 2.5-2.8 3.2-.8.7-.9.1-1.3 1-.6 1.1.1 2.5-.6 3.6-.8 1.3-1.6 3.2-1.7 4.6-.1 1.3-.1 2.7-.2 4-.1 1.6-.3 2.9-.5 4.4-.1 1.1.2 2.6-.3 3.6-.6 1.1-1.5 1.5-2.3 2.5-1.3 1.4-1.2 1.9-1.2 3.5 0 1.1-1.2 2.3-1.8 3.1-1.3 1.7.5 3.5 1.5 5.1.8 1.2 1.3 2.1.7 3.8-2 1.8.4 7.4-1.5 9.3 1.4.8 1.2-2.8 1.6-2.2.5 2.9-1.3 4.9-1.3 7.7 0 3.6 3.1 5.3 1.8 7.8-.7 1.5-1.5 1.8-.9 2.7 1 1.4 1.4 3.8 3.3 7.5 1.3 2.5 4.9 2 5.1 8 .1 2.4 1.9 1.1 2.6 4.7-5 1.1-8.8 1.3-13.8 2.4 2.1 3.5-3.3 4.9-4.3 7.5 2.9.9 1.9 5.4 1.7 7.6-.1 1.6.5 3.1.4 4.7 0 .8-.2 1.6-.6 2.3-.5 1-.8 1.8-1.1 2.9-.5 2.1-1.3 3.4.1 5.5.9 1.4 2.7 3.3 4 4.4.6.5 3.5 2.4 3.8 1.2.4-2 .9-1.6 2.9-2.2 0 3.1-.1 6.2-.2 9.3 0 .5.3 2.5-.5 2.6-.9.1-1.1-1-.5-1.5-1.4-1.7-4.5 3.6-6 .4-.5-1.1-.9-2.4-1.7-3.4-.4-.5-1.5-1.3-1.6-1.9-.2-1.3-.5-2.7-2.1-2.8-1.3 0-1.9-1.4-3.2-1.6-1.1-.1-1.7.7-2.5-.5-.6-.9-.6-2.2-1.4-3-1.2-1.1-2-4.8-3.1-1.5-1.1 3.4-3 1.6-5.6 1.7-1.8.1-2.2-.5-3.8-1.2-.1 0-1.7-.4-1.8-.4-2.4.4-3.2-3.3-2.3-5-1.5.1-3 .4-4.4.9-1.7.7-2.1 1.5-4 .7.7-1.3.8-3.1.1-3-.8 0-1.2-.7-1.8-1.2-1.3-1.3-1.2.2-1.5.3-1.2.4-1.7.4-2.8.1-1.3-.3-2.1.6-3.2 1-1.5.5-2.4-.5-3.4-.3-.3.1-1.7-.1-1.7-.1-.9.5-1.4 1.9-2.7 1.9.3-1-.3-1.7-.5-2.6-.2-1.2.6-1.4.9-2.4.6-2.2-.2-6-1.6-7.8-1.6-2.1-2.3-3.5-2.1-6.3.2-2.9 1.2-5.9.5-8.8-.3-1.1-1.1-2-1-3.2 0-1.3.7-2.5.8-3.8.2-2.1-1.2-1.9-3-1.9h-4.9c-3.4.1-2.9-.6-1.9-3.5-.8 0-1.5-.2-2.2.1-.5.2-.1.4-.4.7-.9.8-5 .1-6.2.1.4 1-.3 2.2-.2 3.3.1.9.2 2.3-1.2 2 .5 1.3-.4 2.7-.1 4-.6 0-4.3.1-4.8-.2-1.8-1-4.9.9-5.5.9-1.4-.2-2.7-.2-4.3-.2-1.9-.4-2.8-4.5-3.8-5.9-.3-.5-.6-.9-1-1.4-.7-.9-.4-1.6-.5-2.6-.2-1.8-2.1-2.9-1.8-4.8.2-1.7 0-3.1-.8-4.1-1.1-1.4-1.1-1.9-2.8-1.8-4.7.2-9.4.4-14 .1-3.8-.2-8.2.4-11.9-.3-2.7-.3-5.1 4.1-6.9-.4"><title>Democratic Republic of Congo</title></path>
        <g id="somalia-somaliland">
            <path fill="#bbddac" stroke="#FFF" stroke-width=".797" stroke-miterlimit="3.974" d="M570.3 327.2c0-1.5-.4-3.6.3-5 .6-1.3 1.9-2.4 2.7-3.6 1.7-2.4 3.2-6.7 5.8-8.3 2.4-1.4 5.1-.5 7.2-2.7 2.3-2.5 4.6-4.2 8.1-4.7 2.6-.4 7.3 1.5 9.1-.9l23.2-27.5c-2.8 0-5.7.5-8.5-.2-3.1-.8-6.1-2.3-9.1-3.4-3.1-1.2-6.2-2.4-9.3-3.5-2.9-1.1-5.4-1.9-7.6-4.1-.7-.7-1-1.1-2-1.4-1-.3-1.4-1.9-1.9-2.8-.8-1.5-1.4-2.6-2.5-3.9-1.4-1.5-3-3.5-2.4-5.8.7-2.5 2.9-4.7 3.9-7.1 2.6 1.4 4 4.9 5.7 7.1 2.2 2.8 5.5 3.5 8.9 2.4 1.3-.4 3-1.6 4.1-2.4 2-1.5 2.5-1.2 4.9-.8 2.5.4 3.6.9 5.9-.5 1.2-.7 3.9-3.5 5.4-2.9 1.7.6 2.8.7 4.6 0 1.1-.4 2.1-.9 3.2-1.2 1.3-.3 2.1.3 3.4.4 2 .2 3.6-1 5.3-1.7 1.8-.7 3.9-.4 5.7-1.3 1.5-.8 1.7-2.8 3-3.4 1.3-.6 5.3.5 4.8 2.3-.6 2.3-1.1 3.8-.6 6.3.3 1.7.8 4.2-.8 5.5 1 .4 1.8.1 1.6-.9.5.3 1 .6 1.6.7-.3 1.7-4.1-.6-4.1 2.3 0 2.4.2 4.8-.5 7.2-.6 2-1.8 3.5-2.9 5.2-1.3 2-1.2 4.8-2.8 6.7-.6.7-1.5.9-1.9 1.9-.4 1-.1 2-.4 3.1-.8 2.3-2.5 4.1-3.6 6.3-1.5 2.8-1.7 6-2.9 8.9-1.2 3-3.1 5.6-4.9 8.3-1.7 2.6-2.8 5.6-4.8 8-2.2 2.7-4.3 5.4-6.5 8.1-4.4 5.4-8.9 9.7-14.8 13.5-2.5 1.6-4.9 3.2-6.9 5.3-2.3 2.4-4.9 4.7-7 7.2l-6.3 7.5c-1 1.2-1.9 2.6-2.8 3.8-.6.8-2.4 3.6-2.7 1.9 0 2.7-1.7 5.2-3.3 7.2.1-2.1-1.9-3.8-3.3-5.9-1.6-2.3-1.4-4-1.4-6.7-.1-8.3.1-16.3.1-24.5"><title>Somalia/Somaliland</title></path>
        </g>
        <path id="guinea-Bissau_1_" fill="#bbddac" stroke="#FFF" stroke-width=".797" stroke-miterlimit="3.974" d="M99.6 234.5c.7-.5 1.7-.1 2.5-.5.9-.4 1.7-.9 2.6-.9 2.1-.1 3.9.5 5.7-1 1.5-1.3 3.4-.9 5.3-.9h8.3c-.2 1.1 1 2.3 0 3.3-.5.5-2 .4-2.2 1.2-.3 1.1 3.7 2 1.7 4.2-1 1.1-2.5.5-3.8.7-1.2.2-2.6 1.2-3.9 1.5-2.1.6-1.1 4.4-3.3 5.1-.5-2-.8-2.3-2.6-3.2.2-.3.3-.6.5-.8-1.6 1.2-.1-3.6 2.2-1.9-.5-1.5-1.9-.5-2.7.2-.8-1.4-.9-2.3.8-2.9 1.4-.5 1.9 1 3.2.9-.7-.3-1.1-1.2-.5-1.8-.5-.2-1-.1-1.5.2-.8.4-1.4-.1-2.2 0-.8.1-1.2.7-1.8 1.2-.7.6-1.7.5-2.6.7.1-1.4 1.2-1.9 2.2-2.6-1.3-.1-2.4 1.3-3.7 1-2.6-.6-.9-2.8.3-3.7-.5.1-1 .1-1.5.2-.3.3-.5.6-.8.8-.8.3-1.3-.8-2.2-1"><title>Guinea Bissau</title></path>
        <path id="ghana_1_" fill="#bbddac" stroke="#FFF" stroke-width=".797" stroke-miterlimit="3.974" d="M209.2 290.7c-.5-2.6-.7-4.7.5-7.2 1-2.1.4-2.9 1.2-5 .6-1.6 2.7-3.8 3.3-5.2.9-1.9.2-4.6-.4-6.6-.2-.8-.6-1.3-.9-2-.3-.8.2-1.6.2-2.4.1-1.8-.7-3.1-.4-4.8.4-1.9-.4-3.8-.7-5.7-.2-.9-1.1-1.8-.5-2.7.4-.7 1-1.7.7-2.6 4.5.4 8.6-.3 13.4 0 1 .1 3.8-.2 4 .4.4 1 2.1-.6 3-1.2.9-.6 3.5-.1 2.9 1-.9 1.7-1.1 3.5 1.5 5.4 2.1 1.6.9.9 1.3 2.5.2.8.3.7.2 1.6-.1.9-.1 2.4-.3 3.5-1.1-.2-.7.6-1.2 1.3.7.1 1.2-.7 1.8-.5.9.3.9 1.6.7 2.3-.4 1.3.5 4.7-1.3 4.4.4 1.1 1.7 1.8 2.4 2.8.8 1.2.1 1.5-.4 2.6-.6 1.3.5 3.1-.2 4.3-.9 1.5-1 2.2.2 3.5.6.6-.1 2.1-.3 2.8-.7 1.7-.8 2.4.1 4.1.6 1 1.9 2 2.8 2.7.3.2 1.9 1.2 1.9 1.3.2.9-1.2 1.3-1.4 2-.3 1-1 1.9-2.2 1.7-.7-.1-.9-1.6-1.3-2-.8-1-2.1-.6-3.2-1 .8.7 2.2.3 3.1.9 1.8 1.3-.9 2.1-1.8 2.3-3.4.6-5.5 2.5-8.3 4.2-1.6 1-3.4.9-5.1 1.6-1 .4-2.2.7-3.1 1.4-.7.6-1.3 1.4-2.2 1.8-.9.5-1.6.3-2.2-.4-.9-.9-1.9-1-3-1.4-1.2-.4-2.2-.1-3-1.3 1 0 .5-.2 1.5-.1-.4-1.3 1.1-5.4-1.7-4.7 1.1-1.4-.6-4.2-1.6-5.6" ><title>Ghana</title></path>
        <g id="uganda">
            <path fill="#bbddac" stroke="#FFF" stroke-width=".797" stroke-miterlimit="3.974" d="M476.9 359.4c.5-1.4.4-3.4.6-4.9.3-1.9.5-3.9.7-5.8.3-2.4 1.7-3.7 1.9-5 .1-.8-.2-1.5 0-2.3.2-1.2 1.4-.9 1.9-1.8 1.7-2.6 4.3-4.5 6.6-6.8.9-.9 2-2.5 2.4-3.7.3-1-1.6-2.1-2.3-2.4-.6-.3-1.4.6-1.9-.3-.3-.8-.1-1.8.1-2.5.5-2.3-.4-4.2.8-6.4.3-.6-.5-.8-.3-1.4.2-.7.9-1.3 1.4-1.7.5-.4 1.2-.8 1.9-.7.6.1 1.7 1.3 2.3 1.1.8-.3 1.9-1.7 2.7-.7.9 1.1 1.1 1.5 2.6 2.1-.8-1.4 1.5-1.9 2.6-2.1 1.4-.2 2.9-1.3 4.2-1.1 1.8.2 2.4 1.8 4.4.4 1.4-1 2.4-2.5 3.5-3.8.6.9 1.3 2.1.9 3.2 1.3-.1.4.8 1.6 1.2 1.2.4 1.7.6 1.2 2.2-.7 2.1 1.4 4.3 2.5 6.8.2.5 1.5 2.1 1.4 2.5-.1.9 1 2.2 1.2 3.1.4 1.5 0 3.6-.7 5.2-.6 1.3-1.7 1.5-1.4 3 .1.8-1.1 1.3-1.7 1.6-1.1.6-1.2 2.1-1.9 3.3-.5.9-1.4 1.3-1.7 2.2-.5 1.2-.9 2.1-1.5 3.2-.5 0-2.5.6-2.2-1.1-1.2.5-.9.8-1.4.9-1.5.2-1.5-.7-.4-.6-.3-.6-1.3-1.4-1-1.8-.8.3-.3.1-1.5.5l.4.6c-1 .3-.2 1.3-1.5 1.2.2 2-2.8 1-3.2 1-.1 0 .2-1.8-.1-1.5-1.5 3.4-2 1.6-2.3 1.8.1.7-.5.8-1.7.9-.6.8-2 .8-1.9 1.1 1.1 2.8-1.2 3.3-1.6 5.2-.3 1.7.3 1.8.5 2.9-7.7 0 1.7.3-6-.2-2.7-.2-5.8.3-7.3 2.3-.5.7-1.3 2.5-2.2 1.9-.2-.2-.4-1.1-.8-1-.8.1-1.9.9-2.3 1.1.4-.9 1.4-2.1.5-2.9"><title>Uganda</title></path>
        </g>
        <path id="mozambique_1_" fill="#bbddac" stroke="#FFF" stroke-width=".797" stroke-miterlimit="3.974" d="M480.5 487.6c5.9-2.2 11.9-4.4 17.8-6.5 1.3-.5 2.6-1.1 3.9-1.6.4-.2 1.6-.9 2.1-.8l4.5 5c0-1 2.2-.7 3.2-.9.9-.2 2.2-1.1 2.9-.1 1.3 1.7 1.3 5.8.6 7.7-.9 2.4-2.9 4.6-1.6 7 .3.6.1 1.3.5 1.8.4.6 1.1 1 1.5 1.6.8 1.2 2 2.4 3.1 3.3 1.1.9 1 1.1.3 2.3-.8 1.3 1.7 1.7 1.9 0 .2-1.7-.3-3.1-1.3-4.5 1.5-1.1.7-3.4 2.9-3.8 3-.6 3.3-1.9 3.3-5 0-1.1-.2-2.2-.1-3.3.1-1.8 1-3.8.3-5.5-.8-1.8-2.4-3.4-3.4-5-1-1.5-1.9-3.2-3.1-4.5-.9-1-.6-.1-1.4-1-.2-.8.2-2.3-.3-3.8-.6-2 .5-3.1.3-4-1.5-5-.6-3.8-.7-4.4.6-1.3 2.5-1.1 2-5.7 1.6.2 3.1.5 4.9 0 1.1-.3 2.1-1.6 3.2-.9.8.5 1.2 1.5 2 2 .7.3 2.8.5 3.5.3 1.2-.3 2.1-2.3 3.4-.9 2.5 2.7 5.5-.5 6.7-2.5.7-1.1 1.9-1.1 2.9-.5 1.7 1.1 2.1 1.1 3.7-.1 1.4-.9 2.4-1.6 4.2-1.3 1 .2 3-1.7 3.9-2.2 1.9-.8 3.4-2 5-3.3 2-1.5 3.2 1 1.5 1.8.3.1.5.3.8.4-.8 1-.3 2.1-.8 3.2-.2.6-1.7 1.4-.8 2 .7.5.6 3.3.7 4.3.1.8.1 1.6.1 2.4-.1 1.2-.5.9-.1 2 .1.4 0 .8-.1 1.2-.2.7.3 1 .5 1.6.3.9-.1 2.3-.7 3 2.1.3-.6 5 .2 5.3 1.5.5 0 5.4.5 6.5 1.6-1-.2 2.2.2 2.9.1-1.4 1.5-1.1 1.3.2-.3 1.5.1 2.5-1.4 3.3l.9.6c-1.8-.4-.2.2-.8.8-.3.4-.8.5-1 1 1.7-.6.2 2.1 0 2.6-.9 1.8-2.7 2.8-3.5 4.6-.9 1.8-2.3 2.8-3.3 4.5-.7 1.3-5.8 3-5.6 4.4.1.6-3.8 1.3-4.5 1.8-.7.4-1.4.7-2.2 1-1.2.4-1-.1-1.9.7-1.3 1.2-3 1.7-4.6 2.5-1.5.8-3.9 4.4-5.6 3 3.1 3.4-4.5 4.8-3.8 8.3-.6.1-1.1-.3-1.2-.9.2 1.2-1 2.8-.8 1.1-1.5 1.3-3.2 2.1-4.4 3.7-1.1 1.4-2 2.7-3.3 3.9-.5.5-2.6 2.7-3.3 1.8-.5-.6-1.1-2.6-2.2-1.9 1.9-.1 1.2 2.2 1.6 2.8.3.5.3 1.4.1 2-.1.3-.3.5-.6.5.2.4.3.9.2 1.4-.2 2.4.6 1.8 1.9 3.4.7.9.9 2 .9 3.1 0 .4-.4 3.8.3 1.7-.5 1.8.7 3.8.9 5.6.1 1.1.5 2.3.3 3.4-.2.9-.6 2 .4 2.6.2-1.2.1-2.3.9-3.2 0 .4 0 3 .4.8-.2 1.3-.5 2.5-.6 3.8-.1 1.1.7 2.2.6 3.3-.4 3-2.6 5.9-2.1 9.2-.3-1.8 1 .1 1.1-1.5 1.2 2-1.1 4.9-2.3 6.3-2 2.3-5 3.3-7.8 4.3-3.1 1.1-6.3 2.3-9.1 4.1-1.3.8-2.6 1.5-3.3 3-.6 1.2-.9 2.6-2.5 2.8 1.1 0 2.7 3.7 3.6 1.5-.2 1.9.8 6.9-1.2 6.8l-4.8-.2c.1-1.6-.9-3.4-.7-4.6.2-1-.3-2-1-2.9-.5-.7-.4-2.3.1-3.6.3-.7.3-3.4.3-4.1.1-1.8.1-3.7.2-5.5.1-1.7-.3-2.8-.5-4.4-.4-2.4-2-4.3-2.5-6.6-.2-1.1-.1-2.3-.3-3.4-.3-1.6-.6-3.1-1-4.7-.3-1-.7-.7-.2-1.5.6-.4 2.2-2.5 2.8-3.2 1-1 5.6-7.5 6.9-6.7-1.2-1.6 0-2.5.4-4.1.2-1-.7-2.3.4-3 1.5-.9 1.9-2.1 2.7-3.6.4-.7.5-1.2.8-1.9.4-1.1.1-2 .1-3.1-.3.1-.5.2-.8.3-.6-1.1-1-2.1-.7-2.8.3-.8 1.2-1.4.9-2.4-.3-.9-1.6-.6-1.2-2 .3-1 2.1-1.2 1.9-2.5-.3-2.2 1.1-1.4 1-2.8-.1-1.2-.8-2.3-.5-3.5.2-.8.7-1.8.5-2.6-.4-1.7-.3-2.8-.2-4.6 0-.6-.3-1-.5-1.6-.2-.8.6-2.2.7-3-1.1.3-1.7.3-2.3-.8-.6-1.1-3.8-1.1-4.7-1.6-2.6-1.5-5.1-3.1-7.9-3.8-.9-.3-3.7-.2-4.7-.4-1.6-.4-.9-2.9-1.1-4.1 0-1.6-1.3-3.1-1.2-4.9"><title>Mozambique</title></path>
        <g id="mauritania">
            <path fill="#bbddac" stroke="#FFF" stroke-width=".797" stroke-miterlimit="3.974" d="M99.6 156.2c-.2-1.5-.1-2.5.5-3.9.2-.4.7-1.4 1.7-1.4h29.9c1.5-.8.5-7.4.4-9.9-.2-2.6-.4-4.2 1.6-6.2 1.7-1.6 1.7-1.2 7.1-3.4L142 108l26.6-.3.4-11.9c10.1 6.8 20.1 13.9 29.9 21.2h-14.2l5.8 78.1c.5 1.3 1.8 1.8 1.9 2.1.8 2-.2 2.6-.3 4.1-.1 1.8-.3 3.4-.8 3.6h-17c-9.7.3-13.8 1.7-14.7-1.2-.4 2.6-4.2 3-6.1 2.3-3-1.2-4.9-.7-6.1 2.7-.7-1.1-1.7-2.1-2.7-3.1-1.2-1.2-2.4-1.8-3.1-1.5-2.5 1.4 1 8.2-5.1 7.8 0 .1-1.6-1.2-2.1-2-.5-1-1.2-.7-2.2-1.6-1.1-1-1-2.5-2-3.1-2.5-1.6-1.5-1.7-1.7-2.8-.3-1.4-1.7-3.1-2.4-3.1-3.6-.1-3.9-3-6.3-4.1-1.2-.6-2.2-.9-3.8-.9-2.5-.1-3.4 2.4-9.1 1.9-1.2-.1-1-.9-2.1-.6-1 .4-2.2 3.6-2.6 4.4 0-5.6 3.7-10.1 4.2-15.6.3-3.3-.1-6.1-.5-9.3-.1-1.2-.1-2.4-.8-3.4-.6-.9-1.8-1.5-1.9-2.6.9.3 1.8-.4 1.7-1.3-.6.2-1 .6-1.2 1.2.2-1.1 1.1-1.9 1.6-2.9.3-.6-.1-1.6.2-2.1 1.7-1.9-.9-5.3-1.5-7.2-.3.5-.4.9-.5 1.5-1.7-1.3-1.3-3.9-3-5.2-.3.9-.7 2-.9 3.1"><title>Mauritania</title></path>
        </g>
        <g id="angola">
            <path fill="#bbddac" stroke="#FFF" stroke-width=".797" stroke-miterlimit="3.974" d="M330.9 508.5c-.1-3.8.9-7.5.5-11.3-.1-.6-.5-1.1-.3-1.7.3-.9 1.3-1.3 1.7-2.2.3-.7.3-1.5.4-2.2.1-.7 1-1.5.8-2.1-.5-1.2 1.2-4.5 1.5-5.9.4-2 0-4.1 1.1-5.8.7-1.2.3-3.6 1.1-4.3.9-.8 2.3-2.4 2.8-3.4.8-1.5.3-3.9 2.8-4.1 1.7-.2 1.9-1.5 2.7-3 2-3.5 2.6-9 1.7-13-.4-1.8-1.1-3.1-2.2-4.6-1.1-1.6-1.1-2.8-1.7-4.5-.3-.8-.9-1.3-1-2.2-.1-1 0-1.9-.4-2.9-.7-1.4-2-3.2 0-4.2-.5.4-.9 1-.8 1.6.4-.8.9-1.6 1.5-2.2.5-.5 1.3-.5 1.4-1.3.2-2.1-.2-4-1.2-5.8-1.1-2.1-1.7-4.2-2.6-6.4-.4-1-.4-2-.6-3-.4-1.5-1.8-2.5-2.5-3.7-.6-1-2.8-4.7-.9-5.3.9-.3 1.8-.3 2.6-.4 1.2-.2 1.8-1.3 3.2-1.4 6.3-.6 12.7.1 19 0 2.4-.1 4.9-.2 7.3-.2 2.3.1 1.8 1.6 2.8 3.1.4.6 0 2.4.2 3.2.4 1.5 1.1 2.8 1.6 4.2.4 1.1-.2 2 .7 3 1 1 1.2 1.8 1.8 3 .4.8 2 4.4 3.1 4.1.7-.2 4 .1 4 .1-.2-.4 3.6-1.5 4.3-1.4 1.9.4 3.7.7 6 .7-.3-1.3.5-2.7.1-4 1.1.2 1.2-.8 1.1-1.7-.2-1.1.7-2.6.3-3.6h6c.6 0 .2-.7.7-.9.7-.2 1.5 0 2.2 0-.4 2.2-1.6 3.5 1.2 3.5 2.5 0 4.9-.1 7.4-.1 2 0 1.7 2.1 1.2 3.5-.3.8-.6 1.6-.7 2.4-.1 1.3 1 2.6 1.3 3.9.5 2.7-.5 5.7-.7 8.5-.2 2.9.8 4 2.4 6.1 1.2 1.5 1.7 5.4 1.4 7.3-.1.7-.7 1.1-1 1.7-.4 1.2.7 2.3.4 3.5 1 0 1.9-1.4 2.7-1.8.7-.4 2.8.2 3.6.4 1.4.4 3-1.2 4.5-1.1 1.4.1 3 .9 3.5-.9.7.9.7 3.9.5 5-.3 1.5-.2 2.9-.6 4.4-.4 1.8.7 3.4.2 5.1-.5 1.7-1.7 3.1-.2 4.8-3 1.3-7.3.7-10.5.6-1.6 0-3.5-.4-5.1-.2-1.4.2-.7 5.5-.8 7.2-.2 4.5.1 7.7-.1 11.1-.2 3.4 0 6.9-.1 10.4s2.3 4.5 4.4 7c2.2 2.7 4.3 5.4 7.3 7.3-4.8.9-9.6 1.7-14.3 3-1.9.5-2.6 0-4.4-.2-.8-.1-1.5.3-2.2.5-1.2.4-2.3-.2-3.4-.5-4-1.1-8.3-.7-12.3-1.3-1.7-.3-2.6-1.8-3.5-3.1-.7-1.2-3.1-.7-4.3-.7-10 .5-20.2 0-30.2 0-2.1 0-2.3-.1-4.1-1.5-1.8-1.4-3.2-3.1-5.6-2.1-1.8.8-3.6 2.9-5.6 2-2.9-1.6-3.2-.3-5.1 0"><title>Angola</title></path>
        </g>
        <path id="angola_x1_1_" fill="#bbddac" stroke="#FFF" stroke-width=".797" stroke-miterlimit="3.974" d="M333.3 395.1c1.4-1.1 2.9-3.9 4.8-4.2.8-.2.7-1.5 1.6-1.5 1 0 1.6 1.6 2.3 2.2-1.6 1.1-3.1 2.1-4.5 3.5-.7.7-.5.7-.2 1.5.4 1.1.2 2.4.1 3.6-.1 1.6-3.1 2.8-3.1.8 0-1.1.6-1.4.2-2.6-.3-.9-1.6-2.5-.5-3.3-.2-.1-.5-.1-.7 0" />
        <g id="sudan">
            <path fill="#bbddac" stroke="#FFF" stroke-width=".797" stroke-miterlimit="3.974" d="M516 248.3c.9-1.2 2 1.4 2 2.7.7-.7 2.7-3.4 2.4-4.6-.3-1-.4-2.1-.2-3.1.5-1.8 0-4.4 1.7-5.4 1.6-1 2.2-4.4 3.2-6 1-1.6 2.3-.5 3.8-.7 1-.1.6-3.5.6-4.3 0-2 1.5-3.6 1.8-5.5.4-2.4.7-5.1.4-7.4-.2-1.9-1.1-4.5-.3-6.4 1-2.3 1.2-4.8 2.2-7.1.4-.9.9-2 1.1-3 .2-1.1-.6-1.8-.4-2.9.2-1.1.8-3 1.8-3.6.7-.4 2.8-.1 3.1-1.1.5-1.9.3-2.1 2.4-2.9 1.2-.4 3.4-1.5 4.1-2.5.5-.7 1.8-2.6 1.7-3.5-.2-1.4-2.6-1-2.6-2.3-1 .9-3.8-3.8-5.3-4.1-2.6-.4-3.4-5.4-3.5-7.6-.2-3.1-1.1-5.9-.7-9 .2-1.4-.2-2.8-.8-4.1-.7-1.7.7-2.5 1.1-.9-.1-2.2-2.6-3.6-3.2-5.6-.7-2.5.3-3.4-1.9-5-1.7-1.2-2.8-3.4-4.6-4.3-2-1-3.6-1.9-4.2-4.2-.7.7-2.6 3.6-3.8 3-1.5-.8-2 1.2-2.3 2.1-.6 1.8-1.2 2.8-3.1 3.1-1.9.3-2.3.8-2.7 2.7-.9 4.2-5 1-7-.1-1.7-.9-4.7-.3-6.6-.2-2.5.1-4.5.2-6.9-.2.2-.7-.3-3.6-1.3-1.8-1 2-2.8 1.8-4.8 1.8h-46.3c.2 6.2.3 12.4.4 18.5H429c.6 13.2.5 26.5.5 39.7-1.3-.4-2.2-.9-3.5-.2-1.1.6-2.1-.1-3.2.5-2.6 1.3.2 3.2-1.5 5.3-1.3 1.6-1.5 3.4-3.4 4.4-1.2.6 0 3.5.7 4.2-2.7 2.2-4.4 2.8-2.4 6.5.7 1.4-.2 2-1.4 2.8-1.2.9-1.4 2-1.9 3.3 1.1 2.8 3 .1 4.8 1.2 1 .6-.5 1.6 0 2.4.6 1 .1 3.5-.2 4.6.3-.1 1.3-1.4 1.6-1.6.8 1.3-.7 2.9 0 4.2.7 1.4 2.4 1.5 3 2.5.9 1.4-.9 2.7-.3 4.1.7 1.5 1.8 2.6 2.9 3.7 2 2 3.1 3.4 3.1 6.3l-.7 3.2 6.4-2.6 6.1-10.5 6.1-.8 3.6 7.4 1.9 1.1 3.6-1.1 6.6-.3 2.2 1.6 4.4.5 1.9-3.3h3l.6-3 3.6-1.9 6.6 4.7 3-.3 6.4-7.9 3.3-3.6-2.5-7.4 8.3-2.2v12l6.6 5.2v5.2l4.9 4.3c2-2.2 1.1-7.1 2.3-8.7z"><title>Sudan</title></path>
        </g>
        <path id="south_Sudan_1_" fill="#bbddac" stroke="#FFF" stroke-width=".797" stroke-miterlimit="3.974" d="M513.9 257.4c-.6 1.9-.6 3.9-.5 5.9.2 2.5 1.3 7-2.5 7.4-1.1.1-2.4-.3-3.6-.3-1.8.1-1.1.9-1.4 2.4-.2 1.2-2.5 2.3-.5 3.5 1.3.8 3.1-.1 4.4.7 1.4.8 2.3 1.9 3 3.4.6 1.4 1.6 2.6 2.8 3.5 1.1.8 1.6 2 2.7 2.7 1.4.8 1 2.8 1.7 4.1.8 1.5.9 3.2 1.7 4.8.3.6.7 1.4 1.3 1.8.7.4.4 1.3 1 1.9.9-1.2 1.7-.9 2.7-.8 1.2.1.9 1 1.2 1.9.4.9-.3 2.1-.3 3 0 1.2.7 1.9 1.4 2.7-3.8 0-8.5-.7-12.3.2-2.3.5-4.3 4.3-5.9 6.1-.3.3-1.4 1.9-2 1.8-.8-.2-1.8.2-2.5-.3-.7-.4-.9-.7-1.8-.6-1.3.3-6.8 1-6.3 3.1-1.4-.5-1.6-1-2.5-2.1-.6-.8-1.8.2-2.5.5-1.1.5-1.7-.8-2.6-1-1.5-.3-3.1 1.6-3.5 2.8-.2-1.4-1.4-1.4-2.4-1.2 1.2-2.6-2.9-3.4-4.2-4.9-.6-.7-1.1-1.3-1.7-2-.6-.8-.5-1.6-1.3-2.3-2.5-2.1-2.3 2.3-4.3 2.1-2-.2-2.4-2.4-4.3-.6-1.3 1.3-2.2 1.8-3.8.8-.4-.3-1.1-.9-1.4-1.4-.4-.9-1.6-.5-2.1-1.8-.5-1.2-1-1.9-2.1-2.5-.8-.5-1.2-1.7-1.8-2.4-.8-1-.4-2.2-.5-3.3-.1-1.7-2.1-2.1-3.2-2.9-1.3-1-3-1.2-3-2.9 0-.7-.9-1-1.3-1.6-.6-.9.5-1.7.2-2.5s-1.6-1.1-2.1-1.8c-.7-.9-.3-1.5-1.5-2.1-2.2-1.3-4.3-2.2-6-4.1-.6-.7.5-1.4.5-2.1 0-1.1-.7-1.3-1.6-1.7-1-.4-.9-1.3-1.6-1.9-.6-.6-1.5-.7-2.4-.9-1.2-.2-3.8-.1-3.8-1.9 0-.5.8-1.8.4-2.2-1.1-1.1-4.4-.7-5.8-1 .3-.8.8-1.6.6-2.4-.3.1-.6.3-.9.4-.2-1.3.4-1.5 1.1-2.4l-.1-2 6-3 6.2-10.6 6.1-.8 3.6 7.5 1.9 1.1 3.6-1.1 6.7-.3 2.2 1.7 4.5.6 1.9-3.3h3.1l.6-3 3.6-1.9 6.7 4.7 3.1-.3 6.4-8 3.3-3.6-2.2-7.7 8.3-2.2V243l6.7 5.2v5.3l1.9 1.1 3 2.8z"><title>South Sudan</title></path>
        <g id="algeria">
            <path fill="#bbddac" stroke="#FFF" stroke-width=".797" stroke-miterlimit="3.974" d="M168.9 95.8l.5-11.6c-.5-3.1 4.3-4.2 6-5.7.9-.8 2.3-2.4 3.6-2.3 1.1.1 1.4-1.7 2.9-1.9 2.5-.5 3.7 1.9 5.2-1.3.5-1 2-.6 2.9-.7 1.6-.2 3.2-.4 4.7-1 3-1.1 3.1-4.3 5.7-5.7 1.1-.6 2.4-.6 3.5-1 1.4-.5 2.3-2 3.7-2.3.5-.1 3.3-.3 2.2-1.8-.7-.9-1.9-1.3-.4-2.7-2.2-.6-.2-2.9 1.4-2.7 2.1.2 4-.6 4.8-2.5 1.4-3.8 11.1-.4 13.9-1.1-3.2-1.4 2.3-3.2.6-4.5-.8-.6-1.7-1.2-2.4-2-.8-.9-.4-2.3-1.1-3.4-.8-1.2-.4-2.2-.1-3.4.2-1.1-.6-1.1-.5-2.2.1-1 .1-2.2.1-3.2 0-1.3-.9-2.4.5-3.5-1.4-.6-.8-1.3-1-2.4-.3-1.4-2.7-1.8-3.2-3.2 2.6 0 3.7-.6 5.8-1.7.9-.5 1.5-.5 2.1-1.5.5-.9.9-1.6 1.8-2.1.5-.3 1.6-1.1 2.1-.7.7.6 1.6-.4 2.1-.9 1.3-1.1 3 1.7 4.3-.9 1.7-3.5 7.7-5.1 11.1-5.5 2.5-.3 5-1 7.5-.8 1.9.1 3.1-2.2 4.8-1.3.7.4.5.2.8-.3.1-.1 2.8-.1 3.3-.2 2.4-1 4.8-.6 7.4-.7 2.1-.1 2.6.4 4.2 1.6 2.1 1.5 2.8-.7 4.6-1 .6-.1 4.1-.2 3.9-1.3-.4-1.9 2.2-.7 2.9-.3 1.3.9 3.2 1.3 4.5.2.7-.6.3-1.3 1.6-1 1 .2 1.7 1 2.8.9-.9 1.5 1.3 1 2 .8 1.4-.4 2.9 0 4.3-.5.1 1.9-2.3 2.9-3.4 4.1 2.9.6.1 4.7.7 6.5 1 3.2.6 5.7-.1 8.9-.6 2.6-3.5 4.7-5.4 6.4-1.1 1-.6 3.6.1 4.7 1.1 1.8.6 3.8 2.8 4.6 3 1.1 2.1 5 4.6 6.8 1.1.8 2.5 1.5 3.4 2.5 1.3 1.4 1.5 3.8 1.8 5.6.6 3.8 2.4 8 2.4 11.8 0 1-2.2.6-.8 2.5 1.3 1.8 2.5 3.9 2.9 6.1 1.5 7.6-.7 7.6.4 11.5.5 1.9.6 3.2-.1 5-.8 2-.1 4 .4 6 .7 3.1-.7 3.1-2.9 4.8-2.5 1.9 1.7 5.6 2.7 7.2 2 3.1.8 6.8 3.5 9.7 1 1.1 2.2-.2 3.3-.1 1.4.1 2.9 1.2 4.2 1.6 3 1.1 4 3.6 5.1 6.4.5 1.3 1.1 1.5-.4 2.3-15.2 9.7-30.5 19.4-43.5 32-.7 1.1-3.2 3.8-5 4.8-1.4.8-3.5.9-5.1 1.2-2.1.4-4.3.9-6.4 1.3-1.1.2-10.4 3.4-10 .1.1-1.2 1-1.6.9-2.9 0-.5.1-3.1-.4-3.4-1.6-.8-3.5-1.1-5.3-1.5-.9-.2-2-2.3-2.7-2.2-3.7.9-4.3-2.8-5-3.4-.8-.7-2.2-.7-2.9-1.3-.8-.6-.1-2.2-.6-3-.6-1.1-1.7-2-2.7-2.6-1.7-1-3.3-2.2-4.9-3.5l-11.7-9.3c-15.1-11.9-30.2-23.7-45.9-34.6-3.8-2.2-7.6-4.7-11.4-7.3">
                <title id="title4013">Algeria</title>
            </path>
        </g>
        <g id="niger">
            <path fill="#bbddac" stroke="#FFF" stroke-width=".797" stroke-miterlimit="3.974" d="M237.5 215c-1.1-1.3.2-3.8.1-5.3 1.4.5 3 .3 4.5.4 1.7 0 2.1-.8 3.1-2 1.2-1.4 2.6-1 4.3-1.2 2.2-.2 4.4-.4 6.6-.4 1 0 2.1 0 3.1.1 2 .2.1-.6 1.1-.9 1.5-.4 3.5 1.7 4.2-.1.6-1.5 2.4-1.7 3-3.1.6-1.4.6-2.9 1.4-4.3 1.6-2.9 1.3-6.1 1.4-9.4.2-4.7.2-9.4.1-14.1 0-2.9.2-3.7 3.1-4.4 2.6-.6 5.2-.7 7.8-1.4 3-.7 5-3.7 7.2-5.8 3.1-3 6.1-6.3 9.5-9 7-5.4 14.8-10.4 22.2-15.1 3.5-2.2 6.9-4.7 10.4-7 3.3-2.1 7.7.1 11.2 1 3.1.8 5.5 2.8 7.6 5.2.9 1 1.2 1.1 2.3.3 1.6-1.1 3.2-1.9 4.9-2.9.8 4.1 1.4 8.1 1.7 12.2.1 1.6 1.1 2.8 1.9 4.1.5.8.9 1.6 1.3 2.4.3.8-.6 1.4.1 2.2.9 1 2.4 1.9 2.7 3.2.5 1.7-1.4 3.4-1.6 5.1-.5 5-1.3 10-1.3 15 0 2.2-.2 4.3-.3 6.5-.1 1.7.2 3.9-.4 5.5-.5 1.4-1.9 2.7-2.9 3.8-1.5 1.9-3.1 3.7-4.7 5.6-2.5 3.1-4.6 6.6-6 10.4-.3.9-.7 1.8-1.4 2.5-.3.4-.9.3-1.1.7-.7 1.4 1 5.2 1.2 6.7-.7 0-1.7-.2-2.3.2-.7.5-.6 1-1.4 1.3-1.8.8-3.1 1.5-4.4 2.9-2.1 2.2-3.3 1.2-5.9.2-3-1.2-5.6-1.4-8.8-1.4-2.7-.1-5 .4-7.1 2.3-.7.6-1.2 1.4-1.7 2.1-.9 1.3-1.5.5-2.8.6-3.1.3-4.5-1.3-7.1-2.3-1.9-.8-4.1-3.4-6.4-2.2-.9.5-1.5 1.2-2.4 1.7-.7.4-1.7-.2-2 .4-1.2 2.6-3.3-.6-3.8-1.7-1.2-2.5-2.9-3.5-5.5-4-1.5-.3-2.6-1.5-4.1-1.6-1.3-.1-1.9 1.3-3.3 1.2-2.6-.1-4.9-.3-6.8 1.9-.6.7-1.3 1-1.3 2-.1 1.6-.2 2.9-1.1 4.3-1.3 1.8-2.8 3-2.8 5.4 0 .5-.3 5.6-.6 5.4-1.5-.9-4.8-6.6-6.4-6.4-.5.1-.7.7-1.2.8-.6.2-1.9.1-2.3.7-.2.3.7 2.9.1 2.9-.5 0-1.8-2.3-2-2.7-.8-1.4-.2-1.7 1-2.1-.4-.8-.4-1.8-1.2-2.4-1.3-1-2.1 1.1-3.4.8-2.5-.4-6.6-4.4-5.4-7 .7.5 1.4.5 2.2.2-.4-.3-5.2-3.7-5.4-3.4.4-.7-1.4-2.1-1.7-2.9 0-1.4.3-2.7-1-3.7"><title>Niger</title></path>
        </g>
        <path id="zambia_1_" fill="#bbddac" stroke="#FFF" stroke-width=".797" stroke-miterlimit="3.974" d="M413.8 498.5c0-8.8 0-17.6.1-26.3 0-.9-.3-2.9 1-3.2 1.1-.2 2.6.1 3.7.1 3.9.1 8 .8 11.8-.5-1.2-1.4-.6-2.6 0-4 .7-1.8-.2-3.2-.1-4.9.2-3.3 1.6-7 .2-10.3 1.2 0 1.1 1.4 2.4 1.6 1.4.3.8 2.4.2 3.2 1.7.4 1.5.3 3.2-.4 1.6-.7 3.5-1.1 5.2-1.2-.6 1.2-.3 3.5.7 4.5.8.8 2 .3 3 .7 1.4.6 2.4 1.2 4 1.3 2.6 0 4.9 1.7 5.8-1.5 1-3.5 2 .4 3.3 1.5.8.7.7 1.9 1.3 2.8 1 1.4 2 .1 2.9.6 1.3.8 1.8 1.6 3.2 1.6 1.6 0 1.3 2.6 2.3 3.7 1.6 1.5 1.9 2.7 2.8 4.6 1.1 2.4 4.5-2.2 5.8-.7-.6.4-.6 1.2.1 1.5 1.2.5.8-2 .8-2.5.1-3.1.2-6.2.2-9.3-.6.2-1.2.3-1.7.4-1 .3-.7 1.1-1.1 1.8-.7 1.2-4-1.5-4.7-2.3-2.3-2.3-4.8-4.3-3.5-8.2.7-2.1 1.3-3.9 1.9-5.6.4-1.2-.4-3.3-.3-4.7.2-2.3 1.3-7.1-1.7-8 1-2.6 6.4-4 4.4-7.5 4.5-1 8.5-1.2 13.6-2.4 0 .9-1.1 2-1 2.2.1.5 1.5-.2.8 1 .2.3.7-1.3 2.6.6 2 2 2.7.7 2.5-.3 2.2 0 2.8.8 3.7 2.4.4.7.8.4 1.4.2.8-.3 1.1 1 1.7 1.3 1.3.5 3.7.4 4.1 1.9.1.5 1 .3 1.5.5.9.3 1.7.6 2 .9s.3.8.2 1.3c-.4 1.3 2.5.8 3.1 2.7.2.6-.3 1-.2 1.6.2.9.9 1.3 1.5 1.8s.8 2.2 1 2.9c.4 1.3-1.1 2.5-2.3 2.9-1.4.4-.6 1.5-.2 2.5.5 1.6-.4 2.5-.5 4.1-.1 2.2-1.1 7.1 1.7 7.9-1.1 1.2-4.7 1.8-4.6 3.9 0 1.4.4 1.9.1 3.4-.4 2.2-1.8 3.5-2.4 5.1-.3.9.7 1.6 1.4 2.1 1 .7 1.5.2 1.8.9-7.6 3.6-15.8 5.7-23.6 8.9-1 .7 1.7 4.2 1.2 6-.7.1-2.8.4-3.5.1-1.4-.6-3.1.3-4.4.8-1.9.6-4.3 1.8-4.8 4-.2.9.1 2-.4 2.9-.6 1.3-2.3 1.4-3.4 1.9-2 .8-4.7 2.4-5.8 4.3-1.1 1.9-5.5 10.3-8.9 8.3-.7-.4-1.5-.8-2.3-1.1-1.2-.4-2.3 1.2-3.3.7-.7-.4-1-1.8-1.9-1.5-.2 0-2.6.6-3.7-.5-1.3-1.3-1.9-2.1-3-2.4-1.1-.2-1.9.9-3.9-.3-1.6-.3-2.8.6-4.4.7-.8.1-2.4.7-2.9.5-2.8-1.1-4.6-4.3-6.6-6.4-1.1-1.2-1.9-2.2-3.1-3.3-1.3-1.2-1.6-2.3-2-3.8"><title>Zambia</title></path>
        <g id="ethiopia">
            <path fill="#bbddac" stroke="#FFF" stroke-width=".797" stroke-miterlimit="3.974" d="M504.4 275.6c.2-1.2 1.3-1.9 1.3-3.2 0-2.2 1.5-2.4 3.4-2.1 1.6.3 3 .8 4.2-1 .8-1.2.3-3.4.1-4.8-.3-2.3-.6-4.7.2-6.9.3-.9.8-1.7 1.1-2.5.5-1.3 0-2.1-.1-3.4 0-1.3.7-2.5 1.5-3.5.9-1.1 2.3.2 2.3 1.4.5-.6 2.7-3.9 1.6-4.9-.6-.6.4-2 .6-2.6.4-1.2-.4-2.6.6-3.6 1.7-1.5 2.3-3.5 3.4-5.6.4-.9.7-1.8 1.8-1.8.4 0 2.5.2 2.7-.3.6-1.6.4-3.6.7-5.3.1-1 .5-1.7.9-2.6.7-1.6.5-3 .9-4.7.6-3.1 1.9-2 4.3-2 .9 0 1.1-1.9 2.4-1.1 1 .6 1.5 1.9 2.2 2.8 1-2.4 1.9-4.8 2.5-7.2.4.6.8 1.3 1.4 1.6.7.4 1.4.1 1.8.9.8 1.6 1.8 1.8 3.4 1.5.6-.1 1.3-.3 1.7-.7.3-.3.5-1.2.8-1.3.6-.2 1.5 1.8 1.6 2.2 1.6-2 4.2.3 5.9-.1 2.2-.6 4.5 1.8 6.4 2.6 2.5 1.1 3.3 4.4 5.3 6 1.2 1 2.9 1.8 3.6 3.3.7 1.3 1 2.5 2.3 3.4 2.1 1.6 3 2.9 1.6 5.3-1.6 2.9-3.9 4.5-3.4 8.1.3 1.8-.4 3.9 2.1 3.7 1.5-.1 2.9-.8 4.3-1.2 1.2-.3 1.6.7 2.7.4-.1 1.8-2.2 3.4-1.2 5.5 1.2 2.6 2.3 3.2 3.9 5.5.5.8 1.5 3.3 2.1 4 .6.7 1.1.5 1.8 1 1.1.9 2.7 2.7 4.1 3.2 5.5 2 10.4 4 15.8 6 2.6 1 4.7 2.1 7.3 2.7 2.5.6 5.7.2 8.2.2l-22.9 27.2c-1.4 1.6-2.5 1.8-4.5 1.5-3.3-.4-7.8-.6-12.1 3.3-1.1 1-1.5 2.3-3.2 2.6-1.5.3-3.1.2-4.5 1-1.5.8-1.4 2.2-3.4 1.8-1.7-.4-4 1-5.5-.6-.6-.7-1.1-1.8-2.2-1.9-1-.1-2.3.6-3.2 1-1.4.6-3.6 1.8-4.5 3.1-.9 1.4-1.6 2.4-2.3 3.5-1-1-3.4-1.1-4.7-1-1 .1-1.8-.7-2.7-.9-1-.2-2 .2-3 .2-3.9-.4-.6-.9-11-7.1-1.8-1.1-4.3.1-6.5-.6-1-.4-2.5-2.3-3-3.2-.6-1.3.4-2.9 0-4.3-.4-1.3-2.9-2-3.8-.9-.5-.5-1.3-2-1.7-2.7-1-1.5-1.4-3.6-2-5.3-.5-1.3-.8-2.7-1.5-3.9-.3-.6-.7-.8-1.2-1-.6-.3-.6-.9-1.1-1.3-.3-.2-.4-.3-.7-.4-.8-.2-.9-1.1-1.4-1.8-1-1.4-1.7-3-3-4.1-1-.8-2.2-1.4-3.4-1.5-.9-.4-2.5-.4-3.1-1.6"><title>Ethiopia</title></path>
        </g>
        <path id="western_Sahara_1_" fill="#bbddac" stroke="#FFF" stroke-width=".797" stroke-miterlimit="3.974" d="M99.6 156.2c-1.3-2.2.6-6 1-8.3.3-1.6.7-3.1 1.5-4.5 1-1.7 2.9-1.7 3.5-3.8.3-1.1.3-2.7 1.4-3.4.6-.4.2-1.6.7-2.3.8-1.1 3.8-4.9 2.9-6.3-.6.4-1 .9-1.4 1.5 1.3-2.9 4.7-5.1 6.9-7.3 2.9-3 2.4-6.1 3.8-9.8 1.2-3 2.1-6.3 5-8 3.2-1.8 5-3.3 6.3-6.9.9-2.3 2.5-5.5 1.9-4.8L169 92l-.5 15.6-26.5.4-1.2 23.4c-1.6 1.1-3.8 1.3-5.5 2.3-2.5 1.5-3.5 3.2-3.3 6.1.1 1.7 1.4 10.6-.4 11.1H102c-2.3 0-2.6 3.7-2.4 5.3"><title>Western Sahara</title></path>
        <g id="chad">
            <path fill="#bbddac" stroke="#FFF" stroke-width=".797" stroke-miterlimit="3.974" d="M344.8 215.1c.3-.7 1-.6 1.4-1.1.3-.5.4-1.2.9-1.6.7-.5.8-2.3 1-3.1 1.5-4 4.9-7.6 7.6-10.8 2.5-2.9 5.3-5.4 5.5-9.3.2-4.9.3-9.9.7-14.8.3-3.8.1-8.8 2-12.2 1.1-1.9.4-2.9-.9-4.4l-1.2-1.2c-.7-.7.2-1.4-.1-2.2-.7-1.8-2.1-3.1-2.9-4.8-.7-1.4-.2-3.1-.4-4.7-.3-2.5-1-4.9-1.4-7.4 0-.3-.5-1.3-.1-1.5l8.8-4.2 63.8 36.1.7 35.3c-2.1-.7-2.3-.4-4.5 0-1.5.2-3.4 0-3.8 1.4-.3 1 .6 2.9-.1 3.9-.7.9-1.7 4-3.2 4.5-1.6.6-1 3.4.2 4.6-2.7 2.1-4.4 3.5-2.3 6.5 1.4 2-1.9 2.9-2.8 4.6-.6 1.2-.9 1.6.1 2.5.8.8 2.2-.1 3 0 1.1 0 2 .5 1.3 1.4-1 1.2 1 2.7.2 4.8.3-.1.6-.3.8-.4.6 1-.1 2.1-.1 3.2 0 1.2.2 1.2.9 2 .7.7 2.3.3 2.4 2.4 0 .9-.8 2.6-.6 3.6-.5-.8-2.7-1.5-3.7-1-.6.3-1.4.6-1.8 1.1-.5.7-.6.3-1.1.8-.8.9-2.9.7-3.2 2.2-.1.6.4 1.1.2 1.7-.7 2.1-2.5 3-4.1 4.3-1.2 1.1-1.8 2.7-2.9 3.9-1.9 2.1-3.3 2.6-6 3.6-1.5.6-5.4.8-7 .7-.6-.1-4 .7-2.7 1.7.5.4 1.9.7 1.6 1.6-.4 1.1-1.6 2.6-2.5 3.4-.7.6-1.2 2.1-2.1 2.3-1.6.4-3.5.1-5.1.2-2.2.2-3.8.7-5.6 1.9-1 .6-2.9 1.2-3.4 2.4-.7-1-1.7-1.8-2.1-3.1-.7.2-1 1.1-1.3 1.7-.2.4-1.5.5-2 .7-2.2 1-3 .8-5.3.8 1.2-1.6-.1-2.1-.6-3.6-.6-2-1.1-4.2-2.4-5.9-1.1-1.4-2.7-2.4-4-3.5-1.4-1.1-2.1-2.5-3.3-3.8-.8-.9-2.7-2.6-1.8-3.9.9-1.3 1.4-2.3 3.1-2.2 1.9.1 3.8.9 5.7.2.8-.3 1.6.1 2.3.4.7.3 1.7-.4 2.3-.6-3.8-2.1-5.6-7.3-5.4-11.4 0-1 .5-1.7.6-2.6.1-.9-.1-1.9-.2-2.8 0-.7.1-1.9-.3-2.5-.3-.5-1.2-.1-1.2-1 .1-1.1-.4-2.6-.6-3.7-.2-.8-1.3-.9-1.8-1.2-1.8-1.1.5-2.8-3-3.3-.8-.1-.6.5-1.5-.2-1.3-1.5-2.9-4.4-3.4-5.2-1-2.3-.8-4.9-1.3-7.2"><title>Chad</title></path>
        </g>
        <path id="guinea_1_" fill="#bbddac" stroke="#FFF" stroke-width=".797" stroke-miterlimit="3.974" d="M113.2 247c1.1-1.3 1-3.5 2.3-4.6.9-.8 2.7-.9 3.8-1.5 1.1-.6 2.2.1 3.3-.5.7-.4 1.4-1.1 1.3-2-.2-1.3-2.5-1.8-2.1-2.8.3-.9 2.2-.6 2.4-1.6.3-1-.5-2.5-.2-2.8h3.9c.6.1 1.2.6 1.6.6.3.1-.4 1.8.8 1.1.8-.5 2.5.6 2.9 1 .1 0 1.8.6 1.7.6 1.1-.1 1.9-1 3.2-.8 1.8.2 3.6-.6 4.8 0-.6 1.2-1.5 2.2.1 3.6 1 .8 2.4-2.3 3.5-1.8 2.7 1 .9 4.2 3.3 1.6 3-3.4 4.8.5 6 .2.7-.2 1.1-.8 1.7-1.3.5-.4 1.7-.5 2-.9.5-.8-1.4-2.6 1.2-1.9.6.1 1.9.8 1.8 1.8 0 .4.4 2.1.7 2.4 1.2 1.2-.2 4.3 1.3 3.4.2 1.5 3.1 1.6 2.8 3.4-.7 0-1 0-1.4.5-.6.7-1 1.7-1.2 2.6.8-.1 1.3-.8 2.2-.9 1.5-.2 1 1.7 1 2.8 0 .8-.4 2.1 1.1 2.9.3.1 1.5.9 1.7 1.6.3.9-.7 1.4-1.4 1.9-.5.4-.5 1.9-.5 2.7 0 1.3.5 4.4 2.4 3.2-.4 2.1-.2 1.8 1 3.2-1.4.2-1.5 1.4-1.9 2.5 2.2.4 2 2.2 2.5 3.9-1.1-.4-4.4-1.7-4.9-.6-.5 1.4 1.6 2.9 2.3 3.9-.8-.4-1.4 1.1-1.4 1.2.2.9.5.6.3 1.1-.2.5-1.1 1.9-1.1 2-.2-.2-1.4-.8-2-.2-.3.3.1-.6-.9-1.1-1-.4-1.3 1.8-1.6 2.3-.7 1.4-1.2 1.7-2.8 2.4-.1-1.8-1.6-2.1-3-1.5.4-1.2.7-2.4.7-3.6 0-.5-.1-3.1-.3-2.8-.1.2-.3.7-.3-.9 0-.2-.6-1.1 0-1.8-2.5-2.8-2.7-1.3-3-1.5-.8.7-1.1.2-2.2.1-.8-.1-1.6.1-2.3.5-.4.2-2.1 1.2-2.3 1.5-.2-1.6 2-3.6 1.6-4-1.4-1.8.7-2.4-1.4-3.8-.6-.4.2-1.1-.1-1.7-2.3-4.1-3.1-7.4-8.2-6.6-1.4.2-1.7.6-2.9.9-2.1.5-2.8-.6-3.7 1.5-.7 1.7-1.3 3.6-2.4 4-.9.4-1 .8-1.4 1.7-.5 1.1-1.8.2-2.6.9-.1-.7.4-1.2 1.1-1.3-.2-.3-.4-.6-.6-.8-.2.2-.4.5-.5.8-.1-.5-.1-1-.1-1.5-.3 0-.6.1-.8.1.2-1-1.1-1.1-.5-2.1-1.4 1.4-.7-2.3-1.2-2.6.1.6-.3.8-.8.7.2-.5.4-1.1.5-1.7-.3 1.1-1.1.7-1.8.2-1-.7-.5-1.2-.8-2.2-.5.2-.9.5-1.1 1.1-.1-1.9-4.2-1.8-3.1-4.2-.4.1-.7.2-1.1.2.6-1.1 1-2.4 1.4-3.6-.5.5-.8 1-1.1 1.6-.1-1.3-.6-.6-1 0-.2-.8-.3-2.6.8-3-1.1.3-2 .3-3 .3"><title>Guinea</title></path>
        <g id="nigeria">
            <path id="nigeria_1_" fill="#bbddac" stroke="#FFF" stroke-width=".797" stroke-miterlimit="3.974" d="M257 275.5c1-3.3-.4-7.3 1-10.5.4-.8 1.7-.1 2.4-.8 1.1-1.3.1-2.8 1.2-4.1.7-.8.7-2.2 1.6-2.7.9-.6 2.4-1.7 1.9-3.1-.4-1-.8-1.9.6-2.2 2-.4.4-3.2.2-4-.2-.9.1-1.6-.4-2.4-.4-.7-1-1.3-1.4-2-.8-1.5.3-2.7.8-4.1.5-1.7.2-3.4.3-5.1.1-2.1.7-2.5 2.1-3.9 1.2-1.2 1.8-3.1 1.7-4.8 0-1.4 1-2.3 2-3.2 1.2-1 2.7-1.3 4.2-1.4 2-.1 3.1-.8 4.9-1.3 1.1-.3 2.5 1 3.4 1.4 1.5.8 3.1.3 4.5 1.6 1.2 1.1 1.7 2.5 2.5 3.9.3.5.7 1.1 1.3 1.3 1.3.4 1.5-1 2.5-1.1 3.4-.4 4.5-3.4 8-.9.5.3 1 .8 1.3 1.3.2.3 1.1.1 1.3.3 1.5.8 2.1 1.9 4 2 1.1 0 3.4.7 4.4.2 1.4-.6 1.8-2.4 3-3.3 2.8-2.1 7.1-2.3 10.5-2 1.8.2 3.4.6 4.9 1.5 1.3.7 3 1.7 4.5 1.1 1.5-.5 2.3-2.2 3.5-3.2.7-.5 1.3-1 2.2-1 1.3-.1.4-.3 1.1-.8 2.8-1.9 3.7.8 4.7 2.7.9 1.6 2.6 1.7 2.2 6.2 0 .5.7 2.5 1.2 2.8.5.4 1 0 1.6.3 3.5 1.3.3 4.7 1.4 6.3 1.3 2.1-3 3.7-4.5 3.5-2.4-.2-3.2 4.9-3.8 6.7-.3 1.1-.5 2.2-.9 3.2-.4 1.2-1.7 1-1.7 2.3 0 1.2.3 2.7-.7 3.8-.8.9-1.9 1.3-2.9 1.8 1.2.2 0 3.2-.1 3.9-.2 1.9-1.5 3-3.4 3.1.2 1-.6 1.2-1.1 1.9-.7.8-.1 2-.3 2.9-.4 2.2-1.5 4.5-2.9 6.3-1.2 1.6 1 2.5-1.7 4.3-1.2.8-.5 1.6-.9 2.6-.3.7-1.2 1.4-1.6 2.1-.4.6-1.5.3-2 .1-.6-.2-.5-2-.5-2.6 0-.6-2.2-1.2-2.5-1.9-.5-1.1-1-.8-1.3-2.1-.2.8-.3 2.2-1.3 2.5-1.3.3-1.9-1.1-2.9-.8-1.9.6-2.3 3.6-3.5 4.4-1.6 1.1-6.7 6.3-6 7 1.1 1.1-.9 4-.9 4.8 0 1.4-.5 2.5-2.2 5.1-.7-.2-1.3-1.1-1-1.7-.7.5-1.2-.2-1.5-.8.7 2.5 1.3 3.1-1.6 3.5-1.2.2-5 .9-3.9-1.5-.5 1-.5 1.2-1.7 1.2-1.3-.1-1.1-.4-2.3-1.2.6.4 1.3 2.6-.1 2.1-.9-.4.4-2.6-1.2-1.8.5.9.9 1.8.5 2.9-.8-.3-1.6-3.1-1.4-3.9-.9.8.6 3 .1 4-.6 1.5-.6-2-.6-2.3-.1.4-.4 2.8-.5.7 0 .6-.1 1.3-.5 1.8 0-.6-.2-1.1-.5-1.5.3.7.3 1.7-.7 1.6-1.8-.2-1.3.3-1.8-1.5 0 1.6-1.3 3.1-1.5.7 0 1.5-.4.5-1.5 0s-1.9-1.6-2.4-2.7c-.5-1-1.2-2.1-.9-3.2.2-.8.3-1.5-.8-1.2-.2-.8-.1-1.3.7-1.5 1.7-.3.1-.9 1.3-1.7-.9.1-1.7 1.3-2.5 1.1-2.8-.6 1-1.6 1.7-1.7-.4-.5-1-.6-1.5-.2 0-.3 0-.7.1-1-.2 1-1.4 1.7-1.9.5-.4-1.1.9-1.6 1.5-2.2-.7.3-1.3.8-1.9 1.3-1.1-2.4-3.4-5.1-6-5.7-1.3-.3-2.8-.5-4.1-.4-1 .1-2.5.5-3.4-.2 1.1.2 2.8-.5 3.4-1.5-1.1-.1-2 1.3-3.1.4-.4.5-.5 1-.3 1.6-1.8.2-3.7-.1-5.6.3-.1-1.2.6-2.2.6-3.3 0-1.2-.5-2-.2-3.3.6-2 .7-5.8-.5-7.6"><title>Nigeria</title></path>
        </g>
        <path id="tunisia_1_" fill="#bbddac" stroke="#FFF" stroke-width=".797" stroke-miterlimit="3.974" d="M297.5 33.1c.2-.9 1-1.3 1.7-1.8 1-.8 1.1-1.5 2.2-2.3.9-.7 1.6-2 1.9-3.1.7-2.3.5-4.1.6-6.3.1-1.4-.8-2.6-.6-4 .2-1.6 2-4.6-.6-5.1.9-1 2.4-1.6 3.1-2.8.3-.5.1-1.2.7-1.4.7-.2 1.1 0 1.7-.6 1.2-1.3 2.4-1.8 4.1-2.3.8-.2 1.9-.8 2.7-.5 1 .4 0 .9.1 1.6.8 0 1-.4.5-1.1 1.5.3 1.9.1 2.5 1.5.3.6-.6.7.2 1.2.6.4.7 1.2.1 1.7 0 0 .7.7 1.4.4.9-.4 1.7-1.1 2.4-1.7.3-.2 1.3-1.3 1.7-1.1 1.1.5 1 1.6.5 2.5-1 1.7-4.2 3.4-4.4 5.4-.1 1.5.8 3.3 2.1 4 2 1.1 2 1.1 2.4 3.5.6 2.9-1.4 6-3.7 7.8-2.2 1.8-5.7 2.8-3.4 6.2.5.8 1.1 1.5 2 1.8.9.4 1.3-.2 2.2 0 .3 0 .5 1.4.6 1.7.4.7 1.6-1.4 2.2-1.1.9.3.3 1 .5 1.6.4.8 1.6 1.6.3 1.7.7.7 2.2-.1 2.8.8.5.7-.4 3.5-.2 4.5.3 1.6 1.4 2.2-.3 3.2s-5.1 2.1-6.1 3.5c-.6.5-.4 1.8-1.2 2.1-1.7.7-3.3 1.3-2.6 3.8.5 2.1 1.3 3.7.1 5.7-1.4 2.4-2.6 3.3-5.1 4.4-.6-3.9-1.7-7.6-2.5-11.4-.8-4-1.2-6.3-4.5-8.1-1.6-.9-2.3-1.9-2.7-3.7-.3-1.5-1-2.6-2.4-3.4-.7-.4-1.4-.7-1.8-1.5-.5-.7-.3-1.8-.8-2.5-.5-1.5-1-3.2-.4-4.8">
            <title id="title4015">Tunisia</title>
        </path>
        <path id="tunisia_Island_1_" fill="#bbddac" stroke="#FFF" stroke-width=".478" stroke-miterlimit="3.974" d="M323.5 37c-.1-1-.8-.2-1.1-.7-.6-1.2 0-1.6 1-1.6 2.3 0 .9 1.4.1 2.3"><title>Tunisia Island</title></path>
        <g id="namibia">
            <path fill="#bbddac" stroke="#FFF" stroke-width=".797" stroke-miterlimit="3.974" d="M330.9 508.5c1.1-.2 2-1.2 3.2-1 1 .2 2 1 3.1.8 2.3-.4 3.8-3.1 6.4-2.4 2.1.6 3.2 2.9 5.2 3.6 1.2.4 4.8.2 6.7.3 8.8.1 17.6.3 26.4-.1 2.3-.1 3.1-.3 4.2 1.8 1.4 2.6 3.5 2 6 2.3 3.3.4 6.8.2 9.9 1.3 1.2.4 2.3.6 3.3-.1.9-.6 1.8-.4 3.1 0 1.4.3 2.2.1 3.1-.1 5.5-1.3 11.7-2.6 17.5-3.7 1.1-.2 2.3-.7 3.4-.6.7.1 1.7.8 2.4.4 2.2-1.1 3.2 1.2 4.6 2.2-1.1-.3-2.3.3-3.3.7-1.2.5-1.6 2.3-2.8 1.2-1.9-1.8-5.7 4-7.1 4.7-.7-1.3-1.4-4.3-3.4-4.5-2.5-.2-5.7 1-8.1 1.6-2.9.6-6.3.7-9.2 1.3l-1.1 34.2-7.3-.1-1.6 58.2c.2 2.7-2.1 1.5-3.4 2.7-.6.6-.6 1.2-1.8 1.6-.9.3-1.3.7-.6 1.4-1.9.6-1.8-.2-3.6-.4-1.9-.3-3.5.7-5.7.3-3.5-.8-5.6-2.1-5.8-2.7-.4-1.8 0-1.1 0-2.5-.1-.6-.7-.4-1.1-.9-.6-.6-1.1-2-1.8-1.6-2 1.3-1.5 3.2-2.2 3.8-1 .8-2.3 1.8-3.3.5-1.4-1.8-3.3-3.2-4.5-5-1.1-1.7-2-3.5-2.9-5.2-.5-.9-.5-2-.7-3-.2-1.1-.9-1.6-1.1-2.6-.4-1.8.4-2.4-.9-4-.5-.6-.3-1.1-.3-1.9 0-1.3-.4-2.5-.6-3.8-.1-.9 0-1.9-.3-2.8-.4-1.3.3-2.5 0-3.8-.4-2.2-1.5-4.2-2.3-6.3-.9-2.4-.2-4.4-.5-6.8-.2-1.6-.4-3.7-.3-4.5.1-.4 1.1-4.3.6-4.2-.1-2.1-1.2-4.2-2.4-5.9-.7-1-1.5-1.9-2-2.9-.5-.9-.6-2.1-1.3-3-3.2-4-3.8-8.8-6.2-13.1-2.1-4-2.9-9.4-6.3-12.5-3.2-3.3-3.6-8.2-3.3-12.9"><title>Namibia</title></path>
        </g>
        <g id="south-africa">
            <path fill="#bbddac" stroke="#FFF" stroke-width=".797" stroke-miterlimit="3.974" d="M368 613.4c.8-.8 2-.6 2.2-1.8.1-1 .8-2.8 1.9-3.1 1.4-.5 1.2 1.5 2.2 1.8 1.7.5 0 2.1.8 3.1 1.4 1.8 3.6 1.9 5.7 2.6 1.9.6 3.4-.2 5.3-.2 1.7 0 2.3 1 4 .5-1-1.2.2-1.4.9-1.6 1-.4 1-1.6 2.2-2 .8-.2 2.4-.3 2.5-1.4l.7-33.3c.9 1.3 2.5 1.9 3.3 3.2 1 1.5 1.6 3.6 2.2 5.3.6 1.7 1.2 3.6.4 5.3-1.1 2.3-1.8 3.5-.8 6 1.8-2.1 6.4 1.1 8.4-.8.3-.3.1-1.1.6-1.3.5-.2 1 0 1.5-.3 1.4-.8 1.7-2.6 3.1-3.5 1.6-.9 2.6-2 3-3.9.3-1.6.3-3 1.6-4.2 1.2-1.1 2.7-1.3 4.1-.6 1.2.5 2.9 3.1 4 3 2.5-.1 5.5 3 7.9 1.1 1.1-.8 2.7.3 4-.7 1.4-1.1 2-2.8 2.6-4.5.3-.9.6-1.7.8-2.6.2-1.5-.5-1.4 1-1.8.9-.2 3.4-.7 3.9-1.5.8-1.5 2.5-2.1 3.2-3.6.8-1.7.4-3.4 1.6-5 1-1.3 2.1-1.5 3.3-2.4 1.3-.9 3-2.3 3.9-3.5.8-1.1 1.4-2.7 2.7-3.3 1.3-.6 2.8-.7 4.1-1.2 1.3-.5 1.2-1 1.9-2 .5-.8 2-1.1 2.8-1.3 3.6-.7 5.8 1.6 9.2 1.6 3.1 0 5.9-1.2 6.9 2.6.6 2.1 1.1 4.3 1.1 6.5.1 2 1.3 3.7 2 5.5 1.6 3.9 1.2 7.5 1 11.6-.1 1.6 0 3.5-.6 5.1-.3.8-.4.8-.1 3.1.1.1-.9-1.2-2-1.5-1-.3-1.9-.2-2.7-.2-.7 1.3-1.7 1.1-2.5 2.7-.9 2-1.8 5.2-2.1 4.9 1.5 1.4 2 2.5 3 3.5 1.5 1.7 3.7 2.7 5.4 1 .5-.5-.2-.7 1.4-3h1.4l4.9.2c-.9 4.1-2.1 7.6-3.2 11.7-.6 2.1-1.7 6.3-4.5 6.1.5 1-.9 1-1.5 1.1-.8.2-1.4 1.1-1.9 1.7-1.7 1.9-3.5 4.2-4.3 6.6-.4 1.4-1.7 2.2-2.3 3.5-1.1 1.9-2.2 3.8-3.4 5.5-2.2 3.2-4.6 5.4-7.6 7.8-2.5 2.1-4 5-6.4 7.1-3.2 2.6-6.3 5.3-9.5 7.8-2.6 1.9-5.5 4.3-8.8 4.7-1.6.2-3.2-.7-4.7-.2-1.1.3-2.7 1.7-1.2 2.7-1.9.8-3.9-1.5-5.7-.3-2 1.4-2.5 2.2-5.3 1.2-2.1-.8-4.8-1.6-7-.8-1 .4-.5 1-2 .5-.9-.3-2.4.2-2.9-.8v.4c-2.3-.4-5.9.7-7 2.8-1 1.8-6.1-.1-7.7.6-1 .4-2 .1-2.9.6-1.1.5-2.3 1.6-3.3 2.3-1.2.9-.7.8-2.1.4-.6-.2-1.3.2-1.8-.3-.6-.5-1.2-1.1-2-1.4 1.4-1.9-2.9-2-3.9-2.2.6-1.5 0-2.8-1.8-2.5-1.2.2-.8 1.7-.7 2.5-2.2-.9-.5-3.5-.2-4.8.2-1.2-.4-2.4-1-3.3-.3-.5-3.1-4.3-1.3-2.6-.8-.8-.4-1.6-1.6-1.6-1 0 .1-2.4.2-2.8 2.5 1.5 3.1-1.4 3.2-3.3.1-3.3-.8-6.1-2.5-8.9-2.5-4.2-4.8-8.3-6.2-13.1-.7-2.2-1.1-4.5-1.9-6.6-1-1.9-2.9-3.8-3.1-6.2"><title>South Africa</title></path>
        </g>
        <g id="egypt">
            <path fill="#bbddac" stroke="#FFF" stroke-width=".797" stroke-miterlimit="3.974" d="M432.9 70.7c-1.5-2.4 1.6-5 1.2-7.5-.4-2.7-2.9-4.6 1-7.8.1 2 2.4 1.3 3.6.9 2.2-.6 3.9.1 6.1.3 2.4.2 4.6.8 6.9 1.4 1 .3 1.1 1.3 2.1 1.6.9.3 1.5.2 2.4.1.6-.1.8.8 1.5 1 .7.1 1.4.2 2.2.2 2.3.2 3.9 1.7 6 2 2.1.4 4.1-1.1 5.6-2.3.8-.7 1.5-1.4 2.2-2.1.6.5 1.1 1 1.9.8-.4-.2-.3-.3-.9-.3.8-.4 1.5-1.1 1.7-2 1.3.8 2.5-.6 3.9-.6-.9.4-1.7.9-2.4 1.6.2-.1 5.5-1.7 3-1.9 1.9-.6 3.1 1.5 4.9 1.3.9-.1 1.7-1 2.6-.7.8.3 1.3 1.5 2 2-.8-.5-1.5-1.7-2.5-1.8.3.8-.8 2.3.5 2.6 1.4.3.8.7 1.7 1.5 0-.3 2.5-1.4.7-2.2 1.9.5 2.6 2.2 4.9 2 .7-.1 2.9-1.4 2.5.2 1.4-.9 3-.4 4.5-.8 1.3-.4 2.7-.9 3.7-1.9l6.5 17.2c-1.6 2.1-1.3 6-2.3 8.4-.6 1.4-.6 2.4-.6 3.9 0 1.3-1.7 2.6-1.2 3.9-.8-.7-1.9-1.1-2.7-1.7-1.1-.8-1.9-1.9-2.7-3-1-1.4-3.8-2.3-3.4-4.4.4-2.1-1.6-3.6-2.7-5.1-1.4-2.1-2.5-4.4-3-6.9-1 1-2 3.3-1 4.5 1.7 2 1.5 4.5 3 6.6 1.3 1.8 2.5 4 4.1 5.6.7.7 1.5 1.3 2.1 2 .3.4 1.7 2.6.1 1.4 1.3 1 .2 2.4 1.1 3.2 1.1 1.1 1.7 2.4 2.3 3.8.3.7.8 1.3 1.2 2 .3.5-.3 1.1-.3 1.6 0 .6 1 1.6 1.3 2.1.7 1.3 1.4 2.5 2 3.7 2.2 4.1 4.3 8.2 6.4 12.4.8 1.6 2 2.8 3 4.3.9 1.4 2.6 1.8 3.4 3.2-.8 0-1.6-.1-2.4-.5-.5 2.2-.3 5.7.9 7 1.1 1.3-1.4 3.8-3 3.9-.8 0-1-.5-1.8.3-.6.7-.9 1.8-1.2 2.7-.3 1-.8 1.9-1.9 2.1-.9.2-2.5 0-3 1-.9 1.9-.3 4-3 3.8-3.1-.2-4.6-2.7-6.2-2.7-5.3.2-8.4.7-12.5 0 .1-.4.6-1.3.3-1.7-.8-1.1-1.3.9-1.6 1.2-1 1.4-6 .6-7.6.6l-42.9-.1-1.5-58c-.2-2.7-.1-5.6-.5-8.2-.6-2.2-1.2-5.6-2.2-7.7">
                <title id="title4019">Egypt</title>
            </path>
        </g>
        <path id="tanzania_Island_2_1_" fill="#bbddac" stroke="#FFF" stroke-width=".478" stroke-miterlimit="3.974" d="M555.3 404.4c.3 1.9.6 2.6 2.1 3.9 1.1.9 1.4-3.7-.3-2.3.3-1.2-.1-3.1-.7-4.2-.3.9-1.4 1.7-1.1 2.6" />
        <path id="tanzania_Island_3_1_" fill="#bbddac" stroke="#FFF" stroke-width=".478" stroke-miterlimit="3.974" d="M558.7 422.7c.8-.7 2.2-1.2 1.7-2.6-.5 1.1-1.9 1.2-1.7 2.6" />
        <path id="tanzania_Island_1_1_" fill="#bbddac" stroke="#FFF" stroke-width=".478" stroke-miterlimit="3.974" d="M559.3 394.9c.1 1 1 1.8-.2 1.9.3.2.5.3.8.5-1.6.9-.2 2.3.5.8.8-1.7.6-3.4-1-4.1-.1.4-.1.7-.1.9" />
        <g id="tanzania">
            <path fill="#bbddac" stroke="#FFF" stroke-width=".797" stroke-miterlimit="3.974" d="M478.2 398.7c.6-4.5.8-1.4-1.1-5.4-.4-.8.5-2.2.1-3.5 1.9-.2 2.2-.4 3.4-1.7 1-1.1 2.6-2.6 3.5-3.8.7-.9-.8-1.7-.5-2.4.4-.8 1.9-.1 1.6-1.1-.2-.6 1.3-1.5 1.7-1.8.9-.9-.4-1.9.4-2.8-2.5.7-4-.8-2.6-3-1.3.1-.4-.9.1-1.6.6-1 1.8-.6 2.4-1.6 1-1.9-.5-5.3-1.4-7.1-.6-1.3-2.7-4.2-.7-4.8 2.4-.8 7.8-.2 10.4-.1 1.1 4.1-.8 4.1-.7 4.6.5 1.6-.9 3.6-.9 3.9.8 1.1-.1 2.2.1 2.8.6 2 1.1.4 1.3 5.2.1-1 .9-1.6 1.5-.5-.2-2 0-2.2 1.2-2-.9-.5-.3-1.6 1.1-2.4.3.3 1.7 3.3 3.2 1.4-.2.5.9.6 1.1 1.2.4 1.2.4 3.4-.7 2.9l.6.8c.5-.6-.4-.8 1.7-1-1.3.2-3.1-6.8 3.4-2.8.3-1.7 4.7-3.7 3.3-3.8-1.6-.2-1.4.5-2.3.4-2.7-.4-2.6-.9-2.7-.8.6-.7 0-.7 2.8-.9-.2-1-2.8-.5-2.2-.6.3-.2-.9-.7 2.2-1.1.3 0 .8-.6.7-1.2-.1-.4.4-.1.5-.3-1.2-1.3-.4-1.4-.1-1.6.3-.2.6.2 2 .4-.3 0-1-1.2-.4-1.8.4-.5 0 .5.4.1-.4-.3-.3-1 0-1.4.3-.4.8-.8 1.1-1.3l24.5 15.3c2.1 1.3 4.7 2.3 5.3 4.8.3 1.1-.6 1-.8 2-.2.7 1 1.5 1.4 2 1.3 2 4 3.3 5.7 4.9 1 .9 6 4.1 5.8 5.5-.3 2.2-1.1 4.7-2 6.7-.5 1-1 2.1-1.3 3.1-.2.5-.3 1-.3 1.6 0 .7.6 1.4.5 2.1-.5 2.8 4 3 3.4 5.9 2.4-.8 2.1 2.1 1.2 3.3-1.4 1.8-.6 4-1.6 5.8 1.7-1.5 1.6 1.6 1.2 2.5-.6 1.2-1 2.6-.9 4 .2 1.2 2 3.3.6 3.6 1 .2.4 2.1 1.2 2 1.3-.1.6 1.3.4 1.9-.5 1.2.8 1.6 1.1 2.7.1.6-.3.9 0 1.5.4.8.6 1.3-.2 1.9 1.4-.3 1.9.9 2.2 2-.1-1.9 4.6.8 3.1 3-3.2 2.5-6.1 4-9.1 5.8-1.1.4-1.2-.3-2.3.1-1.2.4-2.9 1.8-4.1 2.2-1.2.4-2.6-1.9-3.9-1.2-1.5.8-2.2 3.1-3.8 3.8-2.7 1.2-3.2.3-4.1-.5-1.7-1.4-2.3 1.2-4.1 1-2.1-.2-2.8 0-4-1.4-.9-1.1-1.9-1.7-3.3-.4-.9.9-4.2.7-5.8.4-.2-.1-.2-1-.4-1.3-.6-.9-1.2-1.7-1.7-2.7-.7-1.3-.2-2.8-.5-4.2-.4-1.9-.1-3.7-.5-5.5-.5-1.9-1.7-3.8-3.3-5-1.5-1.2-1.8 1.1-1.7 1.5-1.5-1.7-3-.1-4.4-1.7-.5-.5-2.2-.6-2.8-1-1.1-.7-2.1-1.2-3.8-1.4-.3 0-.5-.5-.6-.7-.5-.7-1-.5-1.7-.8-.6-.3-1.5-.2-2.1-.5-.6-.3-.7-1-1.3-1.3-.4-.2-.9.3-1.4.2-.8-.2-.9-1-1.3-1.6-.8-1.1-1.8-1.3-2.8-1.2-.5-1.1-3.2-6.5-4.4-9.8-1.1-3-.3-8.6-4.5-10.2-.6-.2-.1.5-.8.1-1.5-.7-3.1-2.5-.4-5.2 1.1-1.4-.7-3.4-1.1-5.1"><title>Tanzania</title></path>
        </g>
        <path id="equatorial_Guinea_1_" fill="#bbddac" stroke="#FFF" stroke-width=".797" stroke-miterlimit="3.974" d="M313.7 334c.3.1.6 0 .8-.2-1.7.8-.2-1.7.1-2.1.9-1.4.2-3.4.8-5 1.1 2.2 1.9 1.7 3.3 2l8.8-.1.1 10.7-9.6-.3c-.6.1-3.6 1-2.5-.4-1-.5-3.3.6-3.9-.7-.6-1.1 1.6-3 2.1-3.9"><title>Equatorial Guinea</title></path>
        <path id="lesotho_1_" fill="#bbddac" stroke="#FFF" stroke-width=".797" stroke-miterlimit="3.974" d="M450.5 623.3c1 1 .9 2.5 1.8 3.5.7.9.5 2.1 1.2 2.8.9.9 3.4 4.1 5 2.8.7-.6 1.3-2.5 1.8-3.3.8-1.3 2.1-1.1 3.4-1.4.9-.3 2.9-1 3.3-2 .5-1.3.6-2 1.5-3.1.3-.4 1.4-1.6 1.2-2.2-.6-1.9-1.4-2.1-2.7-3.4-1-1.1-2.1-2-3.1-3.1-.9-.9-2.3.5-3.1.9-.9.4-1.3.8-2.1 1.3-1 .5-2 .4-2.8 1.4-.9 1.1-1.3 2.5-2.1 3.6-.8 1.2-2 1.3-3.3 2.2"><title>Lesotho</title></path>
        <path id="burundi_1_" fill="#bbddac" stroke="#FFF" stroke-width=".797" stroke-miterlimit="3.974" d="M472.4 374.1c1-3.3 2.8.3 3 .3 3.6.4 4.3-.8 4.6-4.3 2 1.7 1.3-.8 5.8.8-.8.4-2.7 2.4-1.2 2.4-1.3 3.3 1.2 3.4 2.6 3-.8 1.3 1.1 1.8-.8 3.1-1.1.8-1.1.3-1.3 1.8-.1.4-1.4.2-1.6.6-.2.5.8 1.7.7 2-.1.2-.6 1.3-1.6 2-1.5 1.1-1.7 2.4-3.2 3.4-.8.5-1.6.6-2.2.6-.3-.9-1.9-4.5-2.3-5.6-.5-1.7.2-3.4-.9-4.8.1-.8.5-1.8-.1-2.7-.6-.9-1.3-1.7-1.5-2.6"><title>Burundi</title></path>
        <path id="djibouti_1_" fill="#bbddac" stroke="#FFF" stroke-width=".797" stroke-miterlimit="3.974" d="M575.6 246.5c0-2.5-1-5 .5-7.2 1.1-1.7 2.2-3.2 3.2-5 1.1-2.1 1.7-1 3.4-.5.8.2.8-1.1 1.1-1.5.5-.7 1.4-.9 2.1-1.3.7 1.6 3.7 4.5 2.3 6.3-.7.9-3.1 2-4.2 2.5-1.1.4-1.3 1.8-2.6 2 .9 1.1 3.4-.7 4.6-.2 2.2.9 0 3-.6 4.3-.9 1.9-2.3-.1-3.7.3-1.4.2-5.2 2-6.1.3"><title>Djibuti</title></path>
        <path id="congo_1_" fill="#bbddac" stroke="#FFF" stroke-width=".797" stroke-miterlimit="3.974" d="M326 385.1c.6-1.9 1-2.4 2.6-3.6 1.4-1 1.9 2.4 3.7 1.3.3-.2-.1-1.7.2-2.3.6-1.2-.7-1.5-1.4-2-.7-.4 1.2-4.5-1.7-3.7 1-1.4.7-3 .3-4.6 1.2.3 1.6.2 2.8.2.5 0 .7.8 1.2.6 1.4-.3 3.8 0 3.5-2.1-.2-1.4-.7-4.5 2-3 1 .5 2.8 3.5 2.1 4.6 1.3-.7 2.5.8 3.8.5 1.1-.3 2.2-2.1 2.5-3.1.3.6 1 4.1 1.7 4.1.6 0 2.1-1.6 2-2.2-.1-.7.1-3 .7-3.4.9-.5 1.8-2.2.6-3 1.6-.5.8-3.5.5-4.6-.5-1.7 1.2-3.5.4-5-.5-.9-1.7-1.1-2.6-1.1-.5-.4-.1-1.6-1.1-1.7-2.7-.3-.6-1.7-.9-3.3-.2-1.1.2-3.4 1.2-4.1 1.1-.8 2.1-.4 2.8-1.9.5-1.2-.3-2-.8-3.1-.8-1.8-1-3.5-3.4-3.2-2.1.3-3.9 1.4-5.9 1.8.6-1.5-.1-3.2-.2-4.7-.2-1.7.9-3.3 1-4.1 0-.7 8.2.2 9 .1 1.4-.1 1.9.2 3.2.3 1.1.1 1.3 1.6 2.8 1.2 2.9-.8 6 1.3 8 3.2.9-1.3 0-2.3.1-3.7 0-1.2 1.2-1.9 1.6-2.9.6-1.4 1.3-2.8 1.7-4.4.3-1.2-.2-2.3.1-3.5.2-.9.4-2.2 1.3-2.7 1.1-.6 2.6 0 3.8-.5 1.3-.6 2.4-1.5 3.8-.8 1.5.7 2.4 1.3 4.1 1 2-.3 4.7-1.1 4.4 1.8-.2 2.4-1.9 5.8-3.1 7.9-1.4 2.4-1.3 4-1.4 6.9 0 1.6-.3 3.2-.8 4.7-.5 1.6-.9 2.5-.9 4.3 0 1.2-.1 2.3-.2 3.5-.1 1.2-.4 2.6-.7 3.8-.7 2.9.7 4.8-1.8 7.4-2.2 2.4-4.4 3-5.9 5.7-.7 1.3-1.3 2.6-1.8 4-1 2.6-3.5 2.9-3.3 4.5.3 2.6 0 5.1 0 7.9 0 2.8-1.2 7-3.9 7.5-1 .2-2 1.2-2.3 2.2-.2.5-1.9 1.3-2.4 1.9-.9 1.1-1.6 2.4-2.7 3.5-1.4 1.4-2.7-.3-3.5.8 0-1-.9-2.8-.2-3.6.5-.7.8-1.2-.3-1.6-1.4-.4-3.3 2.5-4.5.9-.6.6-.5 1.4-.8 2.2-.4 1-1.7 1.3-2.4 2.1-.1-1.3-1.9-1.5-2.2-2.7-1 1.8-1.9-3.5-3.6-.9-.6.9-1.5.8-2.2 1.4-.7.6-1.9 2-2.6 2.8-1.7 1.9-2.2-1.6-2.5-2.6-.7-2.8-3.5-5.1-5.5-6.9"><title>Congo</title></path>
        <path id="rwanda_1_" fill="#bbddac" stroke="#FFF" stroke-width=".797" stroke-miterlimit="3.974" d="M471.2 371.7c-.6-1.2 2.4-3.2 2.3-4.7-.1-2.7 1.2-3.9 3.5-5.3.3-.2 1.7-1.1 2.1-.8.5.4.7 1.7 1.5.8.6-.7 2.7-3.7 3.8-3.3-.5 1.6.8 3.5 1.5 4.7.9 1.5 1.8 4 1.6 5.6-.3 2.1-1.5 2.4-3.3 1.7-2-.8-2.5 1.1-4.2-.5-.2 1.9-.1 4-2.4 4.4-1.2.2-2.3.4-2.8-.8-.6-1.3-2.3-1.2-2.4.4-.8-.5-1.1-1.2-1.2-2.2"><title>Rwanda</title></path>
        <path id="senegal_1_" fill="#bbddac" stroke="#FFF" stroke-width=".797" stroke-miterlimit="3.974" d="M95.2 212.1c-.5 0-.9.1-1.2.5-.1-1.3 2.3-1.7 3.1-2.5 1.7-1.7 3-3.9 4-6 .5-1 2.7-10.6 5.1-8.4 1.1 1 6.7 0 7.6-1.1 1.4-1.6 6.9.2 8 1.6 1.6 1.9 1.8 2.6 4.3 2.9 1.4.1 2.9 2.9 2.6 4.2-.1.6 1.9 1.7 2.2 2.4.4.8.7 1.8 1.3 2.5.6.7 1.9.8 2.3 1.6.6 1.2 2.5 1.9 2.6 3.4.1.6-1 1.4-.3 2.1.6.6 1.1.9 1.1 1.9.1 1 1 3.4.2 4.2-.8.2-.9.6-.2 1.2.2.5.4.9.8 1.2.7.4 0 1.2 1.1 1.5.6-2.2 2.3 1.6 2.6 2.2.5.9.7 1.6.4 2.6-.3 1.2.5 2.7.1 3.7-1.3-.6-2.8.3-4.2.1-1.5-.3-2.3.6-3.7.8-1.4.2-3.7-2.3-4.9-1.5-.9.6-.6-1.1-.8-1.2-1.3-.4-.8-.6-1.9-.6h-13.5c-1.8 0-2.5.1-3.8 1.2-1.2.9-2.8.8-4.5.8-1.5-.1-2.6.8-4 1.1-.7.1-1.5-.1-2.1.3-.1-.3-.9-1.1-.5-1.5 1-1.1 1.5-1.6 2.8-.8 1 .6 2.2-.3 3.2-.4.8 0 1.1.6 1.9.3.6-.2.9-.1 1.4.1 1 .3.9-2.2 2-2.5-1.7.1-.7 1.5-1.7 2.2-.9.6-3.2-.2-3.5-1.2-.6 2.6-5.8.7-4.6-.6-.5.7-.4 1.9-1.5 2.1-.2-.6 0-1.1.5-1.5-1.4.3-.6-1.8-.3-2.7.5-1.4 2-1.5 3.3-1.5h4.4c.8.5-.9-.3.5-1.2 1.3-.8 2.6-.3 3.8-.6 1.4-.4.6-2.3 2.5-1.2 2.5 1.6 5.1 3.2 8 2.3 1.1-.4 2.4-1.5.9-2.2-1.8-1-2.2.4-3.6.3-1.4-.1-1.1-2.2-2.7-1.5-.6.2-1.2-.6-1.4-1-.4-.9-1.7-.6-2.6-.1-1.1.7-1.4-.4-2 .2-.4.5-.3 1-.8 1.3h-8c.3-.7-.3-1.1-1.1-1.2.1-.6.5-.9 1.2-.6-.1-.7-.1-1.3.2-1.9-.5.9-1 1.5-2.1 1.7-.3-.9 2.2-3.1 3.1-3.2-.9-.4-3.5 1.9-3.5 2.8.1-3-1.4-7.6-4.1-8.6"><title>Senegal</title></path>
        <path id="togo_1_" fill="#bbddac" stroke="#FFF" stroke-width=".797" stroke-miterlimit="3.974" d="M234.1 245.5c1.6.4 3.2.6 4.7 1.2 1.2.5 3.1.2 4.1-.2-.6 1.8-2 4.8-.5 6.5.8 1 3.8 2.1 3.9 3.4.2 2-.3 4.3.8 6.1 1.1 2 1.7 3.4 1.6 5.8-.1 4.2 0 8.3.1 12.5 0 .7.2 3.1-.9 3.1.4 1.2.2 2.6.7 3.7.5.9 1.2 1.8 1.3 2.9-1.7.2-3.4.9-4.9 1.6 0-.8-2-1.8-2.5-2.3-1.1-1-2-1.7-2.7-3-1-1.8.9-3.5.9-5.3 0-1.2-1.4-1.3-1.1-2.5.3-1.4 1.1-2.2.9-3.7-.1-.8-.3-1.7 0-2.5.2-.5.9-1 .7-1.5-.5-1.6-2.1-2.3-2.6-3.7 1.8-.2.6-2.7 1.1-3.9.3-.6.4-1.7 0-2.3-.6-1.2-1.5.1-2.4 0 .5-.7 0-1.5 1.2-1.3-.2-1.3.7-3.5.2-4.5-.7-1.8.6-2-1.3-3.1-1-.6-2.4-2.5-2.2-3.6.1-.9 1-1.5.6-2.5-.5-.6-1.4-.6-1.7-.9"><title>Togo</title></path>
        <path id="gabon_1_" fill="#bbddac" stroke="#FFF" stroke-width=".797" stroke-miterlimit="3.974" d="M307.2 356.9c-.5-.7-.9-1.6-.5-2.4 0 .6.3 1.2.7 1.6.2-1.7 1.2-.3 1.2.7.2-2.1 2.3-3.4 2.6-5.4.2-1.4-.8-4.3.5-5.4.1.7.6 1.2.9 1.8.2-1.2 1.9-.5 2.5.5-.1-1 .9-1.3 1.7-1.3-2 0-3.5-.4-4.6-2.1-.4-.7-1.9-1.6-.3-1.9.7-.1 1.6.2 1.6 1 .6-1.3-.4-3 0-4.3.2-.7 1.1-.7 1.7-.4 1 .5 1.7-.1 2.8-.1l9.6.2v-10.6c.4-2.5 1.4-1.5 3.3-1.4 1.6.1 3.5.3 5.1.2 1.6-.1 3.2.4 4.2.4 2.5-.1 4.5-1.4 2.8 2.5-1.1 2.5.7 4.8-.2 7 1.8-.3 3.5-1.3 5.3-1.7 3.4-.7 3 1.3 4 3 1 1.6 1.8 4-1.5 4.7-1.8.4-1.9 3.5-1.7 4.9.1.7-1.3 2.5.2 2.6.8 0 1.6.6 1.5 1.2-.1.8 1.7.7 2.4 1.3 1.5 1.5-.3 3.4-.1 5 .2 1 1.4 4.1-.4 5 1.2.8.4 2.8-.7 3.2-.3.1-.7 2.7-.6 2.8.7.8-1.2 2.7-2 2.6-.9-.1-1.3-3.3-1.7-4.1-.3 1-1.5 3-2.6 3.2-1.2.1-2.5-1.3-3.6-.6.8-3-5-7.8-4.2-2.8.5 3-.7 3-3.4 3.3-.9.1-.6-.7-1.5-.6-1.1.1-1.4 0-2.5-.3.4 1.5.7 3.2-.3 4.6 1.1-.4 1.9.2 1.8 1.3 0 1-.2 1.8-.1 2.3.5.5 1.1.5 1.3.9.7 1-.1 1.2 0 2 .1.7.5 1.7-.7 1.8-1.3.1-1.4-1.1-2.3-1.7-1-.6-3.1 3-3.3 3.7-1.8-1.4-3.3-4.3-4.5-6.2-1.8-2.8-4.5-5-6.9-7.2 1.3-.8 1.7 2.2 2.9.7-.9.1-2.1-1-3.1-1.2-1.5-.4-2.6-3.9-3.6-5.1 1 .1 1.3 1.2 2.2 1.4-.8-1.3-1-1-2.2-1.7-.5-.3-.4-1.3-.5-1.7-.3-1.2-1.2-2.1-1.7-3.1.7.6 2.2 2 2 3.1.8-.3 1.6-.4 2.4-.4-.4-.3-.8-.8-1.1-1.2-.2.6-.6.9-1.2.6.1-.8.7-1.5.4-2.4-1.2 3.4-3.4-3.4-4-3.8"><title>Gabon</title></path>
        <g id="malawi">
            <path fill="#bbddac" stroke="#FFF" stroke-width=".797" stroke-miterlimit="3.974" d="M500.9 475.6c.3-.5 1.7-2.9 2.2-4.4.5-1.5.4-2 .1-4-.3-1.8 3.9-3 4.7-3.9-3-.9-1.8-5.9-1.8-8.1 0-1.8 1.2-2.6.2-4.4-1.2-2.1.6-1.7 1.7-2.5 1.3-1 1.7-3.1-.6-5.7-1.8-2.1.5-2.7-1.3-3.9-1.4-.9-2-.9-2.3-1.3-.2-.2.3-1.4-.2-2 .3.2 2 .9 2.9 1 1.1.1.8.9 1.7 1.1.9.1 2.8 0 3.3 1 0 1.4.1 3.1 1.8 5.1 1.5 1.9.1 2.2.3 3.7.2 1.3.7 7.2.7 7.9.1 2.7-3.5 5.5-2.5 7.1 3.6 6.3 2.5 6.2 2.3 7.4-.8 5.2 2.7 4.1 2.2 6.4-1.3 5.8 2.2 4.9 2 2.1l2.9 3.7c.7.3.3-4.8-1.7-6.3-1.8.3-1-1.4-1.2-1.9 1.4.7 1.5.8 3.2 3.3 1.1 1.6 2.1 3.4 3.5 5.1 1.6 1.9 1.7 3.7 1.1 6.1-.5 2.1.3 4.2-.1 6.4-.1.9-.4 2.1-1.2 2.7-.9.7-2.2.5-3.1 1.2-.8.7-.6 2.3-1.8 3.3.3.3 1.2 2.2 1.3 3.2 0 .4 0 1.7-.4 2.1-.4.4-1.9.3-1.7-.5.5-1.7 1.2-1.2-.5-2.9-1.2-1.1-4.5-4.4-4.6-5.7-.3-2.2-.9-1.7-.4-3.5.2-.8.7-2.5 1.3-3.3.9-1.2.8-1.5.9-3.1.2-1.8.2-4.2-1-5.9-.5-.7-1.9.3-3.2.4-1.1.1-2.6-.2-2.7.8-.6-.7-4.7-5.4-4.9-5.3-1.2.7-3.3-1.6-3.1-2.5z" ><title>Malawi</title></path>
        </g>
        <g id="morocco">
            <path fill="#bbddac" stroke="#FFF" stroke-width=".797" stroke-miterlimit="3.974" d="M133.4 92.3c.4-.4 1.6-2.3 2-2.5 1.5-.6 3.2-.6 4.7-1 2.9-.6 5.9-1.6 8-3.7 2.2-2.1 4.4-3.7 6.6-5.6 2.2-1.8 3.8-4.3 5.5-6.5 1.2-1.5 3.9-5.8 1.6-7.5-.9-.6-1.5-.7-.9-1.8.6-1.2.5-2.3.6-3.6.2-3.6 1.5-5.1 3.6-7.8 1.2-1.5.9-3.1 1.4-4.8.4-1.3 1.4-2.2 2.4-3.1 2-1.8 3.6-4.1 6.1-5.2 2.8-1.2 5.7-2.2 8.3-3.7 5.2-3 7.7-10.2 9.7-15.5.2-.5.9-3.1 1.7-3 1 .1 2-.3 2.8-.7 1-.6 1.2.8 1.6 1.6.6 1.4 1.4 2.4 2.6 3.3 2.7 1.9 4.9 1.4 7.9 1 2.5-.3 5.7 1.2 7.3-1.7 0 1 .2 1.2.4 1.9.1.8 1.6 1.2.3-.1.7.9 1.9 1.4 3 .9 1.1-.5 1.8.6 2.4 1.2.7.7 2 1.1 2.5 2 .5 1.1-.6 2.1.9 2.7-.8.6-.6 1.8-.4 2.7.2 1.4-.2 2.6-.1 3.9.1 1.1.8 1.7.5 2.9-.4 1.7-.2 2.3.6 3.8.4.8 0 1.4.5 2.1.6 1 1.6 1.5 2.5 2.2 1.7 1.3-3.3 3.5-.7 4.5-2.8.7-12.5-2.6-13.9 1.1-.7 2-2.7 2.7-4.8 2.5-1.6-.1-3.5 2.1-1.4 2.7-1.8 1.7 1.5 2.9.7 3.7-.9.9-2.5.6-3.5 1.3-1 .8-2.2 1.9-3.4 2.3-.9.3-2 .3-2.8.8-1.7.9-2.4 2.9-3.6 4.3-1.4 1.6-4 2.2-6.1 2.3-1.5.1-3.2-.6-3.8 1.3-.7 2-2.6.5-4.1.6-1.1.1-1.7.6-2.4 1.4-.7.8-1.6.6-2.4 1-1 .4-1.7 1.4-2.5 2.1-.9.7-1.9 1.2-2.8 1.9-1.7 1.4-3.3 1.6-3.1 4 .2 2.4-.1 5.1-.4 7.5-.1 1.1-32.3.3-35.6.3">
                <title id="title4011">Morocco</title>
            </path>
        </g>
        <path id="liberia_1_" fill="#bbddac" stroke="#FFF" stroke-width=".797" stroke-miterlimit="3.974" d="M141.3 284.5c1.1-.4 1.2-2.2 1.9-3 1.5-1.5 3.2-2.7 4.6-4.3.9-1 .3-2.4 1-3.3 1-1.3 1.7-.6 2.4-2.5.3-.8 0-.9.2-1.1-1.5-.5 1.5-.5 2.2-.2.7.3 1.1-.6 1.8-.5 1 .1 1.7 1.2 2.3 1.7-.5.6-.2 1.1 0 1.7.2.4-.1 1.4.4 1 .5 2.3.3 4.3-.5 6.5 1.5-.5 2.9-.3 3 1.5 1.7-.7 2.5-1.2 3-3 .2-.5.3-1.6 1-1.7.8-.1 1.5 1.6 1.8 2.2 1 2.2 1 3.4.6 5.7-.2 1-.8 1.9-1.3 2.1-.6.2-1 .9-1.1 1 .1.3.5.7 1.8.7-.6 2.3 3.9.4 4.4 2.1.2.6-.1 1.4 1.1 2.2 1 .6 2 1.5 2.3 2.5.8 2.4 0 3.7-.3 5-.8 2.8-1.8 4.7-.5 7.3-1.3.2-2.3-.3-3.3-.9-1.4-.8-3-.9-4.2-1.9-2.2-1.8-5.2-2.7-7.3-4.8-2.3-2.3-4.2-5.1-6.5-7.3-.7-.7-6.2-2.6-4.9-3.8-1 .1-2.2-1.4-3.1-1.9-1.7-.9-1.5-1.8-2.8-3"><title>Liberia</title></path>
        <path id="central_African_Republic_1_" fill="#bbddac" stroke="#FFF" stroke-width=".797" stroke-miterlimit="3.974" d="M352.8 292.6c.5-.9 1.3-1.4 2.1-2 1.2-1 1.3-2.1 2-3.3 1.3-2.1 2.2-5.2 3.6-7.1 1.8-2.4 2.1-.8 4.4-1.4 1.2-.3 2.2-.6 3.3-1 1.2-.4.8-1.6 2.1-2.1.3 1.3 1.3 2 2.1 3.1.6-1.3 2.6-1.9 3.2-2.4 1.9-1.5 4.9-2 7.2-2 2 0 4 .6 4.9-1.3.7-1.3 3.5-3.6 3.3-4.9-.1-.8-1.8-.6-1.9-1.6-.1-1.5 4.5-1.6 5.8-1.5 3.8.1 8-1.4 10.5-4.5 1.3-1.6 2.1-3.4 3.8-4.6.9-.6 3.2-2.8 2.8-3.8-.6-1.3.4-2.5 1.9-2.9 1.7-.4 3-2.6 5-2.6 2.4-.1 3 1.5 4 2.8 1.7 2 3.5 3.5 4.5 5.7 1 2.1 1 4 .9 6.2-.1 2.2-2 2.5-1.7 4.1.3-.1.6-.2.8-.3.2.9-.2 1.6-.5 2.4 1.7.3 3.7-.1 5.3.7 1.7.9-1.1 3.4 2.1 3.9 1.1.2 2.6.1 3.5.8 1.1.8 1.6 1.7 2.8 2.6 1.8 1.3.4 2.4.4 3.1 0 1.1 1.6 2 2.4 2.5.9.6 2 1.2 2.9 1.7 1.9 1 1.3 1.5 2 2.6.5.8 2.6 1.2 2 2.3-.8 1.5-.1 1.8.8 2.7.9.8-.1 1.5 1.4 2.5 1 .6 1.9.9 2.9 1.5 1.7.9 2.3 1.9 2.2 3.7-.1 1.7 1.1 2.6 1.6 4.1-1.3-1.5-3.1-2.1-4.3-.8-.5.5-1.6.4-2.2.3-.3-.1-.6-.1-.9.1-.7.4-.9-.3-1.5-.5-1.1-.4-1.9-1.3-3.1-1-2.3.6-2.4-.9-3.8-1.1-.9-.1-1.6.5-1.4 1.4.3 1.5-1.5 1.7-2.5 2.1-1 .3-2.5.8-3.4.1-.5-.4-1.7-2-2-1-.4 1.4-3.3 2.3-4.5 2.6-2.2.4-3.6 2.5-4.6 1.5-1.1-1.2-2.2-2.8-4-.8-.5.6-.5 1.6-.9 2.3-.6.9-.7 2.2-1.7 2.9-1.4 1-4.7-1.1-6.4-1.1-1 0-1.2.3-2.4-.1s-1.6.2-2.5-.9c-.8-1.1-2.6-.2-3.8-.4-1.5-.3-1.5-2.3-2.4-3.1-1.5-1.4-3.6-2.4-5-3.2-2-1.2-4.8 1.3-5.8 3-.6 1-1.4 1.9-1.8 3-.3.8-1.5.7-1.8 1.2-.5.8.8 2.3.7 3.2-.1 1.3-.3 1.8-.2 4.7-1.1-1.8-3.8-.2-5.6-.5-.8-.1-2.2-.8-3-1.1-1.5-.7-2.7.7-4.1 1-2.2.4-3.9-.3-4.4 2.4-.3 1.5-.1 3-.4 4.5-.4 1.9-1.6 3.7-2.3 5.5-.5-2.1-.9-4-1-6.2-.2-2.2-2.4-2.1-3.6-3.3-.6-.6-6.4-7.4-3.7-7.5-1.4-1-1.1-3.1-2.5-4.2-1.8-1.4-1.6-3.5-1.6-5.6 0-.8-1.1-1.4-1-1.9 0-.8.5-1.6.6-2.4.1-.9.1-1.9-.2-2.8-.1-1.3-1.1-.9-1.4-2"><title>Central African Republic</title></path>
        <g id="zimbabwe">
            <path fill="#bbddac" stroke="#FFF" stroke-width=".797" stroke-miterlimit="3.974" d="M439.9 513.7c1 .2 2.1.5 3.1.1s1.5 1.1 2.2 1.6c.7.5 2-.7 2.6-.8.9-.1 2.2.9 3 1.2 2.3 1 3.6-1.1 4.8-2.7 1.6-2.2 3.2-4.2 4.4-6.2.6-.9 1.3-1.3 2.2-2 1.1-.9 2.4-1.4 3.7-2 2.6-1.1 3.1-1.4 3.3-4.4.1-1.5 2.5-3.3 3.9-3.8 1.2-.5 2.8-1.2 4.1-1.2 1.6-.1 3.3.5 4.9 0 0 3.1-.3 3.4 3.1 3.4 2.1 0 3.3.5 5.4 1.4 1.2.5 3.8 2 4.9 2.6 1.6.8 4.2.5 4.9 1.8.5 1 1.3 1.1 2.2.8-.2 1.4-1.1 2.2-.4 3.7.8 1.7-.2 3 .3 4.6.5 1.6-.7 3.3-.3 5 .2 1.2.9 2.2-.1 3.1-.8.7-.1 2.3-.5 2.5-1.1.6-1.4.5-1.8 1.9-.2.6.8.8 1.1 1.1.3.2 0 1.1 0 1.4-.1.6-.6 1-.8 1.6-.1.5.6 2.1.7 2.6.3-.1.5-.2.8-.3-.1 1.7.6 2.3-.4 4.1-.8 1.4-1.3 3.7-2.9 4.4-1.7.8-.4 1.8-.7 3.1-.4 1.6-1.6 2.5-.4 4.1-1.3-.9-7.1 7.6-8.1 8.3-1 .6-1.5 2.1-1.9 2.1-.9-1.9-4.5-1.1-6.3-1.1-1.6 0-3-.6-4.5-1.1-3.4-1.2-4.4-.3-4.6-.5-.9-1.1-1-.5-2-1.1-1.1-.6 0-1.6-.4-2.1-1.6-2.1-7.6-.8-8.5-3-.9-2.1-2.6-4.2-1.9-6.3 1-2.9-.4-3.6-3.4-3 .5-2.8-.2-3.9-2.8-4.7-2-.6-4.8-2.9-5.9-4.7-1.8-2.7-1.8-6.1-3.9-8.8-.9-1.2-3.8-5.2-3.1-6.7"><title>Zimbabwe</title></path>
        </g>
        <path id="benin_1_" fill="#bbddac" stroke="#FFF" stroke-width=".797" stroke-miterlimit="3.974" d="M241.8 249.4c.4-.8.5-2.1 1-2.8.6-.6.7-.5 1.2-1 1.1-1.1 2.7-4.2 4.2-2.7.4.4 4.8-.6 5.6-2.1.5-1 1.3-2.2 1.3-3.4 0-.7-.9-2.3.2-2.5.7-.1 1.7 0 2-.4 1.1-1.6 2.5.2 3.3 1.1.6.7.9 1.2 1.5 1.9.7.8 1.6 1.6 2.3 2.5.4.5-.5 1.8-.6 2.4-.3 1.2.9 2.2 1.5 3.1.7 1.1.1 2.2.6 3.1.5 1.2 1.2 2.1.5 3.3-.4.7-1.3 0-1.5.8-.4 1.2 1.2 2-.2 3.6-.6.7-1.5.9-2 1.8-.4.8-.6 1.6-1.2 2.4-1.2 1.5.7 3.6-2 4.3-.9.2-1.4-.2-1.6.8-.1.9-.7 1.9-.6 2.8.1 2.3.1 4.7-.1 7-.1 1 1 3.1.8 4.5-.2 1.3-.2 2.4-.4 3.5-.3 1.7.3 2.3.2 3.2-.1 1-.8 2.5-.6 3.1-1.1 0-2.9.3-4 .5-1.6.3-3.3.6-4.9.8.4-.4.9-.5 1.4-.5-.1-.8-.6-1.7-1.1-2.4-.6-1.1-.8-2.9-1-4.1.2 0 1-.3.9-2.5-.2-4.1 0-8.2 0-12.4 0-2.3-.1-4.1-1.4-6.1-1.2-1.9-.8-4.1-.9-6.2-.1-1.6-2.5-2.4-3.7-3.6-1-1-.8-2.5-.7-3.8"><title>Benin</title></path>
        <path id="eritrea_1_" fill="#bbddac" stroke="#FFF" stroke-width=".797" stroke-miterlimit="3.974" d="M531 208.3c1.3-1.2 1.2-3 1.7-4.5.5-1.7 1.2-3.3 1.8-4.9.5-1.5-1-7.7 1.4-8.1.5-.1 2.3.3 2.6-.2.8-1.3.2-2.3 1.7-2.8 1.2-.4 2.7-1.4 4-1.9 1.9-.8 2-2.7 3.4-4 2.4 4.8 4.2 9.4 5.3 14.6.3 1.2.3 2.5.8 3.7.6 1.3 1.2 2.3 1.5 3.7.2 1 1.4 1 1.6 2 .2.9.4 2.5 1.3 3.2 1-.7-.7-3.5.4-3.7 1.1-.2 1.7 1.1 1.7 1.9.1.9.7 2.5 1.6 2.9 1.2.6 2-1.1 3.3.3 1.1 1.2 1.2 2 2.9 2.3 2 .3 2.7 1.8 3.7 3.3 1 1.5 1.9 3 3.4 4 .7.5 1.4 1 2 1.6.3.3 1.8 2.4 1.1.5 1 .7 1 2.1 1.4 3.2.3.9 1.3.7 1.9 1.3.6.6 2.8 4.8 3.6 2.7.8.8 1.3 1.2.8 1.7-1.2.6-2.2 1.4-2.2 2.1-.1 2.4-1.9-1-4.1.6.3-.6-.4-2.5-2.7-4.1-2-3.1-3.3-5.2-4.6-5.5-2.2-.6-2.9-3.3-4.2-5.1-1.4-2-3.6-2.1-5.4-3.5-1.7-1.3-2.7-.2-4.3-.7-1.2-.4-3.4-1.5-4.6 0 0-1-2-2.9-1.5-2.2.2.3-1.4 2-2.5 2.1-.8 0-2.4.3-3.2-.9-1.4-2.2-1.9-.4-3.6-3.2-.6 2.5-1.6 4.9-2.5 7.2-.5-.7-1.9-3.5-3.1-2.8-.8.4-.7 1.2-1.8 1.1-3.1-.2-3-.4-3.8 1.6-.6-2.7-.7-6.9-.7-9.4"><title>Eritrea</title></path>
        <path id="swaziland_1_" fill="#bbddac" stroke="#FFF" stroke-width=".797" stroke-miterlimit="3.974" d="M481.7 596.1h.2c1 1 .9.8 1.7 1.9.7.9.8 1.3 1.6 2.1.9.9 3 2.2 4.6.9.7-.6.4-.6.8-1.5l1-1.9h1.4v-.5c-1.7-6.6.4-2.1-1.2-6.4-.9-.9-2-1.9-2.7-2.3l-2.6-.1c-.9 1.1-1.5 1.2-2.3 2.4-.4.7-.6 1.2-.8 1.6-.3.4-1.1 3.4-1.7 3.8z"><title>Swaziland</title></path>
        <path id="the_Gambia_1_" fill="#bbddac" stroke="#FFF" stroke-width=".797" stroke-miterlimit="3.974" d="M99 224.8c1.5-1.2 1.3-1.1 2.1.6.6 1.3 2.4-.4 3.3.2-1.9-1 4-1.6 4.3-1.8-1.5-.1-3.3 0-4.8.6-1.2.5-1.9.9-2.7-.5-.7-1.3.7-1.3 1.6-1.2 2.3.2 4.6.1 6.9.1.6 0 .3-1.9 1.7-1.5 1.1.3 2.2-1 3.3-.4.6.3.7 1 1.3 1.4.5.3 1.1-.3 1.6 0 .6.3.4 1.2 1.1 1.5.7.3 1.6-.3 2.3-.5.8-.2 2.7-.1 2.5 1.1-.1 1.1-1.9 1.5-2.7 1.6-3.7.5-7.5-3.7-8.1-2.7-.6 1.2-.8 1.6-3 1.5-.8 0-3 .5-2.5 1.7.1.2-7.2-.6-7.5 1.1-.5-.8-.8-1.9-.7-2.8"><title>Gambia</title></path>
        <path id="sao_Tome___Principe_2_1_" fill="#bbddac" stroke="#FFF" stroke-width=".478" stroke-miterlimit="3.974" d="M295.4 334.5c.3-.5.4-1.1.1-1.6-.6.4-.7 1.1-.1 1.6" />
    </g>
</svg>