<svg id="Africa" xmlns="http://www.w3.org/2000/svg" viewBox="0 0 560.86 668.77" preserveAspectRatio="xMaxYMax meet"><g id="areas"><path id="sao_Tome_Principe_2" data-name="sao Tome   Principe 2" d="M206.9,334.5a1.54,1.54,0,0,0,.1-1.6.94.94,0,0,0-.1,1.6" transform="translate(-5.1 -2.42)" fill="#bbddac" stroke="#fff" stroke-miterlimit="3.97" stroke-width="0.48"/><path id="burkina_Faso" data-name="burkina Faso" d="M101.8,251.9a8,8,0,0,0,.7-4.8c-.4-1.7.7-.7,1.3-2,.4-.8,1.3-3.2.4-4-.6-.5.6-1.6-1.3-2.1.9,0,1.5-.7,2.1-1.1,1.1-.7,2.7-.1,3.8-.8,1.4-.9,3.1-4.2,1.9-5.6-.6-.7.3-1.2,1-1.1,1.2.1,1.1-.9.9-1.8-.1-.6-1.3-1.5-.3-1.9.8-.3,1.9-2.5,2.4-3.2-.1,1.4,3.1,3,4.2,3.1-.3-1.3.6-1.1,1.6-1.1-.1-1.2.4-2.8-.2-3.9a6.61,6.61,0,0,1,2.5.7c1.2-1.8,1-5.6,4.1-5.9,1.5-.2,3.3,2.2,3.6-.4.2-1.4,1.7-1.2,2.7-1.7,1.3-.7,2.2-1.6,3.5-2.2,1.6-.7,4.5-4.6,6.7-2.6.4.4,1.4-.5,2.1-.3a21.52,21.52,0,0,1,2.7,1c1.3.6-1.1,4,.9,5.2,1.3.7.3,2.8,1.2,3.8.5.5,1.6,1.7,1.4,2.4a36.28,36.28,0,0,1,5.3,3.5,1.81,1.81,0,0,1-2.2-.2c-1,2.7,2.5,5.8,4.6,6.8,1.7.8,2.7-1.2,3.9-.9,1,.3,1.2,1.9,1.6,2.7-2.7.9-.4,2.5.6,4.3,1.1,2-1.5,4.9-3.5,5-.5,0-2.4.6-2.7.3-1-.8-1.2-.4-2,.3-1.6,1.4-2.5,3.3-4.5,3.6-3.1.4-3.7-.5-5.5-.9a11.93,11.93,0,0,0-2.6-.5c-.8,0-2.9,2.1-3.5,1.8-1.5-.6,1.7-.7-9.2-.7-3.6,0-5.8.3-8.7,0,.4,1.7-1.3,2.5-.8,3.5a19.4,19.4,0,0,1,1.2,3.9,18.19,18.19,0,0,1,.2,4.1c-.1,1.2.8,2.7,0,3.3-1.3-1-2.6-3.4-3.5-4.9-.8,1.1-3.9-.2-5.1.2s-4.1.9-4.1,2.8a14,14,0,0,1-4.3-2c-.5-.6-1-.9-1.1-1.4-.2-.9-1-2.7-1.7-3-.6-.5-1.9.4-2.3-1.3" transform="translate(-5.1 -2.42)" fill="#bbddac" stroke="#fff" stroke-miterlimit="3.97" stroke-width="0.8"/><g id="libya"><title>Libya</title><path d="M223.4,70.4c-1-.9,1.2-1.9,1.7-2.2a7.56,7.56,0,0,0,3.7-2.9c.8-1.4,1.7-2,1.3-3.8-.3-1.5-1-3-.8-4.6.2-2.2,2.8-1.6,3.2-3.1.5-1.7,1.8-2.5,3.2-3.2,1.1-.5,4.5-1.5,4.6-2.9,0-.7-.7-1.2-.6-2,.1-1.4.2-2.9.3-4.3,1.4,1,3.2,1.5,4.7,2.4a7.69,7.69,0,0,0,5.1,1.1c1.8-.2,3.2-1.4,5.1-.7,1.7.6,3.5.7,5.1,1.4s2.6,1.7,4.1,2.3c1.3.5,3,0,4.2.8,1.4.9,1.6,2.5,1.9,4a7.18,7.18,0,0,0,2.6,4.7c2.7,2.3,6,1.8,9.3,2.4s7.9,2.1,10.5,4.2c2.1,1.7,4,4.6,7,4.3a9.58,9.58,0,0,0,7.9-6.8c.4-1.6-.7-2.8-1.2-4.3a8.87,8.87,0,0,1-.4-5.1c1-3,6-6.8,9.1-6.9,1.6-.1,2.6-1.2,4.1-1.4a18.53,18.53,0,0,1,4.7.2,42.91,42.91,0,0,1,5,1.9c2,.8,1.5,1,1.6,2.8.1,1.4,2.3,1.7,3.4,1.8,2,.1,3.2,1,5,1.6s3.7-.1,5.5.3c1,.2,2.6,2.3,2.2,3.3s-1.8,1.4-2,2.7c-.3,1.8.9,3.1,1.2,4.7.4,1.9-.8,3.5-1.5,5.1s1.1,3.8,1.4,5.5a88.53,88.53,0,0,1,1.2,9l1.9,80.6h-8c.1,1.5,0,3.1.1,4.6l-63.9-36.2-14.5,6.9c-1.2.3-2.7-1.7-3.4-2.4-3-3-6.2-3.6-10.2-4.5-1.4-.3-3.3-.5-4.5-1.3-1-.6-1.5-2.4-1.9-3.4-1.2-3-2.7-3.8-5.6-4.9-1-.4-1.9-1.2-3-1.2s-2.2,1.2-3.1.1c-.8-.9-2.2-3.1-2.2-4.2a8.3,8.3,0,0,0-1.6-5.5c-1.1-1.6-4.5-4.5-3-6.7,1.7-2.5,4.4-1.5,3.3-5.6-.6-2.1-1-3.6-.3-5.7.6-1.8,1-3.3.3-5.1s-.2-3.9,0-5.8a16.26,16.26,0,0,0-.9-6.9,23.78,23.78,0,0,0-2.9-5.1" transform="translate(-5.1 -2.42)" fill="#bbddac" stroke="#fff" stroke-miterlimit="3.97" stroke-width="0.8"/></g><path id="madagascar" d="M547.3,459.8c-.3,0-.6.3-.5,1.2.2,1.2-2.2,3.3-3.3,3.3,2.1,1,.7,4.1.3,5.5-.6,2-.6,3.3-3.1,3.4.3,1.5-.2.3-.9,1.2-.5.6-.5,1.5-.8,2.2-.6,0-2.9-4.7-3.3-1.4a6,6,0,0,0,.7,3c.4,1-.3,3.6-.5,1.7-.2.9-3,1-1.9,3.1.6,1.1,2.9.7,2,2.5.3-1.4-1.1-1.5-2-.9-1.2.9-1.1,3-2.8,3.5-.2-1.2.9-2.1.7-3.3-1.2.3-.9,1.1-1.4,1.9s-1.8,1.3-2,2.2c-.1.7.6,1.4.9,2,.5,1.1-1.4,1.3-2,1.8.1-.7,1.5-2.9-.4-2.9-1.1,0-2,1.4-2.8,2-.6.4-2,1.2-1.9,2,.1.4-.3,1-.1,1.4.2.6,1,.5,1.2,1.2-.9-.1-1.8.1-1.9-1.1-.2-1.5-1.7-1.5-1.7.1a2.9,2.9,0,0,0-2.7-.5c-.8.4-.5,1.6-1,2.2,0-1.6-1.8-.4-2,.6-.3-.5-.6-1-.9-1.4-.9.6-1.6,1.7-2.7,2.1s-2.8-.4-3.6.3c-.4.4-.1,3.4-.4,3.1.3,1.2-.6,2.6-1.2,3.7-1,1.7-4.2,4.8-3,6.8.8,1.4.1,3.9.2,5.5.2,1.8,1.5,3.4,1.5,5.2s-.1,2.8.8,4.3.4,2.3-.1,3.9c-.3,1.1,1.1,1.5.4,2.7s-1.6,2.5-2.4,3.8a35.75,35.75,0,0,0-2.5,4.2c-.5,1.1-.1,3.1-1.5,3.6-1.7.6-2.2.7-2.4,2.7-.1,1.7-1.6,3.2-2.1,4.9.6,2.6-.7,5.7,1.1,8,.9,1.1.9,2.3,1.3,3.6s1.6,1.4.4,2.7-1,5.5-.2,7.1a15.54,15.54,0,0,1,1.7,4c.5,2,1.8,2.6,3.3,3.8-1.9-1.1-.2.4.2.5.7.2,1.4.1,2.1.3,1.7.4,2.6,2.3,4.3,2.7,2.9.6,5.9-3.1,8.6-3.9,1-.3,2,.3,2.9,0a13.27,13.27,0,0,1,2.1-.9c1.1-.2,1.7-1.5,2.1-2.4a23.15,23.15,0,0,0,1.3-3.7c.5-1.7,1.5-3.2,2.1-4.8,1-3.1,2.1-6.1,2.9-9.3,1.2-4.5,3-8.5,4.6-12.9,1.3-3.5,2-7.2,3.6-10.6.5-1,1.3-2.6.9-3.7.5,0,1.1-2.2,1.3-2.5.9-2.4,1.4-4.9,2.4-7.3a60.34,60.34,0,0,0,3.5-10.1c.6-2.8-1.3-6.8,2-8.6.7-.4,1.4-2.4,1.5-3.3s-.1-1.5,0-2.3c.2-1-1.1-.9-1.1-1.9,0-.8-.8-6.6,1.1-5.8,1.6.7,1,4,2.6,4.6s2.9-4.1,3.1-5.1c.3-1.5-.7-2.2-1.1-3.6a29.71,29.71,0,0,1-.8-7.3,39.12,39.12,0,0,0-3.1-13.6,3.51,3.51,0,0,1-.8.5c.2-.6-.1-.8-.4-1.1-.6-.6.3-1-.2-1.7s-.9-3.1-2.2-2.3a2.49,2.49,0,0,1-.1-.8c1.9.1.8-1.5.1-1.6Zm-8.4,11.3c-.8.6-.6,1.9.5,1.8C539.8,472.3,539.4,471.6,538.9,471.1Z" transform="translate(-5.1 -2.42)" fill="#bbddac" stroke="#fff" stroke-miterlimit="3.97" stroke-width="0.48"/><path id="ivory_Coast" data-name="ivory Coast" d="M76.3,288.3c.5-1,1.6-1.2,2.1-2.3a7.51,7.51,0,0,0,.5-2.6,8.49,8.49,0,0,0-1.4-4.9c.6-.7,1.5-.3,2.2.1.1-.8,1.4-1.7.9-2.6-.4-.7.3-2.3,1.2-1.7-.7-1.1-2-1.8-2.4-3.1-.6-2.5,4.1-.5,4.9-.2-.6-1.7-.3-3.6-2.5-3.9.4-1.1.4-2.3,1.9-2.5-1.2-1.4-1.4-1.1-1-3.2-2.6,1.7-2.5-4.1-2.2-5.4s1.2-1.6,2.3-1.9c.6-.2.6-1.3,1.1-1.7.7-.6,1.5-.2,2.2-.5-.2,1.5,2.9,3,4.1,2.5-.8-1.4.6-1.4,1.6-1.4,1.3,0,.9-2.2.9-3.1.5.3,1.1,1.3,1.8,1.1s.8-1.5,1.5-1.8c.6,1.1-.2,4.7,1.3,5s.3-2.7,4.5-2.6c.4,0-.9,1.2,2.5,1.4,1.6.1,1.9,3.2,2.1,3.5a10,10,0,0,0,5.3,3.1c0-1.9,2.8-2.3,4.1-2.8s4.3.9,5.1-.2c1.3,1.5,1.8,3.2,3.5,4.9a2.18,2.18,0,0,0,.5-.8c.5,1.5-.7,3-.5,3.8.4,1.3,1.1,1.9,1.3,3.4.1,1.2.9,3.3.5,4.5a33,33,0,0,1-1.8,3.2c-.9,1.6-2.3,2.5-2.2,4.2.1,2.3-1.1,3.9-1.5,5.6s-.3,4.7.8,6.1a6,6,0,0,1,1.2,4.9c2.7-.8,1.1,3.4,1.6,4.7a7.77,7.77,0,0,0-1.6.2,5.58,5.58,0,0,1,.5-.8c-1.3,1.9-2.4-.5-2.6-1.5-.7.8-1,1.8-2.2,1.9a3.09,3.09,0,0,1-2.3-.8c-.4.8-1.4,0-1.8-.3.7-.1,1.4.5,1.9-.2a1.56,1.56,0,0,0-.8-.6c.3,1.5-.3.1-1.4.4.2.5-2.5.2-3.2.3-.3,0-3.8.6-3.5.8,1.7.9,5.1-2,6.5-.3-2.1.1-4.2.5-6.3.8-.5.1-1.4.3-1.7-.3-.4-.8-2.5-.4-3.2.3a3.4,3.4,0,0,1,3.1.1c-2.6.3-5.4.2-7.9,1.2-2.1.9-4.1,2.7-6.4,2.9a11.09,11.09,0,0,0-4.7,2.4c-2,1.9-2.4-1.6-2-3.1a45,45,0,0,1,1.5-5.1,5,5,0,0,0-1.4-5.3c-.9-.8-2.3-1.1-2.1-2.7.2-1.9-5.5-.2-4.4-2.4a2.27,2.27,0,0,1-2-.7" transform="translate(-5.1 -2.42)" fill="#bbddac" stroke="#fff" stroke-miterlimit="3.97" stroke-width="0.8"/><path id="cameroon" d="M216.7,304a5.08,5.08,0,0,0,1.7-3.4c0-1.2,1.6-3.5,1.2-4.3s-.6-1.2.6-2.6a48.56,48.56,0,0,1,3.8-4.1c.8-.7,1.8-1,2.2-2s1.7-3.2,2.7-3.4,1.7,1.1,3,.8c1-.2,1.1-1.7,1.3-2.5a8.46,8.46,0,0,0,3.2,3.3c.8.2,1,1.3.7,2.2-.2.6.9,1.5,2.1,1.2.4-.6,2.4-2.5,1.9-3.6-.3-.8,1.3-1.8,1.8-2.3.9-.7,0-1.9.5-2.9,1-2,2.4-3.8,3-6.2.3-1-.1-2.1.2-3.1.2-.8,1.4-1,1.4-2.3-.4-.1,2.7.3,3.3-2.7.1-.7,1.3-4,.2-4.2,1.3-.7,3.3-1.5,3.5-3a26.2,26.2,0,0,0,.1-2.8c0-1,1-.9,1.5-1.6.6-.9.5-2.1.8-3.1a16.31,16.31,0,0,0,.8-2.9c.3-1.3,1-3.8,2.4-4.3.7-.3,5-.3,5.6-2.7.2-.7-.6-1.2-.5-2,.2-1.4.3-2.2.5-3.2.3-1.2-2-2.3-2.7-2.1s-1.4-1-1.6-2.6c-.2-2.5-.1-3.5-.4-4.2.9,0,2.4-.1,3.1.7,1.1,1.2,0,2.4,2.3,3.1,1.2.3,1.4,3.2,1.4,4.2s-.1.2.9,1.1c2,1.9-.2,7.7.1,10.2.4,3.5,2.1,7.6,5.3,9.4-1.3,1.1-2.9.6-4,.1a19,19,0,0,1-2.5.3c-2.4.1-4.8-1.5-6,.5-1.5,2.4-1.3,2.8.7,5s4.1,4.2,6.3,6.2a8.76,8.76,0,0,1,1.9,2.4c.8,1.6,1.5,4.8,2.5,6.3s-.9,2.6-1.4,3.3a36.85,36.85,0,0,0-2.5,4.9c-.2.5-.8,1.4-1,1.9-.4,1-1,1.8-1.5,2.8-.7,1.4-4,2.7-2.1,3.5,1.4.6,1.3,2,1.1,3.9a4.65,4.65,0,0,1-.6,2.3c.1-.1,1,1.3,1,1.4.2,1.6-.1,4,.9,5.3.6.8,1.5,1.1,1.8,2.3a4.72,4.72,0,0,0,1.4,2.7c-2.6.1,3.3,7.1,3.8,7.5,1.3,1,3.1,1.6,3.3,2.6a5.66,5.66,0,0,1,.3,1.8,31.46,31.46,0,0,0,.9,5.2c-2,.9.2,4.3-1.1,5.2a9.93,9.93,0,0,0-4-2.6c-.7-.2-2.7-1-3.2-.7a1.69,1.69,0,0,1-2.5-.7c0-.1-2.4-.5-2.6-.6-.7-.3-2.8-.1-3.7-.1-1.7-.1-3.5-.1-5.2-.3a7.08,7.08,0,0,1-1.5.1c-.6-.3.3-1-.9-.9a14.21,14.21,0,0,1-4.6.1,24.39,24.39,0,0,0-5.4-.1c-1.2,0-3.5-.7-4.7-.1-.3.2-.2,1.2-.6,1.2h-3.5c-1.6,0-3.3.1-4.9.1-3.5.1-4.3-1.9-3.5-5.1.4-1.9,1.1-3.9.1-5.7-.5-.8-2.1-2.3-.4-2.9-1,.6-2.8-.4-1.7-1.5.6-.6,1.9-1.6.2-1.7a2.11,2.11,0,0,0,.5-1.3c-.5,1.3-1.1.3-2,.3.3.4.6.7,0,.5a2.54,2.54,0,0,1-.2,1.2.81.81,0,0,1-.8-1.2c-.6,1.1-2.4-.3-2.6-1.1-.4-1.3-.4-3.5-1.4-4.5-1.1,1.3-.9-.2-1.5-.2a7.72,7.72,0,0,1,.2,1.5c-2.1,0-.9-2-.7-3.2" transform="translate(-5.1 -2.42)" fill="#bbddac" stroke="#fff" stroke-miterlimit="3.97" stroke-width="0.8"/><g id="botswana"><title>Botswana</title><path d="M307.9,578.1l.9-25.7h7.3l1-34.1c2.6-.6,9.2-1,12.9-2.3,1.2-.4,4-1,5.2-.3,1.6.9,1.9,2.8,2.7,4.3,2.1-1.6,3.7-5,6.1-5,.9,0,.8.5,1.5.6.9.1,1.4-1.1,2-1.4,2.1-1.2,4.3-1.1,3.9-.3a5,5,0,0,0,.1,1.7,15.4,15.4,0,0,0,2.3,3.9,11.24,11.24,0,0,1,2.3,3.8c.5,1.4.7,1.7,1.1,3.1a11.64,11.64,0,0,0,5.6,6.7c2.8,1.4,5.3,1.1,4.4,5.5,2.5-.6,4.5-.3,3.4,3.1a3.19,3.19,0,0,0,.4,3c.7,1.1,1.2,3.7,2.4,4,2.3.7,4.3.6,6.8,1.4,1.8.6.2,1.5.8,2.4.4.7,2.1.5,2.3,1.5-2.9.4-2.4,1-3.5,2.5-1.2,1.7-4.4.8-5.8,2.4-1.3,1.4-2.3,3.7-4,5-.2.1-.9.8-1.6,1.3-1.2.8-2.4,1.1-3.3,2.1a4.75,4.75,0,0,0-1.6,3.7c-.3,2.5-1.7,3-3.4,5.1-1,1.2-2.7,1.6-4.4,1.8-1.2.2-.5.7-.7,1.9a34.3,34.3,0,0,1-1.6,4.5c-.8,2.2-2,3-4.2,2.8s-1.8,1.3-4.5.7c-1.1-.2-3.6-1.4-4.5-1.5a4.28,4.28,0,0,1-3-1.9c-1.1-1.4-4.2-2.5-5.8-.4-1.5,1.9-.8,4-2.2,5.9a8.62,8.62,0,0,1-2.5,2.2c-1.1.8-1.4,2-2.4,2.9-.7.7-1.3.4-2.1.7-.3.2-.3.5-.2.9-.3.9-1.6,1.1-2.3,1-1.2-.1-1.9-.4-3-.5s-2-.5-3.3.6c-1.9-3.7,2.1-5.4.7-10.4a26,26,0,0,0-2.3-5.8c-1.2-1.3-2.9-2-3.9-3.4" transform="translate(-5.1 -2.42)" fill="#bbddac" stroke="#fff" stroke-miterlimit="3.97" stroke-width="0.8"/></g><g id="kenya"><title>Kenya</title><path d="M425.1,358.3c1.6-1.2-2.4-6.1,3.2-5,0-.3.3-.9,0-1.5l3.4-.4c-2.2-3.4-3.2-.7-4.2.2s-3.1-2.7-3-4.8c.9-1.5.3-2.2,1.9-3.7,1.2-1.1,2.1-4.6,4.1-5.5.9-.4.8-.6.7-1.4-.1-1.2,1.4-1.8,1.7-3a17.56,17.56,0,0,0,.6-3.9c.1-1.2-1.1-2-1.3-3.4-.6-3-2.4-3.6-2.7-5-.2-1-.8-1.9-1.1-2.9a3.26,3.26,0,0,1-.4-1.4c0-.7.7-1,.5-1.8-.2-.6-.9-.8-1.4-1-1.2-.5-.3-1.4-1.6-1.2.5-1.2-1-2.4-.8-3.2s1.2-1.5,1.7-2.1c2-2.1,4.4-1.5,7.1-1.5,1.5,0,3-.1,4.5-.1a16.2,16.2,0,0,1,2.2.1c.6.1.8,1.2,1.6,1.5,2.3.9,4.9-.2,7.3.9a28.26,28.26,0,0,1,7.1,5.2,4.76,4.76,0,0,0,3.2,1.8c.9.1,3-.5,3.8,0,2,1.3,5.2.1,6.9,1.9.2-1.2,1.9-3,2.7-4,1.3-1.9,4.2-2.6,6.2-3.5s2.5,1.3,4.1,2.2c1.1.6,2.3.2,3.4,0,.9-.2,2,.4,2.9,0a58.42,58.42,0,0,1-4.1,6.8c-1.7,2.2-3.2,3.4-3.2,6.3,0,6.9.1,13.8.1,20.7,0,5.2-1,10.1,2.4,14.3,1.2,1.4,3,3.3,1.7,5.2-.7,1.1-3,3.1-4.4,1.9a6.89,6.89,0,0,1-.3.8,5.55,5.55,0,0,0-.6-.8c.4.8,1.3,2.4.5,3.2-.1-2.1-1,.3-1.2.8a2.31,2.31,0,0,1-2.2,1.3,2.82,2.82,0,0,0-2.3,3.9c.3.8-1.2,3.2-1.8,3.7-1,.8-1.9,6.5-3.1,6,.5,2.2-1.7,3.8-2.1,5.8-.9-.7-.8.5-1.5.3-.9-.2-2.2-1.9-2.9-2.4-3.2-2.5-7.3-5.1-9.2-7.8-.5-.7-1.5-.8-.4-2,1.6-1.7-1.2-3.8-2.6-4.7l-27.1-16.8" transform="translate(-5.1 -2.42)" fill="#bbddac" stroke="#fff" stroke-miterlimit="3.97" stroke-width="0.8"/></g><path id="sierra_Leone_Island" data-name="sierra Leone Island" d="M41.5,278.1c-.1.2-.1.4-.2.5a16.81,16.81,0,0,0,3.2.9c.2-.4.3-1-.1-1.3-.9-.5-2.1-.1-2.9-.1" transform="translate(-5.1 -2.42)" fill="#bbddac" stroke="#fff" stroke-miterlimit="3.97" stroke-width="0.48"/><path id="sierra_Leone" data-name="sierra Leone" d="M38.3,265c.7-.6,1.5-.1,2.2-.5s.5-1.7,1.4-1.9c1.4-.4,2.4-3.2,2.8-4.4.7-2.1,2.9-.5,4.5-1.6,1.3-.9,5-1,6.4,0s1.9,2.6,2.7,3.9a22.47,22.47,0,0,1,1.2,2.1c.2.6-.4,1.2,0,1.6s1,.4,1.1,1.2c0,.6-.2,1.8.3,2.3.7.7-1.6,3.1-1.5,4.4a9.13,9.13,0,0,1,2.3-1.5c1.6-1,1.3.4.9,1.5-.4,1.4-2.4,1-2.6,3s-.2,1.8-1.3,2.9a17.58,17.58,0,0,1-2.8,2.6c-1.6,1.2-2.3,4.1-3,3.9a64.71,64.71,0,0,1-8-4.4c1.7.5.4-.3-.1-.6.7-.5,1.7-.5,2.4-1.2-1.4.2-3.5.4-2.3-1.7-.9,2.2-2.1-.3-2.9-.2-.6.1-1.1-3.7-1.1-4.2-1.2.3-3-.7-2.2-2.2a9.06,9.06,0,0,0,1.6,1.1c-1.3-.7.6-1.8,1.4-1.8-.3-.5-.2-.4-.1-1-.7,1.4-1.4.7-2.2.2a6.89,6.89,0,0,1-.3.8c-1-1.7-.2-2.4,1.3-2.7-.6-.8-1.7-.7-2.1-1.6" transform="translate(-5.1 -2.42)" fill="#bbddac" stroke="#fff" stroke-miterlimit="3.97" stroke-width="0.8"/><path id="mali" d="M47.9,211.8c1.4-.3,2.1.4,3.3-1.1,1-1.3.5-4,1-5.6,1.1-3.6,6.1,2.4,6.7,3.5,1-2.6,2.6-4.1,5.6-2.9,2,.8,6.2.7,6.7-2.1,1.1,2.8,6.7,1.5,8.9,1.4,5.4-.4,10.9-.1,16.2-.1,1.9,0,4.2-.2,6.1,0,1.4.1,1-2.1,1.1-3.3s1.4-3.9.1-4.8c-2.4-1.5-1.8-2.9-1.7-4.8l-5.6-75h14.2c14.7,11,28.4,21.9,42.3,32.8,1.7,1.2,4.8,2.4,4.6,4.9-.1.8-.2,1.5,1.2,2a12.15,12.15,0,0,1,2,.9c1,.6.8,1.8,1.6,2.6a4.3,4.3,0,0,0,2.5,1c.7.1.2-.6,1.4,0,.9.4,1.3,1.6,2.3,1.9,1.6.5,3.7.6,5.2,1.5,1.1.6.8,3.6.3,4.6-.6,1.4-1.6,2.8.7,3.1s5.2-.9,7.5-1.2c-.3,6.6.6,13.6-.2,20.1a37.61,37.61,0,0,1-.4,4.8c-.2,1.2.2-.3-1.4,3.1-.5,1.1-.5,2.3-.9,3.4s-1.5,1.4-2.3,2c-1,.8-.3,1.8-1.7,1.6-.3-.1-3.1-.8-3.3-.3-.3,1.3-9.1.8-10.4.9-3.3.3-3.2-.1-5.5,2.4a3.33,3.33,0,0,1-3.2.8,20.9,20.9,0,0,0-2.5-.1c-1.1,0-1-.8-1,.5-.8-.3-1.5-.7-2.3-1-1.8-.8-2.3.5-3,0a2.35,2.35,0,0,0-3.3.2,39.34,39.34,0,0,1-4.8,3.2,13.06,13.06,0,0,1-4.2,2.2c-1.3.3-.2,3-2.1,2.2-1.2-.5-2.2-1.2-3.4-.4a6.72,6.72,0,0,0-2,3.2,15.55,15.55,0,0,1-.8,2.3,13.8,13.8,0,0,0-2.6-.7c.6,1.1,0,2.7.2,3.9-1,0-1.9-.2-1.6,1.1-1.1-.1-4.3-1.7-4.2-3.1-2,4.9-3.5,2.6-2.5,4.3a2.94,2.94,0,0,1,.4,2.5c-.1.3-2.5-.1-1.9.9,1.1,1.9.6,3.9-1.5,5.7-1,.8-2.2.5-3.3.7s-1.7,1.4-2.9,1.3c2.1.5.6,1.7,1.2,2,1.1.6.2,3.5-.4,4.5-.2.3-1.3.5-1.3.8.3,1.6.6,3.6-.6,5.1-.4.6-1.8.6-2.4.7-1.3.4-.6,2.1-2.3,2-1.9-.2-.6-3.9-1.3-5-.7.3-.9,1.6-1.5,1.8s-1.3-.8-1.8-1.1c0,.9.4,3.1-.9,3.1-1,0-2.4.1-1.6,1.4-1.2.5-4.3-1-4.1-2.5-.6.3-1.6,0-2.1.5-.7.9-.6,2-2.1,2.1,1.1-2-2.5-2.3-2.5-4.1a13.67,13.67,0,0,0,0-3.5c-.4-1.5-2.4.3-3.1.2.3-1,1.1-3.6,2.5-3.1.5-1.5-2.5-2-2.7-3.5-1,.6-.9-.5-.8-1.2.2-1.4-.4-1.9-1-3.1-.5-.9.1-2.2-1-2.8-.4-.2-1.9-1-2.3-.6s1.1,1.6,0,2.1-2.1,1.5-3.3,2.1c-.8.4-1.8-.8-2.4-1.1-1.5-.6-2.6-.5-3.6.7-2.6,3.1-1.2-.6-3.4-1.4-1.5-.5-3,4.2-4.5.6-.5-1.2,1.5-2.2.5-3.5-.5-.8-.1-2.6.2-3.3.3-.9-2.5-6.3-3.1-3.9-.7-.2-1.7-2.3-2-2.9s.6-1.7.6-2.8c0-1.7.1-2.4-1-3.7a1.83,1.83,0,0,1-.6-1.7c-.1-.7-.4-.7-.9-1.9" transform="translate(-5.1 -2.42)" fill="#bbddac" stroke="#fff" stroke-miterlimit="3.97" stroke-width="0.8"/><path id="democratic_Republic_of_the_Congo" data-name="democratic Republic of the Congo" d="M246.3,402.1c.7-.6,1.6-.1,1.9-1.1.2-.8.9-4,.3-4.6-1.5-1.7,4.3-4.3,5.4-5.2.3,1.2,2.1,1.4,2.2,2.7a14.91,14.91,0,0,1,2-1.5c.9-.7.5-2,1.3-2.8,1.3,1.7,3.2-1.6,4.7-.8s.1,1-.1,2,.4,2.1.4,3.2c.6-.8,2.1.2,2.9-.4,1.3-.9,2.1-2.6,3-3.8.5-.6,2.6-1.6,2.7-2.2.3-1.5,1.5-1.8,2.7-2.4,2.8-1.2,3.4-6.6,3.3-9.1-.1-1.9.1-3.7-.1-5.7s2.1-2.3,2.9-3.8c1.9-3.5,1.7-5.7,5.5-8.2a13,13,0,0,0,3.6-3.8c1-1.5.3-3.6.7-5.3.4-1.5,1.1-7.9,1.2-9.6.1-1.9,1.2-3.6,1.5-5.4s-.2-3.7.2-5.5c.8-3.3,2.7-6.1,3.9-9.2.7-1.8.3-3.8.3-5.7a11.84,11.84,0,0,0,.2-2.6,13.06,13.06,0,0,0-.8-2.1c-.3-1.2,1.7-1.1,2.1-2.2a12.1,12.1,0,0,1,2.4-3.9,5.87,5.87,0,0,1,4-2.1c1.4,0,1.9,1.2,2.8,1.4,2,.4,3.9,2.6,4.7,4.5.6,1.5,2.8.4,4,.8.7.2,1,1.1,1.8,1.1s.8-.2,1.5.2c1.1.5,1.3,0,2.3-.1a5.09,5.09,0,0,1,2.1.6c1.2.4,2.7,1.3,4,.8,2.2-.8,1.6-6.2,4.5-6.3,1.7-.1,2.2,3.4,4.4,1.3.9-.9,7.4-1.7,7-3.9,1.3-.1,1.8,1.8,3.1,1.7,1.5-.2,4.2-.4,4.8-2,.2-.6-.4-1.2.4-1.6a2.05,2.05,0,0,1,2.6.6c1.2,1.2,2.4-.2,3.8.4a19.92,19.92,0,0,1,1.9,1.2c.8.4,1.3.1,2.2.2,2,.3,2.7-1.9,4.8-.7.8.4,3.5,2.2,3.5,3.2a2.87,2.87,0,0,0,1.1,1.9c2,.8,4,3.8,6.1,1.8,1.2-1.2,2.1-1.4,3.8-.6s2.3.5,3.3-1.5c1.3-2.6,4.6,3.9,4.8,4.3.8,1.9,5.8,2.1,4.3,5.1,1-.2,2.2-.3,2.4,1a4.05,4.05,0,0,0,.5.9c.1.6-.7,1.9-.6,2.5a22.77,22.77,0,0,1-.4,6.4c-.2,1.1.6.9,1.9.7.6-.1,2.7,1.4,2.3,2.6-.9,2.8-4.4,5.6-6.4,7.7-.7.7-2,2.5-2.8,3.2s-.9.1-1.3,1c-.6,1.1.1,2.5-.6,3.6a11.72,11.72,0,0,0-1.7,4.6c-.1,1.3-.1,2.7-.2,4-.1,1.6-.3,2.9-.5,4.4-.1,1.1.2,2.6-.3,3.6s-1.5,1.5-2.3,2.5c-1.3,1.4-1.2,1.9-1.2,3.5,0,1.1-1.2,2.3-1.8,3.1-1.3,1.7.5,3.5,1.5,5.1.8,1.2,1.3,2.1.7,3.8-2,1.8.4,7.4-1.5,9.3,1.4.8,1.2-2.8,1.6-2.2.5,2.9-1.3,4.9-1.3,7.7,0,3.6,3.1,5.3,1.8,7.8-.7,1.5-1.5,1.8-.9,2.7,1,1.4,1.4,3.8,3.3,7.5,1.3,2.5,4.9,2,5.1,8,.1,2.4,1.9,1.1,2.6,4.7-5,1.1-8.8,1.3-13.8,2.4,2.1,3.5-3.3,4.9-4.3,7.5,2.9.9,1.9,5.4,1.7,7.6-.1,1.6.5,3.1.4,4.7a4.65,4.65,0,0,1-.6,2.3,14.46,14.46,0,0,0-1.1,2.9c-.5,2.1-1.3,3.4.1,5.5a23.77,23.77,0,0,0,4,4.4c.6.5,3.5,2.4,3.8,1.2.4-2,.9-1.6,2.9-2.2,0,3.1-.1,6.2-.2,9.3,0,.5.3,2.5-.5,2.6s-1.1-1-.5-1.5c-1.4-1.7-4.5,3.6-6,.4a15.44,15.44,0,0,0-1.7-3.4c-.4-.5-1.5-1.3-1.6-1.9-.2-1.3-.5-2.7-2.1-2.8-1.3,0-1.9-1.4-3.2-1.6-1.1-.1-1.7.7-2.5-.5-.6-.9-.6-2.2-1.4-3-1.2-1.1-2-4.8-3.1-1.5s-3,1.6-5.6,1.7c-1.8.1-2.2-.5-3.8-1.2-.1,0-1.7-.4-1.8-.4-2.4.4-3.2-3.3-2.3-5a16.4,16.4,0,0,0-4.4.9c-1.7.7-2.1,1.5-4,.7.7-1.3.8-3.1.1-3s-1.2-.7-1.8-1.2c-1.3-1.3-1.2.2-1.5.3a3.89,3.89,0,0,1-2.8.1c-1.3-.3-2.1.6-3.2,1-1.5.5-2.4-.5-3.4-.3a8.12,8.12,0,0,1-1.7-.1c-.9.5-1.4,1.9-2.7,1.9.3-1-.3-1.7-.5-2.6-.2-1.2.6-1.4.9-2.4a10.74,10.74,0,0,0-1.6-7.8c-1.6-2.1-2.3-3.5-2.1-6.3s1.2-5.9.5-8.8c-.3-1.1-1.1-2-1-3.2s.7-2.5.8-3.8c.2-2.1-1.2-1.9-3-1.9h-4.9c-3.4.1-2.9-.6-1.9-3.5a5.37,5.37,0,0,0-2.2.1c-.5.2-.1.4-.4.7-.9.8-5,.1-6.2.1.4,1-.3,2.2-.2,3.3.1.9.2,2.3-1.2,2,.5,1.3-.4,2.7-.1,4-.6,0-4.3.1-4.8-.2-1.8-1-4.9.9-5.5.9a29.55,29.55,0,0,0-4.3-.2c-1.9-.4-2.8-4.5-3.8-5.9a12.13,12.13,0,0,0-1-1.4c-.7-.9-.4-1.6-.5-2.6-.2-1.8-2.1-2.9-1.8-4.8a5.39,5.39,0,0,0-.8-4.1c-1.1-1.4-1.1-1.9-2.8-1.8a131,131,0,0,1-14,.1c-3.8-.2-8.2.4-11.9-.3-2.7-.3-5.1,4.1-6.9-.4" transform="translate(-5.1 -2.42)" fill="#bbddac" stroke="#fff" stroke-miterlimit="3.97" stroke-width="0.8"/><g id="somalia-somaliland"><title>Somalia</title><path d="M481.8,327.2c0-1.5-.4-3.6.3-5s1.9-2.4,2.7-3.6c1.7-2.4,3.2-6.7,5.8-8.3,2.4-1.4,5.1-.5,7.2-2.7,2.3-2.5,4.6-4.2,8.1-4.7,2.6-.4,7.3,1.5,9.1-.9l23.2-27.5c-2.8,0-5.7.5-8.5-.2-3.1-.8-6.1-2.3-9.1-3.4s-6.2-2.4-9.3-3.5c-2.9-1.1-5.4-1.9-7.6-4.1a4.07,4.07,0,0,0-2-1.4c-1-.3-1.4-1.9-1.9-2.8a19.91,19.91,0,0,0-2.5-3.9c-1.4-1.5-3-3.5-2.4-5.8.7-2.5,2.9-4.7,3.9-7.1,2.6,1.4,4,4.9,5.7,7.1,2.2,2.8,5.5,3.5,8.9,2.4a16.94,16.94,0,0,0,4.1-2.4c2-1.5,2.5-1.2,4.9-.8s3.6.9,5.9-.5c1.2-.7,3.9-3.5,5.4-2.9a5.67,5.67,0,0,0,4.6,0c1.1-.4,2.1-.9,3.2-1.2,1.3-.3,2.1.3,3.4.4,2,.2,3.6-1,5.3-1.7s3.9-.4,5.7-1.3c1.5-.8,1.7-2.8,3-3.4s5.3.5,4.8,2.3c-.6,2.3-1.1,3.8-.6,6.3.3,1.7.8,4.2-.8,5.5,1,.4,1.8.1,1.6-.9a4.59,4.59,0,0,0,1.6.7c-.3,1.7-4.1-.6-4.1,2.3,0,2.4.2,4.8-.5,7.2a20.38,20.38,0,0,1-2.9,5.2c-1.3,2-1.2,4.8-2.8,6.7-.6.7-1.5.9-1.9,1.9s-.1,2-.4,3.1c-.8,2.3-2.5,4.1-3.6,6.3-1.5,2.8-1.7,6-2.9,8.9a46.4,46.4,0,0,1-4.9,8.3c-1.7,2.6-2.8,5.6-4.8,8-2.2,2.7-4.3,5.4-6.5,8.1a61.41,61.41,0,0,1-14.8,13.5,36.12,36.12,0,0,0-6.9,5.3c-2.3,2.4-4.9,4.7-7,7.2l-6.3,7.5c-1,1.2-1.9,2.6-2.8,3.8-.6.8-2.4,3.6-2.7,1.9,0,2.7-1.7,5.2-3.3,7.2.1-2.1-1.9-3.8-3.3-5.9-1.6-2.3-1.4-4-1.4-6.7-.1-8.3.1-16.3.1-24.5" transform="translate(-5.1 -2.42)" fill="#bbddac" stroke="#fff" stroke-miterlimit="3.97" stroke-width="0.8"/></g><path id="guinea-Bissau" d="M11.1,234.5c.7-.5,1.7-.1,2.5-.5a6.74,6.74,0,0,1,2.6-.9c2.1-.1,3.9.5,5.7-1,1.5-1.3,3.4-.9,5.3-.9h8.3c-.2,1.1,1,2.3,0,3.3-.5.5-2,.4-2.2,1.2-.3,1.1,3.7,2,1.7,4.2-1,1.1-2.5.5-3.8.7s-2.6,1.2-3.9,1.5c-2.1.6-1.1,4.4-3.3,5.1-.5-2-.8-2.3-2.6-3.2a5.58,5.58,0,0,1,.5-.8c-1.6,1.2-.1-3.6,2.2-1.9-.5-1.5-1.9-.5-2.7.2-.8-1.4-.9-2.3.8-2.9,1.4-.5,1.9,1,3.2.9a1.12,1.12,0,0,1-.5-1.8,1.63,1.63,0,0,0-1.5.2c-.8.4-1.4-.1-2.2,0s-1.2.7-1.8,1.2-1.7.5-2.6.7c.1-1.4,1.2-1.9,2.2-2.6-1.3-.1-2.4,1.3-3.7,1-2.6-.6-.9-2.8.3-3.7-.5.1-1,.1-1.5.2a6,6,0,0,1-.8.8c-.8.3-1.3-.8-2.2-1" transform="translate(-5.1 -2.42)" fill="#bbddac" stroke="#fff" stroke-miterlimit="3.97" stroke-width="0.8"/><path id="ghana" d="M120.7,290.7c-.5-2.6-.7-4.7.5-7.2,1-2.1.4-2.9,1.2-5,.6-1.6,2.7-3.8,3.3-5.2.9-1.9.2-4.6-.4-6.6a12.15,12.15,0,0,0-.9-2c-.3-.8.2-1.6.2-2.4.1-1.8-.7-3.1-.4-4.8.4-1.9-.4-3.8-.7-5.7-.2-.9-1.1-1.8-.5-2.7a3.46,3.46,0,0,0,.7-2.6c4.5.4,8.6-.3,13.4,0,1,.1,3.8-.2,4,.4.4,1,2.1-.6,3-1.2s3.5-.1,2.9,1c-.9,1.7-1.1,3.5,1.5,5.4,2.1,1.6.9.9,1.3,2.5a2.85,2.85,0,0,1,.2,1.6c-.1.9-.1,2.4-.3,3.5-1.1-.2-.7.6-1.2,1.3.7.1,1.2-.7,1.8-.5.9.3.9,1.6.7,2.3-.4,1.3.5,4.7-1.3,4.4.4,1.1,1.7,1.8,2.4,2.8.8,1.2.1,1.5-.4,2.6-.6,1.3.5,3.1-.2,4.3-.9,1.5-1,2.2.2,3.5.6.6-.1,2.1-.3,2.8-.7,1.7-.8,2.4.1,4.1a12,12,0,0,0,2.8,2.7,20.15,20.15,0,0,1,1.9,1.3c.2.9-1.2,1.3-1.4,2-.3,1-1,1.9-2.2,1.7-.7-.1-.9-1.6-1.3-2-.8-1-2.1-.6-3.2-1,.8.7,2.2.3,3.1.9,1.8,1.3-.9,2.1-1.8,2.3-3.4.6-5.5,2.5-8.3,4.2-1.6,1-3.4.9-5.1,1.6a12.32,12.32,0,0,0-3.1,1.4,9.62,9.62,0,0,1-2.2,1.8,1.58,1.58,0,0,1-2.2-.4c-.9-.9-1.9-1-3-1.4s-2.2-.1-3-1.3c1,0,.5-.2,1.5-.1-.4-1.3,1.1-5.4-1.7-4.7,1.1-1.4-.6-4.2-1.6-5.6" transform="translate(-5.1 -2.42)" fill="#bbddac" stroke="#fff" stroke-miterlimit="3.97" stroke-width="0.8"/><g id="uganda"><title>Uganda</title><path d="M388.4,359.4c.5-1.4.4-3.4.6-4.9.3-1.9.5-3.9.7-5.8.3-2.4,1.7-3.7,1.9-5a17.65,17.65,0,0,1,0-2.3c.2-1.2,1.4-.9,1.9-1.8,1.7-2.6,4.3-4.5,6.6-6.8a11.23,11.23,0,0,0,2.4-3.7c.3-1-1.6-2.1-2.3-2.4s-1.4.6-1.9-.3a4.24,4.24,0,0,1,.1-2.5c.5-2.3-.4-4.2.8-6.4.3-.6-.5-.8-.3-1.4a3.91,3.91,0,0,1,1.4-1.7,2.64,2.64,0,0,1,1.9-.7c.6.1,1.7,1.3,2.3,1.1.8-.3,1.9-1.7,2.7-.7a5,5,0,0,0,2.6,2.1c-.8-1.4,1.5-1.9,2.6-2.1,1.4-.2,2.9-1.3,4.2-1.1,1.8.2,2.4,1.8,4.4.4a21.07,21.07,0,0,0,3.5-3.8c.6.9,1.3,2.1.9,3.2,1.3-.1.4.8,1.6,1.2s1.7.6,1.2,2.2c-.7,2.1,1.4,4.3,2.5,6.8.2.5,1.5,2.1,1.4,2.5-.1.9,1,2.2,1.2,3.1a8.71,8.71,0,0,1-.7,5.2c-.6,1.3-1.7,1.5-1.4,3,.1.8-1.1,1.3-1.7,1.6-1.1.6-1.2,2.1-1.9,3.3-.5.9-1.4,1.3-1.7,2.2a31.33,31.33,0,0,1-1.5,3.2c-.5,0-2.5.6-2.2-1.1-1.2.5-.9.8-1.4.9-1.5.2-1.5-.7-.4-.6-.3-.6-1.3-1.4-1-1.8-.8.3-.3.1-1.5.5l.4.6c-1,.3-.2,1.3-1.5,1.2.2,2-2.8,1-3.2,1-.1,0,.2-1.8-.1-1.5-1.5,3.4-2,1.6-2.3,1.8.1.7-.5.8-1.7.9-.6.8-2,.8-1.9,1.1,1.1,2.8-1.2,3.3-1.6,5.2-.3,1.7.3,1.8.5,2.9-7.7,0,1.7.3-6-.2-2.7-.2-5.8.3-7.3,2.3-.5.7-1.3,2.5-2.2,1.9-.2-.2-.4-1.1-.8-1a8.22,8.22,0,0,0-2.3,1.1c.4-.9,1.4-2.1.5-2.9" transform="translate(-5.1 -2.42)" fill="#bbddac" stroke="#fff" stroke-miterlimit="3.97" stroke-width="0.8"/></g><path id="mozambique" d="M392,487.6c5.9-2.2,11.9-4.4,17.8-6.5,1.3-.5,2.6-1.1,3.9-1.6.4-.2,1.6-.9,2.1-.8l4.5,5c0-1,2.2-.7,3.2-.9s2.2-1.1,2.9-.1c1.3,1.7,1.3,5.8.6,7.7-.9,2.4-2.9,4.6-1.6,7,.3.6.1,1.3.5,1.8s1.1,1,1.5,1.6a16.19,16.19,0,0,0,3.1,3.3c1.1.9,1,1.1.3,2.3s1.7,1.7,1.9,0a6.15,6.15,0,0,0-1.3-4.5c1.5-1.1.7-3.4,2.9-3.8,3-.6,3.3-1.9,3.3-5,0-1.1-.2-2.2-.1-3.3.1-1.8,1-3.8.3-5.5s-2.4-3.4-3.4-5a35.83,35.83,0,0,0-3.1-4.5c-.9-1-.6-.1-1.4-1-.2-.8.2-2.3-.3-3.8-.6-2,.5-3.1.3-4-1.5-5-.6-3.8-.7-4.4.6-1.3,2.5-1.1,2-5.7a11.55,11.55,0,0,0,4.9,0c1.1-.3,2.1-1.6,3.2-.9.8.5,1.2,1.5,2,2a8.35,8.35,0,0,0,3.5.3c1.2-.3,2.1-2.3,3.4-.9,2.5,2.7,5.5-.5,6.7-2.5a2,2,0,0,1,2.9-.5c1.7,1.1,2.1,1.1,3.7-.1,1.4-.9,2.4-1.6,4.2-1.3,1,.2,3-1.7,3.9-2.2a20.64,20.64,0,0,0,5-3.3c2-1.5,3.2,1,1.5,1.8.3.1.5.3.8.4-.8,1-.3,2.1-.8,3.2-.2.6-1.7,1.4-.8,2,.7.5.6,3.3.7,4.3a19.27,19.27,0,0,1,.1,2.4c-.1,1.2-.5.9-.1,2a2.46,2.46,0,0,1-.1,1.2c-.2.7.3,1,.5,1.6a3.6,3.6,0,0,1-.7,3c2.1.3-.6,5,.2,5.3,1.5.5,0,5.4.5,6.5,1.6-1-.2,2.2.2,2.9.1-1.4,1.5-1.1,1.3.2-.3,1.5.1,2.5-1.4,3.3l.9.6c-1.8-.4-.2.2-.8.8-.3.4-.8.5-1,1,1.7-.6.2,2.1,0,2.6-.9,1.8-2.7,2.8-3.5,4.6s-2.3,2.8-3.3,4.5c-.7,1.3-5.8,3-5.6,4.4.1.6-3.8,1.3-4.5,1.8a14.72,14.72,0,0,1-2.2,1c-1.2.4-1-.1-1.9.7-1.3,1.2-3,1.7-4.6,2.5s-3.9,4.4-5.6,3c3.1,3.4-4.5,4.8-3.8,8.3a1,1,0,0,1-1.2-.9c.2,1.2-1,2.8-.8,1.1-1.5,1.3-3.2,2.1-4.4,3.7a30.92,30.92,0,0,1-3.3,3.9c-.5.5-2.6,2.7-3.3,1.8-.5-.6-1.1-2.6-2.2-1.9,1.9-.1,1.2,2.2,1.6,2.8a2.74,2.74,0,0,1,.1,2,.63.63,0,0,1-.6.5,2.2,2.2,0,0,1,.2,1.4c-.2,2.4.6,1.8,1.9,3.4a4.91,4.91,0,0,1,.9,3.1c0,.4-.4,3.8.3,1.7-.5,1.8.7,3.8.9,5.6a13.05,13.05,0,0,1,.3,3.4c-.2.9-.6,2,.4,2.6.2-1.2.1-2.3.9-3.2,0,.4,0,3,.4.8-.2,1.3-.5,2.5-.6,3.8-.1,1.1.7,2.2.6,3.3-.4,3-2.6,5.9-2.1,9.2-.3-1.8,1,.1,1.1-1.5,1.2,2-1.1,4.9-2.3,6.3-2,2.3-5,3.3-7.8,4.3a43.75,43.75,0,0,0-9.1,4.1c-1.3.8-2.6,1.5-3.3,3-.6,1.2-.9,2.6-2.5,2.8,1.1,0,2.7,3.7,3.6,1.5-.2,1.9.8,6.9-1.2,6.8l-4.8-.2c.1-1.6-.9-3.4-.7-4.6a3.71,3.71,0,0,0-1-2.9c-.5-.7-.4-2.3.1-3.6a18.88,18.88,0,0,0,.3-4.1c.1-1.8.1-3.7.2-5.5a21.18,21.18,0,0,0-.5-4.4c-.4-2.4-2-4.3-2.5-6.6-.2-1.1-.1-2.3-.3-3.4-.3-1.6-.6-3.1-1-4.7-.3-1-.7-.7-.2-1.5a30.5,30.5,0,0,0,2.8-3.2c1-1,5.6-7.5,6.9-6.7-1.2-1.6,0-2.5.4-4.1.2-1-.7-2.3.4-3,1.5-.9,1.9-2.1,2.7-3.6a15.39,15.39,0,0,0,.8-1.9,8.1,8.1,0,0,0,.1-3.1c-.3.1-.5.2-.8.3-.6-1.1-1-2.1-.7-2.8s1.2-1.4.9-2.4-1.6-.6-1.2-2c.3-1,2.1-1.2,1.9-2.5-.3-2.2,1.1-1.4,1-2.8-.1-1.2-.8-2.3-.5-3.5a6,6,0,0,0,.5-2.6,14.12,14.12,0,0,1-.2-4.6,4.94,4.94,0,0,0-.5-1.6c-.2-.8.6-2.2.7-3-1.1.3-1.7.3-2.3-.8s-3.8-1.1-4.7-1.6c-2.6-1.5-5.1-3.1-7.9-3.8-.9-.3-3.7-.2-4.7-.4-1.6-.4-.9-2.9-1.1-4.1,0-1.6-1.3-3.1-1.2-4.9" transform="translate(-5.1 -2.42)" fill="#bbddac" stroke="#fff" stroke-miterlimit="3.97" stroke-width="0.8"/><g id="mauritania"><title>Mauritania</title><path d="M11.1,156.2a6.54,6.54,0,0,1,.5-3.9c.2-.4.7-1.4,1.7-1.4H43.2c1.5-.8.5-7.4.4-9.9s-.4-4.2,1.6-6.2c1.7-1.6,1.7-1.2,7.1-3.4L53.5,108l26.6-.3.4-11.9c10.1,6.8,20.1,13.9,29.9,21.2H96.2l5.8,78.1c.5,1.3,1.8,1.8,1.9,2.1.8,2-.2,2.6-.3,4.1-.1,1.8-.3,3.4-.8,3.6h-17c-9.7.3-13.8,1.7-14.7-1.2-.4,2.6-4.2,3-6.1,2.3-3-1.2-4.9-.7-6.1,2.7a19.34,19.34,0,0,0-2.7-3.1c-1.2-1.2-2.4-1.8-3.1-1.5-2.5,1.4,1,8.2-5.1,7.8a8.61,8.61,0,0,1-2.1-2c-.5-1-1.2-.7-2.2-1.6s-1-2.5-2-3.1c-2.5-1.6-1.5-1.7-1.7-2.8-.3-1.4-1.7-3.1-2.4-3.1-3.6-.1-3.9-3-6.3-4.1a7.63,7.63,0,0,0-3.8-.9c-2.5-.1-3.4,2.4-9.1,1.9-1.2-.1-1-.9-2.1-.6s-2.2,3.6-2.6,4.4c0-5.6,3.7-10.1,4.2-15.6a41.18,41.18,0,0,0-.5-9.3,6.57,6.57,0,0,0-.8-3.4c-.6-.9-1.8-1.5-1.9-2.6a1.27,1.27,0,0,0,1.7-1.3,1.8,1.8,0,0,0-1.2,1.2c.2-1.1,1.1-1.9,1.6-2.9.3-.6-.1-1.6.2-2.1,1.7-1.9-.9-5.3-1.5-7.2a3.81,3.81,0,0,0-.5,1.5c-1.7-1.3-1.3-3.9-3-5.2a22.88,22.88,0,0,0-.9,3.1" transform="translate(-5.1 -2.42)" fill="#bbddac" stroke="#fff" stroke-miterlimit="3.97" stroke-width="0.8"/></g><g id="angola"><title>Angola</title><path d="M242.4,508.5c-.1-3.8.9-7.5.5-11.3-.1-.6-.5-1.1-.3-1.7.3-.9,1.3-1.3,1.7-2.2a8.51,8.51,0,0,0,.4-2.2c.1-.7,1-1.5.8-2.1-.5-1.2,1.2-4.5,1.5-5.9.4-2,0-4.1,1.1-5.8.7-1.2.3-3.6,1.1-4.3a14.91,14.91,0,0,0,2.8-3.4c.8-1.5.3-3.9,2.8-4.1,1.7-.2,1.9-1.5,2.7-3a20,20,0,0,0,1.7-13,11.53,11.53,0,0,0-2.2-4.6c-1.1-1.6-1.1-2.8-1.7-4.5-.3-.8-.9-1.3-1-2.2a9.67,9.67,0,0,0-.4-2.9c-.7-1.4-2-3.2,0-4.2a1.82,1.82,0,0,0-.8,1.6,8.55,8.55,0,0,1,1.5-2.2c.5-.5,1.3-.5,1.4-1.3a9.69,9.69,0,0,0-1.2-5.8c-1.1-2.1-1.7-4.2-2.6-6.4a15.94,15.94,0,0,1-.6-3c-.4-1.5-1.8-2.5-2.5-3.7-.6-1-2.8-4.7-.9-5.3a12.66,12.66,0,0,1,2.6-.4c1.2-.2,1.8-1.3,3.2-1.4,6.3-.6,12.7.1,19,0,2.4-.1,4.9-.2,7.3-.2s1.8,1.6,2.8,3.1c.4.6,0,2.4.2,3.2.4,1.5,1.1,2.8,1.6,4.2.4,1.1-.2,2,.7,3a9.23,9.23,0,0,1,1.8,3c.4.8,2,4.4,3.1,4.1a24.17,24.17,0,0,1,4,.1c-.2-.4,3.6-1.5,4.3-1.4a27.45,27.45,0,0,0,6,.7c-.3-1.3.5-2.7.1-4,1.1.2,1.2-.8,1.1-1.7-.2-1.1.7-2.6.3-3.6h6c.6,0,.2-.7.7-.9a8.1,8.1,0,0,1,2.2,0c-.4,2.2-1.6,3.5,1.2,3.5,2.5,0,4.9-.1,7.4-.1,2,0,1.7,2.1,1.2,3.5a10.88,10.88,0,0,0-.7,2.4c-.1,1.3,1,2.6,1.3,3.9.5,2.7-.5,5.7-.7,8.5s.8,4,2.4,6.1c1.2,1.5,1.7,5.4,1.4,7.3-.1.7-.7,1.1-1,1.7-.4,1.2.7,2.3.4,3.5,1,0,1.9-1.4,2.7-1.8s2.8.2,3.6.4c1.4.4,3-1.2,4.5-1.1s3,.9,3.5-.9c.7.9.7,3.9.5,5-.3,1.5-.2,2.9-.6,4.4-.4,1.8.7,3.4.2,5.1s-1.7,3.1-.2,4.8c-3,1.3-7.3.7-10.5.6a43.49,43.49,0,0,0-5.1-.2c-1.4.2-.7,5.5-.8,7.2-.2,4.5.1,7.7-.1,11.1s0,6.9-.1,10.4,2.3,4.5,4.4,7c2.2,2.7,4.3,5.4,7.3,7.3-4.8.9-9.6,1.7-14.3,3-1.9.5-2.6,0-4.4-.2a5.45,5.45,0,0,0-2.2.5c-1.2.4-2.3-.2-3.4-.5-4-1.1-8.3-.7-12.3-1.3-1.7-.3-2.6-1.8-3.5-3.1-.7-1.2-3.1-.7-4.3-.7-10,.5-20.2,0-30.2,0-2.1,0-2.3-.1-4.1-1.5s-3.2-3.1-5.6-2.1c-1.8.8-3.6,2.9-5.6,2-2.9-1.6-3.2-.3-5.1,0" transform="translate(-5.1 -2.42)" fill="#bbddac" stroke="#fff" stroke-miterlimit="3.97" stroke-width="0.8"/></g><path id="angola_x1" data-name="angola x1" d="M244.8,395.1c1.4-1.1,2.9-3.9,4.8-4.2.8-.2.7-1.5,1.6-1.5s1.6,1.6,2.3,2.2a30.19,30.19,0,0,0-4.5,3.5c-.7.7-.5.7-.2,1.5a8.69,8.69,0,0,1,.1,3.6c-.1,1.6-3.1,2.8-3.1.8,0-1.1.6-1.4.2-2.6-.3-.9-1.6-2.5-.5-3.3a.85.85,0,0,0-.7,0" transform="translate(-5.1 -2.42)" fill="#bbddac" stroke="#fff" stroke-miterlimit="3.97" stroke-width="0.8"/><g id="sudan"><title>Sudan</title><path d="M427.5,248.3c.9-1.2,2,1.4,2,2.7.7-.7,2.7-3.4,2.4-4.6a6.54,6.54,0,0,1-.2-3.1c.5-1.8,0-4.4,1.7-5.4s2.2-4.4,3.2-6,2.3-.5,3.8-.7c1-.1.6-3.5.6-4.3,0-2,1.5-3.6,1.8-5.5a26.52,26.52,0,0,0,.4-7.4c-.2-1.9-1.1-4.5-.3-6.4,1-2.3,1.2-4.8,2.2-7.1a15.36,15.36,0,0,0,1.1-3c.2-1.1-.6-1.8-.4-2.9s.8-3,1.8-3.6c.7-.4,2.8-.1,3.1-1.1.5-1.9.3-2.1,2.4-2.9,1.2-.4,3.4-1.5,4.1-2.5.5-.7,1.8-2.6,1.7-3.5-.2-1.4-2.6-1-2.6-2.3-1,.9-3.8-3.8-5.3-4.1-2.6-.4-3.4-5.4-3.5-7.6-.2-3.1-1.1-5.9-.7-9a7.38,7.38,0,0,0-.8-4.1c-.7-1.7.7-2.5,1.1-.9-.1-2.2-2.6-3.6-3.2-5.6-.7-2.5.3-3.4-1.9-5-1.7-1.2-2.8-3.4-4.6-4.3-2-1-3.6-1.9-4.2-4.2-.7.7-2.6,3.6-3.8,3-1.5-.8-2,1.2-2.3,2.1-.6,1.8-1.2,2.8-3.1,3.1s-2.3.8-2.7,2.7c-.9,4.2-5,1-7-.1-1.7-.9-4.7-.3-6.6-.2a31.69,31.69,0,0,1-6.9-.2c.2-.7-.3-3.6-1.3-1.8-1,2-2.8,1.8-4.8,1.8H348.4c.2,6.2.3,12.4.4,18.5h-8.3c.6,13.2.5,26.5.5,39.7-1.3-.4-2.2-.9-3.5-.2-1.1.6-2.1-.1-3.2.5-2.6,1.3.2,3.2-1.5,5.3-1.3,1.6-1.5,3.4-3.4,4.4-1.2.6,0,3.5.7,4.2-2.7,2.2-4.4,2.8-2.4,6.5.7,1.4-.2,2-1.4,2.8s-1.4,2-1.9,3.3c1.1,2.8,3,.1,4.8,1.2,1,.6-.5,1.6,0,2.4.6,1,.1,3.5-.2,4.6.3-.1,1.3-1.4,1.6-1.6.8,1.3-.7,2.9,0,4.2s2.4,1.5,3,2.5c.9,1.4-.9,2.7-.3,4.1a13.22,13.22,0,0,0,2.9,3.7c2,2,3.1,3.4,3.1,6.3l-.7,3.2,6.4-2.6,6.1-10.5,6.1-.8,3.6,7.4,1.9,1.1,3.6-1.1,6.6-.3,2.2,1.6,4.4.5,1.9-3.3h3l.6-3,3.6-1.9,6.6,4.7,3-.3,6.4-7.9,3.3-3.6-2.5-7.4,8.3-2.2v12l6.6,5.2v5.2l4.9,4.3c2-2.2,1.1-7.1,2.3-8.7Z" transform="translate(-5.1 -2.42)" fill="#bbddac" stroke="#fff" stroke-miterlimit="3.97" stroke-width="0.8"/></g><path id="south_Sudan" data-name="south Sudan" d="M425.4,257.4a16.69,16.69,0,0,0-.5,5.9c.2,2.5,1.3,7-2.5,7.4-1.1.1-2.4-.3-3.6-.3-1.8.1-1.1.9-1.4,2.4-.2,1.2-2.5,2.3-.5,3.5,1.3.8,3.1-.1,4.4.7a7.12,7.12,0,0,1,3,3.4,8.72,8.72,0,0,0,2.8,3.5c1.1.8,1.6,2,2.7,2.7,1.4.8,1,2.8,1.7,4.1.8,1.5.9,3.2,1.7,4.8a4.63,4.63,0,0,0,1.3,1.8c.7.4.4,1.3,1,1.9.9-1.2,1.7-.9,2.7-.8,1.2.1.9,1,1.2,1.9s-.3,2.1-.3,3a4,4,0,0,0,1.4,2.7c-3.8,0-8.5-.7-12.3.2-2.3.5-4.3,4.3-5.9,6.1-.3.3-1.4,1.9-2,1.8-.8-.2-1.8.2-2.5-.3s-.9-.7-1.8-.6c-1.3.3-6.8,1-6.3,3.1-1.4-.5-1.6-1-2.5-2.1-.6-.8-1.8.2-2.5.5-1.1.5-1.7-.8-2.6-1-1.5-.3-3.1,1.6-3.5,2.8-.2-1.4-1.4-1.4-2.4-1.2,1.2-2.6-2.9-3.4-4.2-4.9l-1.7-2c-.6-.8-.5-1.6-1.3-2.3-2.5-2.1-2.3,2.3-4.3,2.1s-2.4-2.4-4.3-.6c-1.3,1.3-2.2,1.8-3.8.8a6.2,6.2,0,0,1-1.4-1.4c-.4-.9-1.6-.5-2.1-1.8a4.36,4.36,0,0,0-2.1-2.5c-.8-.5-1.2-1.7-1.8-2.4-.8-1-.4-2.2-.5-3.3-.1-1.7-2.1-2.1-3.2-2.9-1.3-1-3-1.2-3-2.9,0-.7-.9-1-1.3-1.6-.6-.9.5-1.7.2-2.5s-1.6-1.1-2.1-1.8c-.7-.9-.3-1.5-1.5-2.1-2.2-1.3-4.3-2.2-6-4.1-.6-.7.5-1.4.5-2.1,0-1.1-.7-1.3-1.6-1.7s-.9-1.3-1.6-1.9a4.65,4.65,0,0,0-2.4-.9c-1.2-.2-3.8-.1-3.8-1.9,0-.5.8-1.8.4-2.2-1.1-1.1-4.4-.7-5.8-1a4.29,4.29,0,0,0,.6-2.4c-.3.1-.6.3-.9.4-.2-1.3.4-1.5,1.1-2.4l-.1-2,6-3,6.2-10.6,6.1-.8,3.6,7.5,1.9,1.1,3.6-1.1,6.7-.3,2.2,1.7,4.5.6,1.9-3.3H384l.6-3,3.6-1.9,6.7,4.7,3.1-.3,6.4-8,3.3-3.6-2.2-7.7,8.3-2.2V243l6.7,5.2v5.3l1.9,1.1,3,2.8Z" transform="translate(-5.1 -2.42)" fill="#bbddac" stroke="#fff" stroke-miterlimit="3.97" stroke-width="0.8"/><g id="algeria"><title>Algeria</title><path d="M80.4,95.8l.5-11.6c-.5-3.1,4.3-4.2,6-5.7.9-.8,2.3-2.4,3.6-2.3,1.1.1,1.4-1.7,2.9-1.9,2.5-.5,3.7,1.9,5.2-1.3.5-1,2-.6,2.9-.7a18.76,18.76,0,0,0,4.7-1c3-1.1,3.1-4.3,5.7-5.7,1.1-.6,2.4-.6,3.5-1,1.4-.5,2.3-2,3.7-2.3.5-.1,3.3-.3,2.2-1.8-.7-.9-1.9-1.3-.4-2.7-2.2-.6-.2-2.9,1.4-2.7a4.42,4.42,0,0,0,4.8-2.5c1.4-3.8,11.1-.4,13.9-1.1-3.2-1.4,2.3-3.2.6-4.5a15,15,0,0,1-2.4-2c-.8-.9-.4-2.3-1.1-3.4s-.4-2.2-.1-3.4-.6-1.1-.5-2.2.1-2.2.1-3.2c0-1.3-.9-2.4.5-3.5-1.4-.6-.8-1.3-1-2.4-.3-1.4-2.7-1.8-3.2-3.2,2.6,0,3.7-.6,5.8-1.7.9-.5,1.5-.5,2.1-1.5a4.63,4.63,0,0,1,1.8-2.1c.5-.3,1.6-1.1,2.1-.7.7.6,1.6-.4,2.1-.9,1.3-1.1,3,1.7,4.3-.9,1.7-3.5,7.7-5.1,11.1-5.5,2.5-.3,5-1,7.5-.8,1.9.1,3.1-2.2,4.8-1.3.7.4.5.2.8-.3.1-.1,2.8-.1,3.3-.2,2.4-1,4.8-.6,7.4-.7,2.1-.1,2.6.4,4.2,1.6,2.1,1.5,2.8-.7,4.6-1,.6-.1,4.1-.2,3.9-1.3-.4-1.9,2.2-.7,2.9-.3,1.3.9,3.2,1.3,4.5.2.7-.6.3-1.3,1.6-1,1,.2,1.7,1,2.8.9-.9,1.5,1.3,1,2,.8,1.4-.4,2.9,0,4.3-.5.1,1.9-2.3,2.9-3.4,4.1,2.9.6.1,4.7.7,6.5,1,3.2.6,5.7-.1,8.9-.6,2.6-3.5,4.7-5.4,6.4-1.1,1-.6,3.6.1,4.7,1.1,1.8.6,3.8,2.8,4.6,3,1.1,2.1,5,4.6,6.8a21.28,21.28,0,0,1,3.4,2.5c1.3,1.4,1.5,3.8,1.8,5.6.6,3.8,2.4,8,2.4,11.8,0,1-2.2.6-.8,2.5a15.63,15.63,0,0,1,2.9,6.1c1.5,7.6-.7,7.6.4,11.5a7.16,7.16,0,0,1-.1,5c-.8,2-.1,4,.4,6,.7,3.1-.7,3.1-2.9,4.8-2.5,1.9,1.7,5.6,2.7,7.2,2,3.1.8,6.8,3.5,9.7,1,1.1,2.2-.2,3.3-.1,1.4.1,2.9,1.2,4.2,1.6,3,1.1,4,3.6,5.1,6.4.5,1.3,1.1,1.5-.4,2.3-15.2,9.7-30.5,19.4-43.5,32a19.24,19.24,0,0,1-5,4.8c-1.4.8-3.5.9-5.1,1.2-2.1.4-4.3.9-6.4,1.3-1.1.2-10.4,3.4-10,.1.1-1.2,1-1.6.9-2.9,0-.5.1-3.1-.4-3.4a23.1,23.1,0,0,0-5.3-1.5c-.9-.2-2-2.3-2.7-2.2-3.7.9-4.3-2.8-5-3.4s-2.2-.7-2.9-1.3-.1-2.2-.6-3a7.46,7.46,0,0,0-2.7-2.6,40,40,0,0,1-4.9-3.5l-11.7-9.3c-15.1-11.9-30.2-23.7-45.9-34.6-3.8-2.2-7.6-4.7-11.4-7.3" transform="translate(-5.1 -2.42)" fill="#bbddac" stroke="#fff" stroke-miterlimit="3.97" stroke-width="0.8"/></g><g id="niger"><title>Niger</title><path d="M149,215c-1.1-1.3.2-3.8.1-5.3,1.4.5,3,.3,4.5.4,1.7,0,2.1-.8,3.1-2,1.2-1.4,2.6-1,4.3-1.2,2.2-.2,4.4-.4,6.6-.4,1,0,2.1,0,3.1.1,2,.2.1-.6,1.1-.9,1.5-.4,3.5,1.7,4.2-.1.6-1.5,2.4-1.7,3-3.1s.6-2.9,1.4-4.3c1.6-2.9,1.3-6.1,1.4-9.4.2-4.7.2-9.4.1-14.1,0-2.9.2-3.7,3.1-4.4,2.6-.6,5.2-.7,7.8-1.4,3-.7,5-3.7,7.2-5.8,3.1-3,6.1-6.3,9.5-9,7-5.4,14.8-10.4,22.2-15.1,3.5-2.2,6.9-4.7,10.4-7,3.3-2.1,7.7.1,11.2,1a15.35,15.35,0,0,1,7.6,5.2c.9,1,1.2,1.1,2.3.3,1.6-1.1,3.2-1.9,4.9-2.9a102.22,102.22,0,0,1,1.7,12.2c.1,1.6,1.1,2.8,1.9,4.1.5.8.9,1.6,1.3,2.4s-.6,1.4.1,2.2c.9,1,2.4,1.9,2.7,3.2.5,1.7-1.4,3.4-1.6,5.1-.5,5-1.3,10-1.3,15,0,2.2-.2,4.3-.3,6.5-.1,1.7.2,3.9-.4,5.5-.5,1.4-1.9,2.7-2.9,3.8-1.5,1.9-3.1,3.7-4.7,5.6a37.13,37.13,0,0,0-6,10.4,6.21,6.21,0,0,1-1.4,2.5c-.3.4-.9.3-1.1.7-.7,1.4,1,5.2,1.2,6.7-.7,0-1.7-.2-2.3.2s-.6,1-1.4,1.3a12.07,12.07,0,0,0-4.4,2.9c-2.1,2.2-3.3,1.2-5.9.2a22,22,0,0,0-8.8-1.4,9.29,9.29,0,0,0-7.1,2.3,11.18,11.18,0,0,0-1.7,2.1c-.9,1.3-1.5.5-2.8.6-3.1.3-4.5-1.3-7.1-2.3-1.9-.8-4.1-3.4-6.4-2.2-.9.5-1.5,1.2-2.4,1.7-.7.4-1.7-.2-2,.4-1.2,2.6-3.3-.6-3.8-1.7-1.2-2.5-2.9-3.5-5.5-4-1.5-.3-2.6-1.5-4.1-1.6-1.3-.1-1.9,1.3-3.3,1.2-2.6-.1-4.9-.3-6.8,1.9-.6.7-1.3,1-1.3,2a8.12,8.12,0,0,1-1.1,4.3c-1.3,1.8-2.8,3-2.8,5.4,0,.5-.3,5.6-.6,5.4-1.5-.9-4.8-6.6-6.4-6.4-.5.1-.7.7-1.2.8s-1.9.1-2.3.7c-.2.3.7,2.9.1,2.9s-1.8-2.3-2-2.7c-.8-1.4-.2-1.7,1-2.1-.4-.8-.4-1.8-1.2-2.4-1.3-1-2.1,1.1-3.4.8-2.5-.4-6.6-4.4-5.4-7a2.17,2.17,0,0,0,2.2.2c-.4-.3-5.2-3.7-5.4-3.4.4-.7-1.4-2.1-1.7-2.9,0-1.4.3-2.7-1-3.7" transform="translate(-5.1 -2.42)" fill="#bbddac" stroke="#fff" stroke-miterlimit="3.97" stroke-width="0.8"/></g><path id="zambia" d="M325.3,498.5c0-8.8,0-17.6.1-26.3,0-.9-.3-2.9,1-3.2a22.88,22.88,0,0,1,3.7.1c3.9.1,8,.8,11.8-.5-1.2-1.4-.6-2.6,0-4,.7-1.8-.2-3.2-.1-4.9.2-3.3,1.6-7,.2-10.3,1.2,0,1.1,1.4,2.4,1.6s.8,2.4.2,3.2c1.7.4,1.5.3,3.2-.4a15.75,15.75,0,0,1,5.2-1.2,4.59,4.59,0,0,0,.7,4.5c.8.8,2,.3,3,.7a11.07,11.07,0,0,0,4,1.3c2.6,0,4.9,1.7,5.8-1.5,1-3.5,2,.4,3.3,1.5.8.7.7,1.9,1.3,2.8,1,1.4,2,.1,2.9.6,1.3.8,1.8,1.6,3.2,1.6,1.6,0,1.3,2.6,2.3,3.7,1.6,1.5,1.9,2.7,2.8,4.6,1.1,2.4,4.5-2.2,5.8-.7a.82.82,0,0,0,.1,1.5c1.2.5.8-2,.8-2.5.1-3.1.2-6.2.2-9.3a13.64,13.64,0,0,1-1.7.4c-1,.3-.7,1.1-1.1,1.8-.7,1.2-4-1.5-4.7-2.3-2.3-2.3-4.8-4.3-3.5-8.2.7-2.1,1.3-3.9,1.9-5.6.4-1.2-.4-3.3-.3-4.7.2-2.3,1.3-7.1-1.7-8,1-2.6,6.4-4,4.4-7.5,4.5-1,8.5-1.2,13.6-2.4,0,.9-1.1,2-1,2.2.1.5,1.5-.2.8,1,.2.3.7-1.3,2.6.6s2.7.7,2.5-.3c2.2,0,2.8.8,3.7,2.4.4.7.8.4,1.4.2.8-.3,1.1,1,1.7,1.3,1.3.5,3.7.4,4.1,1.9.1.5,1,.3,1.5.5a6.33,6.33,0,0,1,2,.9,1.43,1.43,0,0,1,.2,1.3c-.4,1.3,2.5.8,3.1,2.7.2.6-.3,1-.2,1.6.2.9.9,1.3,1.5,1.8s.8,2.2,1,2.9c.4,1.3-1.1,2.5-2.3,2.9-1.4.4-.6,1.5-.2,2.5.5,1.6-.4,2.5-.5,4.1-.1,2.2-1.1,7.1,1.7,7.9-1.1,1.2-4.7,1.8-4.6,3.9,0,1.4.4,1.9.1,3.4-.4,2.2-1.8,3.5-2.4,5.1-.3.9.7,1.6,1.4,2.1,1,.7,1.5.2,1.8.9-7.6,3.6-15.8,5.7-23.6,8.9-1,.7,1.7,4.2,1.2,6a10.3,10.3,0,0,1-3.5.1c-1.4-.6-3.1.3-4.4.8-1.9.6-4.3,1.8-4.8,4-.2.9.1,2-.4,2.9-.6,1.3-2.3,1.4-3.4,1.9-2,.8-4.7,2.4-5.8,4.3s-5.5,10.3-8.9,8.3a16.27,16.27,0,0,0-2.3-1.1c-1.2-.4-2.3,1.2-3.3.7-.7-.4-1-1.8-1.9-1.5-.2,0-2.6.6-3.7-.5-1.3-1.3-1.9-2.1-3-2.4s-1.9.9-3.9-.3c-1.6-.3-2.8.6-4.4.7-.8.1-2.4.7-2.9.5-2.8-1.1-4.6-4.3-6.6-6.4-1.1-1.2-1.9-2.2-3.1-3.3a6.74,6.74,0,0,1-2-3.8" transform="translate(-5.1 -2.42)" fill="#bbddac" stroke="#fff" stroke-miterlimit="3.97" stroke-width="0.8"/><g id="ethiopia"><title>Ethiopia</title><path d="M415.9,275.6c.2-1.2,1.3-1.9,1.3-3.2,0-2.2,1.5-2.4,3.4-2.1,1.6.3,3,.8,4.2-1,.8-1.2.3-3.4.1-4.8-.3-2.3-.6-4.7.2-6.9.3-.9.8-1.7,1.1-2.5.5-1.3,0-2.1-.1-3.4a5.82,5.82,0,0,1,1.5-3.5c.9-1.1,2.3.2,2.3,1.4.5-.6,2.7-3.9,1.6-4.9-.6-.6.4-2,.6-2.6.4-1.2-.4-2.6.6-3.6,1.7-1.5,2.3-3.5,3.4-5.6.4-.9.7-1.8,1.8-1.8.4,0,2.5.2,2.7-.3.6-1.6.4-3.6.7-5.3a8,8,0,0,1,.9-2.6c.7-1.6.5-3,.9-4.7.6-3.1,1.9-2,4.3-2,.9,0,1.1-1.9,2.4-1.1,1,.6,1.5,1.9,2.2,2.8a51.31,51.31,0,0,0,2.5-7.2,4.39,4.39,0,0,0,1.4,1.6c.7.4,1.4.1,1.8.9.8,1.6,1.8,1.8,3.4,1.5a3.25,3.25,0,0,0,1.7-.7c.3-.3.5-1.2.8-1.3.6-.2,1.5,1.8,1.6,2.2,1.6-2,4.2.3,5.9-.1,2.2-.6,4.5,1.8,6.4,2.6,2.5,1.1,3.3,4.4,5.3,6,1.2,1,2.9,1.8,3.6,3.3.7,1.3,1,2.5,2.3,3.4,2.1,1.6,3,2.9,1.6,5.3-1.6,2.9-3.9,4.5-3.4,8.1.3,1.8-.4,3.9,2.1,3.7a21.09,21.09,0,0,0,4.3-1.2c1.2-.3,1.6.7,2.7.4-.1,1.8-2.2,3.4-1.2,5.5,1.2,2.6,2.3,3.2,3.9,5.5.5.8,1.5,3.3,2.1,4s1.1.5,1.8,1c1.1.9,2.7,2.7,4.1,3.2,5.5,2,10.4,4,15.8,6a53.89,53.89,0,0,0,7.3,2.7c2.5.6,5.7.2,8.2.2l-22.9,27.2c-1.4,1.6-2.5,1.8-4.5,1.5-3.3-.4-7.8-.6-12.1,3.3-1.1,1-1.5,2.3-3.2,2.6-1.5.3-3.1.2-4.5,1s-1.4,2.2-3.4,1.8c-1.7-.4-4,1-5.5-.6-.6-.7-1.1-1.8-2.2-1.9a7.48,7.48,0,0,0-3.2,1c-1.4.6-3.6,1.8-4.5,3.1s-1.6,2.4-2.3,3.5c-1-1-3.4-1.1-4.7-1-1,.1-1.8-.7-2.7-.9a15.14,15.14,0,0,0-3,.2c-3.9-.4-.6-.9-11-7.1-1.8-1.1-4.3.1-6.5-.6a9.21,9.21,0,0,1-3-3.2c-.6-1.3.4-2.9,0-4.3s-2.9-2-3.8-.9a17.77,17.77,0,0,1-1.7-2.7c-1-1.5-1.4-3.6-2-5.3a26.19,26.19,0,0,0-1.5-3.9,2,2,0,0,0-1.2-1c-.6-.3-.6-.9-1.1-1.3a2.51,2.51,0,0,0-.7-.4c-.8-.2-.9-1.1-1.4-1.8-1-1.4-1.7-3-3-4.1a6.52,6.52,0,0,0-3.4-1.5c-.9-.4-2.5-.4-3.1-1.6" transform="translate(-5.1 -2.42)" fill="#bbddac" stroke="#fff" stroke-miterlimit="3.97" stroke-width="0.8"/></g><path id="western_Sahara" data-name="western Sahara" d="M11.1,156.2c-1.3-2.2.6-6,1-8.3a14.05,14.05,0,0,1,1.5-4.5c1-1.7,2.9-1.7,3.5-3.8.3-1.1.3-2.7,1.4-3.4.6-.4.2-1.6.7-2.3.8-1.1,3.8-4.9,2.9-6.3a5,5,0,0,0-1.4,1.5c1.3-2.9,4.7-5.1,6.9-7.3,2.9-3,2.4-6.1,3.8-9.8,1.2-3,2.1-6.3,5-8,3.2-1.8,5-3.3,6.3-6.9.9-2.3,2.5-5.5,1.9-4.8L80.5,92,80,107.6l-26.5.4-1.2,23.4c-1.6,1.1-3.8,1.3-5.5,2.3-2.5,1.5-3.5,3.2-3.3,6.1.1,1.7,1.4,10.6-.4,11.1H13.5c-2.3,0-2.6,3.7-2.4,5.3" transform="translate(-5.1 -2.42)" fill="#bbddac" stroke="#fff" stroke-miterlimit="3.97" stroke-width="0.8"/><g id="chad"><title>Chad</title><path d="M256.3,215.1c.3-.7,1-.6,1.4-1.1s.4-1.2.9-1.6c.7-.5.8-2.3,1-3.1,1.5-4,4.9-7.6,7.6-10.8,2.5-2.9,5.3-5.4,5.5-9.3.2-4.9.3-9.9.7-14.8.3-3.8.1-8.8,2-12.2,1.1-1.9.4-2.9-.9-4.4l-1.2-1.2c-.7-.7.2-1.4-.1-2.2-.7-1.8-2.1-3.1-2.9-4.8-.7-1.4-.2-3.1-.4-4.7-.3-2.5-1-4.9-1.4-7.4,0-.3-.5-1.3-.1-1.5l8.8-4.2L341,167.9l.7,35.3c-2.1-.7-2.3-.4-4.5,0-1.5.2-3.4,0-3.8,1.4-.3,1,.6,2.9-.1,3.9s-1.7,4-3.2,4.5-1,3.4.2,4.6c-2.7,2.1-4.4,3.5-2.3,6.5,1.4,2-1.9,2.9-2.8,4.6-.6,1.2-.9,1.6.1,2.5.8.8,2.2-.1,3,0,1.1,0,2,.5,1.3,1.4-1,1.2,1,2.7.2,4.8a5.94,5.94,0,0,0,.8-.4c.6,1-.1,2.1-.1,3.2s.2,1.2.9,2,2.3.3,2.4,2.4c0,.9-.8,2.6-.6,3.6a3.79,3.79,0,0,0-3.7-1,5.44,5.44,0,0,0-1.8,1.1c-.5.7-.6.3-1.1.8-.8.9-2.9.7-3.2,2.2-.1.6.4,1.1.2,1.7-.7,2.1-2.5,3-4.1,4.3-1.2,1.1-1.8,2.7-2.9,3.9-1.9,2.1-3.3,2.6-6,3.6a23.48,23.48,0,0,1-7,.7c-.6-.1-4,.7-2.7,1.7.5.4,1.9.7,1.6,1.6a10.33,10.33,0,0,1-2.5,3.4c-.7.6-1.2,2.1-2.1,2.3-1.6.4-3.5.1-5.1.2a11,11,0,0,0-5.6,1.9c-1,.6-2.9,1.2-3.4,2.4-.7-1-1.7-1.8-2.1-3.1-.7.2-1,1.1-1.3,1.7-.2.4-1.5.5-2,.7-2.2,1-3,.8-5.3.8,1.2-1.6-.1-2.1-.6-3.6-.6-2-1.1-4.2-2.4-5.9a26.41,26.41,0,0,0-4-3.5c-1.4-1.1-2.1-2.5-3.3-3.8-.8-.9-2.7-2.6-1.8-3.9s1.4-2.3,3.1-2.2c1.9.1,3.8.9,5.7.2a3.1,3.1,0,0,1,2.3.4c.7.3,1.7-.4,2.3-.6-3.8-2.1-5.6-7.3-5.4-11.4a19.8,19.8,0,0,1,.6-2.6,13.2,13.2,0,0,0-.2-2.8,5.24,5.24,0,0,0-.3-2.5c-.3-.5-1.2-.1-1.2-1a15.87,15.87,0,0,0-.6-3.7c-.2-.8-1.3-.9-1.8-1.2-1.8-1.1.5-2.8-3-3.3-.8-.1-.6.5-1.5-.2a44.28,44.28,0,0,1-3.4-5.2c-1-2.3-.8-4.9-1.3-7.2" transform="translate(-5.1 -2.42)" fill="#bbddac" stroke="#fff" stroke-miterlimit="3.97" stroke-width="0.8"/></g><path id="guinea" d="M24.7,247c1.1-1.3,1-3.5,2.3-4.6.9-.8,2.7-.9,3.8-1.5s2.2.1,3.3-.5a2.19,2.19,0,0,0,1.3-2c-.2-1.3-2.5-1.8-2.1-2.8s2.2-.6,2.4-1.6-.5-2.5-.2-2.8h3.9c.6.1,1.2.6,1.6.6s-.4,1.8.8,1.1c.8-.5,2.5.6,2.9,1a16.19,16.19,0,0,1,1.7.6c1.1-.1,1.9-1,3.2-.8,1.8.2,3.6-.6,4.8,0-.6,1.2-1.5,2.2.1,3.6,1,.8,2.4-2.3,3.5-1.8,2.7,1,.9,4.2,3.3,1.6,3-3.4,4.8.5,6,.2.7-.2,1.1-.8,1.7-1.3s1.7-.5,2-.9c.5-.8-1.4-2.6,1.2-1.9.6.1,1.9.8,1.8,1.8a6.65,6.65,0,0,0,.7,2.4c1.2,1.2-.2,4.3,1.3,3.4.2,1.5,3.1,1.6,2.8,3.4-.7,0-1,0-1.4.5a6.2,6.2,0,0,0-1.2,2.6c.8-.1,1.3-.8,2.2-.9,1.5-.2,1,1.7,1,2.8,0,.8-.4,2.1,1.1,2.9a3.65,3.65,0,0,1,1.7,1.6c.3.9-.7,1.4-1.4,1.9-.5.4-.5,1.9-.5,2.7,0,1.3.5,4.4,2.4,3.2-.4,2.1-.2,1.8,1,3.2-1.4.2-1.5,1.4-1.9,2.5,2.2.4,2,2.2,2.5,3.9-1.1-.4-4.4-1.7-4.9-.6-.5,1.4,1.6,2.9,2.3,3.9-.8-.4-1.4,1.1-1.4,1.2.2.9.5.6.3,1.1s-1.1,1.9-1.1,2c-.2-.2-1.4-.8-2-.2-.3.3.1-.6-.9-1.1s-1.3,1.8-1.6,2.3c-.7,1.4-1.2,1.7-2.8,2.4-.1-1.8-1.6-2.1-3-1.5a11.49,11.49,0,0,0,.7-3.6c0-.5-.1-3.1-.3-2.8s-.3.7-.3-.9c0-.2-.6-1.1,0-1.8-2.5-2.8-2.7-1.3-3-1.5-.8.7-1.1.2-2.2.1a3.72,3.72,0,0,0-2.3.5,13,13,0,0,0-2.3,1.5c-.2-1.6,2-3.6,1.6-4-1.4-1.8.7-2.4-1.4-3.8-.6-.4.2-1.1-.1-1.7-2.3-4.1-3.1-7.4-8.2-6.6a19.85,19.85,0,0,0-2.9.9c-2.1.5-2.8-.6-3.7,1.5-.7,1.7-1.3,3.6-2.4,4-.9.4-1,.8-1.4,1.7-.5,1.1-1.8.2-2.6.9a1.16,1.16,0,0,1,1.1-1.3,5.55,5.55,0,0,0-.6-.8,2.18,2.18,0,0,0-.5.8,7.57,7.57,0,0,1-.1-1.5c-.3,0-.6.1-.8.1.2-1-1.1-1.1-.5-2.1-1.4,1.4-.7-2.3-1.2-2.6.1.6-.3.8-.8.7a8.45,8.45,0,0,0,.5-1.7c-.3,1.1-1.1.7-1.8.2-1-.7-.5-1.2-.8-2.2a1.72,1.72,0,0,0-1.1,1.1c-.1-1.9-4.2-1.8-3.1-4.2a4.25,4.25,0,0,1-1.1.2,22.38,22.38,0,0,0,1.4-3.6,5.72,5.72,0,0,0-1.1,1.6c-.1-1.3-.6-.6-1,0-.2-.8-.3-2.6.8-3a10.54,10.54,0,0,1-3,.3" transform="translate(-5.1 -2.42)" fill="#bbddac" stroke="#fff" stroke-miterlimit="3.97" stroke-width="0.8"/><path id="nigeria" d="M168.5,275.5c1-3.3-.4-7.3,1-10.5.4-.8,1.7-.1,2.4-.8,1.1-1.3.1-2.8,1.2-4.1.7-.8.7-2.2,1.6-2.7s2.4-1.7,1.9-3.1c-.4-1-.8-1.9.6-2.2,2-.4.4-3.2.2-4s.1-1.6-.4-2.4-1-1.3-1.4-2c-.8-1.5.3-2.7.8-4.1.5-1.7.2-3.4.3-5.1.1-2.1.7-2.5,2.1-3.9a6.47,6.47,0,0,0,1.7-4.8c0-1.4,1-2.3,2-3.2a7.06,7.06,0,0,1,4.2-1.4c2-.1,3.1-.8,4.9-1.3,1.1-.3,2.5,1,3.4,1.4,1.5.8,3.1.3,4.5,1.6,1.2,1.1,1.7,2.5,2.5,3.9a2.74,2.74,0,0,0,1.3,1.3c1.3.4,1.5-1,2.5-1.1,3.4-.4,4.5-3.4,8-.9a4,4,0,0,1,1.3,1.3c.2.3,1.1.1,1.3.3,1.5.8,2.1,1.9,4,2,1.1,0,3.4.7,4.4.2,1.4-.6,1.8-2.4,3-3.3,2.8-2.1,7.1-2.3,10.5-2a11.7,11.7,0,0,1,4.9,1.5c1.3.7,3,1.7,4.5,1.1s2.3-2.2,3.5-3.2a3.72,3.72,0,0,1,2.2-1c1.3-.1.4-.3,1.1-.8,2.8-1.9,3.7.8,4.7,2.7.9,1.6,2.6,1.7,2.2,6.2a5.85,5.85,0,0,0,1.2,2.8c.5.4,1,0,1.6.3,3.5,1.3.3,4.7,1.4,6.3,1.3,2.1-3,3.7-4.5,3.5-2.4-.2-3.2,4.9-3.8,6.7a29.88,29.88,0,0,1-.9,3.2c-.4,1.2-1.7,1-1.7,2.3s.3,2.7-.7,3.8a8.8,8.8,0,0,1-2.9,1.8c1.2.2,0,3.2-.1,3.9a3.31,3.31,0,0,1-3.4,3.1c.2,1-.6,1.2-1.1,1.9-.7.8-.1,2-.3,2.9a15.11,15.11,0,0,1-2.9,6.3c-1.2,1.6,1,2.5-1.7,4.3-1.2.8-.5,1.6-.9,2.6-.3.7-1.2,1.4-1.6,2.1s-1.5.3-2,.1-.5-2-.5-2.6-2.2-1.2-2.5-1.9c-.5-1.1-1-.8-1.3-2.1-.2.8-.3,2.2-1.3,2.5-1.3.3-1.9-1.1-2.9-.8-1.9.6-2.3,3.6-3.5,4.4-1.6,1.1-6.7,6.3-6,7,1.1,1.1-.9,4-.9,4.8,0,1.4-.5,2.5-2.2,5.1-.7-.2-1.3-1.1-1-1.7-.7.5-1.2-.2-1.5-.8.7,2.5,1.3,3.1-1.6,3.5-1.2.2-5,.9-3.9-1.5-.5,1-.5,1.2-1.7,1.2s-1.1-.4-2.3-1.2c.6.4,1.3,2.6-.1,2.1-.9-.4.4-2.6-1.2-1.8a3.31,3.31,0,0,1,.5,2.9c-.8-.3-1.6-3.1-1.4-3.9-.9.8.6,3,.1,4-.6,1.5-.6-2-.6-2.3-.1.4-.4,2.8-.5.7a2.9,2.9,0,0,1-.5,1.8,2.46,2.46,0,0,0-.5-1.5c.3.7.3,1.7-.7,1.6-1.8-.2-1.3.3-1.8-1.5,0,1.6-1.3,3.1-1.5.7,0,1.5-.4.5-1.5,0a5.29,5.29,0,0,1-2.4-2.7c-.5-1-1.2-2.1-.9-3.2.2-.8.3-1.5-.8-1.2-.2-.8-.1-1.3.7-1.5,1.7-.3.1-.9,1.3-1.7-.9.1-1.7,1.3-2.5,1.1-2.8-.6,1-1.6,1.7-1.7a1,1,0,0,0-1.5-.2,3.4,3.4,0,0,1,.1-1c-.2,1-1.4,1.7-1.9.5s.9-1.6,1.5-2.2a8,8,0,0,0-1.9,1.3c-1.1-2.4-3.4-5.1-6-5.7a14.28,14.28,0,0,0-4.1-.4c-1,.1-2.5.5-3.4-.2a3.79,3.79,0,0,0,3.4-1.5c-1.1-.1-2,1.3-3.1.4a1.57,1.57,0,0,0-.3,1.6c-1.8.2-3.7-.1-5.6.3-.1-1.2.6-2.2.6-3.3s-.5-2-.2-3.3c.6-2,.7-5.8-.5-7.6" transform="translate(-5.1 -2.42)" fill="#bbddac" stroke="#fff" stroke-miterlimit="3.97" stroke-width="0.8"/><path id="tunisia" d="M209,33.1c.2-.9,1-1.3,1.7-1.8,1-.8,1.1-1.5,2.2-2.3a6.25,6.25,0,0,0,1.9-3.1c.7-2.3.5-4.1.6-6.3.1-1.4-.8-2.6-.6-4,.2-1.6,2-4.6-.6-5.1.9-1,2.4-1.6,3.1-2.8.3-.5.1-1.2.7-1.4s1.1,0,1.7-.6a8,8,0,0,1,4.1-2.3c.8-.2,1.9-.8,2.7-.5,1,.4,0,.9.1,1.6.8,0,1-.4.5-1.1,1.5.3,1.9.1,2.5,1.5.3.6-.6.7.2,1.2a1,1,0,0,1,.1,1.7s.7.7,1.4.4a10.39,10.39,0,0,0,2.4-1.7c.3-.2,1.3-1.3,1.7-1.1,1.1.5,1,1.6.5,2.5-1,1.7-4.2,3.4-4.4,5.4a4.52,4.52,0,0,0,2.1,4c2,1.1,2,1.1,2.4,3.5.6,2.9-1.4,6-3.7,7.8s-5.7,2.8-3.4,6.2a3.89,3.89,0,0,0,2,1.8c.9.4,1.3-.2,2.2,0,.3,0,.5,1.4.6,1.7.4.7,1.6-1.4,2.2-1.1.9.3.3,1,.5,1.6.4.8,1.6,1.6.3,1.7.7.7,2.2-.1,2.8.8.5.7-.4,3.5-.2,4.5.3,1.6,1.4,2.2-.3,3.2s-5.1,2.1-6.1,3.5c-.6.5-.4,1.8-1.2,2.1-1.7.7-3.3,1.3-2.6,3.8.5,2.1,1.3,3.7.1,5.7a9.2,9.2,0,0,1-5.1,4.4c-.6-3.9-1.7-7.6-2.5-11.4-.8-4-1.2-6.3-4.5-8.1a4.94,4.94,0,0,1-2.7-3.7,4.68,4.68,0,0,0-2.4-3.4,3.76,3.76,0,0,1-1.8-1.5c-.5-.7-.3-1.8-.8-2.5-.5-1.5-1-3.2-.4-4.8" transform="translate(-5.1 -2.42)" fill="#bbddac" stroke="#fff" stroke-miterlimit="3.97" stroke-width="0.8"/><path id="tunisia_Island" data-name="tunisia Island" d="M235,37c-.1-1-.8-.2-1.1-.7-.6-1.2,0-1.6,1-1.6,2.3,0,.9,1.4.1,2.3" transform="translate(-5.1 -2.42)" fill="#bbddac" stroke="#fff" stroke-miterlimit="3.97" stroke-width="0.48"/><g id="namibia"><title>Namibia</title><path d="M242.4,508.5c1.1-.2,2-1.2,3.2-1,1,.2,2,1,3.1.8,2.3-.4,3.8-3.1,6.4-2.4,2.1.6,3.2,2.9,5.2,3.6,1.2.4,4.8.2,6.7.3,8.8.1,17.6.3,26.4-.1,2.3-.1,3.1-.3,4.2,1.8,1.4,2.6,3.5,2,6,2.3,3.3.4,6.8.2,9.9,1.3a3.49,3.49,0,0,0,3.3-.1c.9-.6,1.8-.4,3.1,0a6.23,6.23,0,0,0,3.1-.1c5.5-1.3,11.7-2.6,17.5-3.7a13.5,13.5,0,0,1,3.4-.6c.7.1,1.7.8,2.4.4,2.2-1.1,3.2,1.2,4.6,2.2-1.1-.3-2.3.3-3.3.7-1.2.5-1.6,2.3-2.8,1.2-1.9-1.8-5.7,4-7.1,4.7-.7-1.3-1.4-4.3-3.4-4.5-2.5-.2-5.7,1-8.1,1.6-2.9.6-6.3.7-9.2,1.3l-1.1,34.2-7.3-.1L307,610.5c.2,2.7-2.1,1.5-3.4,2.7-.6.6-.6,1.2-1.8,1.6-.9.3-1.3.7-.6,1.4-1.9.6-1.8-.2-3.6-.4s-3.5.7-5.7.3c-3.5-.8-5.6-2.1-5.8-2.7-.4-1.8,0-1.1,0-2.5-.1-.6-.7-.4-1.1-.9-.6-.6-1.1-2-1.8-1.6-2,1.3-1.5,3.2-2.2,3.8-1,.8-2.3,1.8-3.3.5-1.4-1.8-3.3-3.2-4.5-5s-2-3.5-2.9-5.2a10.1,10.1,0,0,1-.7-3c-.2-1.1-.9-1.6-1.1-2.6-.4-1.8.4-2.4-.9-4-.5-.6-.3-1.1-.3-1.9a25,25,0,0,0-.6-3.8,13.33,13.33,0,0,0-.3-2.8c-.4-1.3.3-2.5,0-3.8-.4-2.2-1.5-4.2-2.3-6.3-.9-2.4-.2-4.4-.5-6.8a27.09,27.09,0,0,1-.3-4.5c.1-.4,1.1-4.3.6-4.2a11.78,11.78,0,0,0-2.4-5.9,25.14,25.14,0,0,1-2-2.9c-.5-.9-.6-2.1-1.3-3-3.2-4-3.8-8.8-6.2-13.1-2.1-4-2.9-9.4-6.3-12.5-3.2-3.3-3.6-8.2-3.3-12.9" transform="translate(-5.1 -2.42)" fill="#bbddac" stroke="#fff" stroke-miterlimit="3.97" stroke-width="0.8"/></g><g id="south-africa"><title>South Africa</title><path d="M279.5,613.4c.8-.8,2-.6,2.2-1.8.1-1,.8-2.8,1.9-3.1,1.4-.5,1.2,1.5,2.2,1.8,1.7.5,0,2.1.8,3.1,1.4,1.8,3.6,1.9,5.7,2.6,1.9.6,3.4-.2,5.3-.2,1.7,0,2.3,1,4,.5-1-1.2.2-1.4.9-1.6,1-.4,1-1.6,2.2-2,.8-.2,2.4-.3,2.5-1.4l.7-33.3c.9,1.3,2.5,1.9,3.3,3.2a24.69,24.69,0,0,1,2.2,5.3c.6,1.7,1.2,3.6.4,5.3-1.1,2.3-1.8,3.5-.8,6,1.8-2.1,6.4,1.1,8.4-.8.3-.3.1-1.1.6-1.3s1,0,1.5-.3c1.4-.8,1.7-2.6,3.1-3.5a5.46,5.46,0,0,0,3-3.9c.3-1.6.3-3,1.6-4.2a3.5,3.5,0,0,1,4.1-.6c1.2.5,2.9,3.1,4,3,2.5-.1,5.5,3,7.9,1.1,1.1-.8,2.7.3,4-.7s2-2.8,2.6-4.5a25.82,25.82,0,0,0,.8-2.6c.2-1.5-.5-1.4,1-1.8.9-.2,3.4-.7,3.9-1.5.8-1.5,2.5-2.1,3.2-3.6.8-1.7.4-3.4,1.6-5,1-1.3,2.1-1.5,3.3-2.4a18.75,18.75,0,0,0,3.9-3.5c.8-1.1,1.4-2.7,2.7-3.3s2.8-.7,4.1-1.2,1.2-1,1.9-2c.5-.8,2-1.1,2.8-1.3,3.6-.7,5.8,1.6,9.2,1.6,3.1,0,5.9-1.2,6.9,2.6a23.93,23.93,0,0,1,1.1,6.5c.1,2,1.3,3.7,2,5.5,1.6,3.9,1.2,7.5,1,11.6a17.79,17.79,0,0,1-.6,5.1c-.3.8-.4.8-.1,3.1a4.63,4.63,0,0,0-2-1.5,8.61,8.61,0,0,0-2.7-.2c-.7,1.3-1.7,1.1-2.5,2.7-.9,2-1.8,5.2-2.1,4.9,1.5,1.4,2,2.5,3,3.5,1.5,1.7,3.7,2.7,5.4,1,.5-.5-.2-.7,1.4-3h1.4l4.9.2c-.9,4.1-2.1,7.6-3.2,11.7-.6,2.1-1.7,6.3-4.5,6.1.5,1-.9,1-1.5,1.1-.8.2-1.4,1.1-1.9,1.7a20.33,20.33,0,0,0-4.3,6.6c-.4,1.4-1.7,2.2-2.3,3.5-1.1,1.9-2.2,3.8-3.4,5.5a35.16,35.16,0,0,1-7.6,7.8c-2.5,2.1-4,5-6.4,7.1-3.2,2.6-6.3,5.3-9.5,7.8-2.6,1.9-5.5,4.3-8.8,4.7-1.6.2-3.2-.7-4.7-.2-1.1.3-2.7,1.7-1.2,2.7-1.9.8-3.9-1.5-5.7-.3-2,1.4-2.5,2.2-5.3,1.2-2.1-.8-4.8-1.6-7-.8-1,.4-.5,1-2,.5-.9-.3-2.4.2-2.9-.8v.4c-2.3-.4-5.9.7-7,2.8-1,1.8-6.1-.1-7.7.6-1,.4-2,.1-2.9.6a24.42,24.42,0,0,0-3.3,2.3c-1.2.9-.7.8-2.1.4-.6-.2-1.3.2-1.8-.3a7.18,7.18,0,0,0-2-1.4c1.4-1.9-2.9-2-3.9-2.2.6-1.5,0-2.8-1.8-2.5-1.2.2-.8,1.7-.7,2.5-2.2-.9-.5-3.5-.2-4.8a4.81,4.81,0,0,0-1-3.3c-.3-.5-3.1-4.3-1.3-2.6-.8-.8-.4-1.6-1.6-1.6-1,0,.1-2.4.2-2.8,2.5,1.5,3.1-1.4,3.2-3.3a15.6,15.6,0,0,0-2.5-8.9,56.21,56.21,0,0,1-6.2-13.1c-.7-2.2-1.1-4.5-1.9-6.6-1-1.9-2.9-3.8-3.1-6.2" transform="translate(-5.1 -2.42)" fill="#bbddac" stroke="#fff" stroke-miterlimit="3.97" stroke-width="0.8"/></g><g id="egypt"><title>Egypt</title><path d="M344.4,70.7c-1.5-2.4,1.6-5,1.2-7.5-.4-2.7-2.9-4.6,1-7.8.1,2,2.4,1.3,3.6.9,2.2-.6,3.9.1,6.1.3a40.19,40.19,0,0,1,6.9,1.4c1,.3,1.1,1.3,2.1,1.6a4.89,4.89,0,0,0,2.4.1c.6-.1.8.8,1.5,1a15,15,0,0,0,2.2.2c2.3.2,3.9,1.7,6,2s4.1-1.1,5.6-2.3c.8-.7,1.5-1.4,2.2-2.1.6.5,1.1,1,1.9.8-.4-.2-.3-.3-.9-.3a3.09,3.09,0,0,0,1.7-2c1.3.8,2.5-.6,3.9-.6a7.76,7.76,0,0,0-2.4,1.6c.2-.1,5.5-1.7,3-1.9,1.9-.6,3.1,1.5,4.9,1.3.9-.1,1.7-1,2.6-.7s1.3,1.5,2,2c-.8-.5-1.5-1.7-2.5-1.8.3.8-.8,2.3.5,2.6s.8.7,1.7,1.5c0-.3,2.5-1.4.7-2.2,1.9.5,2.6,2.2,4.9,2,.7-.1,2.9-1.4,2.5.2,1.4-.9,3-.4,4.5-.8a8.72,8.72,0,0,0,3.7-1.9l6.5,17.2c-1.6,2.1-1.3,6-2.3,8.4a8.65,8.65,0,0,0-.6,3.9c0,1.3-1.7,2.6-1.2,3.9-.8-.7-1.9-1.1-2.7-1.7a12.9,12.9,0,0,1-2.7-3c-1-1.4-3.8-2.3-3.4-4.4s-1.6-3.6-2.7-5.1a19.34,19.34,0,0,1-3-6.9c-1,1-2,3.3-1,4.5,1.7,2,1.5,4.5,3,6.6a44.64,44.64,0,0,0,4.1,5.6c.7.7,1.5,1.3,2.1,2,.3.4,1.7,2.6.1,1.4,1.3,1,.2,2.4,1.1,3.2a11.39,11.39,0,0,1,2.3,3.8,21.16,21.16,0,0,0,1.2,2c.3.5-.3,1.1-.3,1.6s1,1.6,1.3,2.1c.7,1.3,1.4,2.5,2,3.7,2.2,4.1,4.3,8.2,6.4,12.4a41.46,41.46,0,0,0,3,4.3c.9,1.4,2.6,1.8,3.4,3.2a5.19,5.19,0,0,1-2.4-.5c-.5,2.2-.3,5.7.9,7s-1.4,3.8-3,3.9c-.8,0-1-.5-1.8.3a8.25,8.25,0,0,0-1.2,2.7,2.58,2.58,0,0,1-1.9,2.1c-.9.2-2.5,0-3,1-.9,1.9-.3,4-3,3.8-3.1-.2-4.6-2.7-6.2-2.7-5.3.2-8.4.7-12.5,0,.1-.4.6-1.3.3-1.7-.8-1.1-1.3.9-1.6,1.2-1,1.4-6,.6-7.6.6l-42.9-.1-1.5-58c-.2-2.7-.1-5.6-.5-8.2-.6-2.2-1.2-5.6-2.2-7.7" transform="translate(-5.1 -2.42)" fill="#bbddac" stroke="#fff" stroke-miterlimit="3.97" stroke-width="0.8"/></g><path id="tanzania_Island_2" data-name="tanzania Island 2" d="M466.8,404.4a5.13,5.13,0,0,0,2.1,3.9c1.1.9,1.4-3.7-.3-2.3a6.85,6.85,0,0,0-.7-4.2c-.3.9-1.4,1.7-1.1,2.6" transform="translate(-5.1 -2.42)" fill="#bbddac" stroke="#fff" stroke-miterlimit="3.97" stroke-width="0.48"/><path id="tanzania_Island_3" data-name="tanzania Island 3" d="M470.2,422.7c.8-.7,2.2-1.2,1.7-2.6-.5,1.1-1.9,1.2-1.7,2.6" transform="translate(-5.1 -2.42)" fill="#bbddac" stroke="#fff" stroke-miterlimit="3.97" stroke-width="0.48"/><path id="tanzania_Island_1" data-name="tanzania Island 1" d="M470.8,394.9c.1,1,1,1.8-.2,1.9.3.2.5.3.8.5-1.6.9-.2,2.3.5.8.8-1.7.6-3.4-1-4.1a3.44,3.44,0,0,0-.1.9" transform="translate(-5.1 -2.42)" fill="#bbddac" stroke="#fff" stroke-miterlimit="3.97" stroke-width="0.48"/><g id="tanzania"><title>Tanzania</title><path d="M389.7,398.7c.6-4.5.8-1.4-1.1-5.4-.4-.8.5-2.2.1-3.5a4,4,0,0,0,3.4-1.7c1-1.1,2.6-2.6,3.5-3.8.7-.9-.8-1.7-.5-2.4s1.9-.1,1.6-1.1c-.2-.6,1.3-1.5,1.7-1.8.9-.9-.4-1.9.4-2.8-2.5.7-4-.8-2.6-3-1.3.1-.4-.9.1-1.6.6-1,1.8-.6,2.4-1.6,1-1.9-.5-5.3-1.4-7.1-.6-1.3-2.7-4.2-.7-4.8,2.4-.8,7.8-.2,10.4-.1,1.1,4.1-.8,4.1-.7,4.6.5,1.6-.9,3.6-.9,3.9.8,1.1-.1,2.2.1,2.8.6,2,1.1.4,1.3,5.2.1-1,.9-1.6,1.5-.5-.2-2,0-2.2,1.2-2-.9-.5-.3-1.6,1.1-2.4.3.3,1.7,3.3,3.2,1.4-.2.5.9.6,1.1,1.2.4,1.2.4,3.4-.7,2.9l.6.8c.5-.6-.4-.8,1.7-1-1.3.2-3.1-6.8,3.4-2.8.3-1.7,4.7-3.7,3.3-3.8-1.6-.2-1.4.5-2.3.4-2.7-.4-2.6-.9-2.7-.8.6-.7,0-.7,2.8-.9-.2-1-2.8-.5-2.2-.6.3-.2-.9-.7,2.2-1.1.3,0,.8-.6.7-1.2-.1-.4.4-.1.5-.3-1.2-1.3-.4-1.4-.1-1.6s.6.2,2,.4c-.3,0-1-1.2-.4-1.8.4-.5,0,.5.4.1-.4-.3-.3-1,0-1.4a15,15,0,0,0,1.1-1.3l24.5,15.3c2.1,1.3,4.7,2.3,5.3,4.8.3,1.1-.6,1-.8,2-.2.7,1,1.5,1.4,2,1.3,2,4,3.3,5.7,4.9,1,.9,6,4.1,5.8,5.5a25.9,25.9,0,0,1-2,6.7,20.45,20.45,0,0,0-1.3,3.1,4.15,4.15,0,0,0-.3,1.6c0,.7.6,1.4.5,2.1-.5,2.8,4,3,3.4,5.9,2.4-.8,2.1,2.1,1.2,3.3-1.4,1.8-.6,4-1.6,5.8,1.7-1.5,1.6,1.6,1.2,2.5a7.85,7.85,0,0,0-.9,4c.2,1.2,2,3.3.6,3.6,1,.2.4,2.1,1.2,2,1.3-.1.6,1.3.4,1.9-.5,1.2.8,1.6,1.1,2.7.1.6-.3.9,0,1.5.4.8.6,1.3-.2,1.9,1.4-.3,1.9.9,2.2,2-.1-1.9,4.6.8,3.1,3a80.37,80.37,0,0,1-9.1,5.8c-1.1.4-1.2-.3-2.3.1s-2.9,1.8-4.1,2.2-2.6-1.9-3.9-1.2c-1.5.8-2.2,3.1-3.8,3.8-2.7,1.2-3.2.3-4.1-.5-1.7-1.4-2.3,1.2-4.1,1-2.1-.2-2.8,0-4-1.4-.9-1.1-1.9-1.7-3.3-.4-.9.9-4.2.7-5.8.4-.2-.1-.2-1-.4-1.3a24.63,24.63,0,0,1-1.7-2.7c-.7-1.3-.2-2.8-.5-4.2-.4-1.9-.1-3.7-.5-5.5a9.42,9.42,0,0,0-3.3-5c-1.5-1.2-1.8,1.1-1.7,1.5-1.5-1.7-3-.1-4.4-1.7-.5-.5-2.2-.6-2.8-1a8.17,8.17,0,0,0-3.8-1.4c-.3,0-.5-.5-.6-.7-.5-.7-1-.5-1.7-.8s-1.5-.2-2.1-.5-.7-1-1.3-1.3c-.4-.2-.9.3-1.4.2-.8-.2-.9-1-1.3-1.6a2.83,2.83,0,0,0-2.8-1.2c-.5-1.1-3.2-6.5-4.4-9.8-1.1-3-.3-8.6-4.5-10.2-.6-.2-.1.5-.8.1-1.5-.7-3.1-2.5-.4-5.2,1.1-1.4-.7-3.4-1.1-5.1" transform="translate(-5.1 -2.42)" fill="#bbddac" stroke="#fff" stroke-miterlimit="3.97" stroke-width="0.8"/></g><path id="equatorial_Guinea" data-name="equatorial Guinea" d="M225.2,334a.78.78,0,0,0,.8-.2c-1.7.8-.2-1.7.1-2.1.9-1.4.2-3.4.8-5,1.1,2.2,1.9,1.7,3.3,2l8.8-.1.1,10.7-9.6-.3c-.6.1-3.6,1-2.5-.4-1-.5-3.3.6-3.9-.7-.6-1.1,1.6-3,2.1-3.9" transform="translate(-5.1 -2.42)" fill="#bbddac" stroke="#fff" stroke-miterlimit="3.97" stroke-width="0.8"/><path id="lesotho" d="M362,623.3c1,1,.9,2.5,1.8,3.5.7.9.5,2.1,1.2,2.8.9.9,3.4,4.1,5,2.8.7-.6,1.3-2.5,1.8-3.3.8-1.3,2.1-1.1,3.4-1.4.9-.3,2.9-1,3.3-2a8.92,8.92,0,0,1,1.5-3.1c.3-.4,1.4-1.6,1.2-2.2-.6-1.9-1.4-2.1-2.7-3.4-1-1.1-2.1-2-3.1-3.1-.9-.9-2.3.5-3.1.9a14.79,14.79,0,0,0-2.1,1.3c-1,.5-2,.4-2.8,1.4s-1.3,2.5-2.1,3.6-2,1.3-3.3,2.2" transform="translate(-5.1 -2.42)" fill="#bbddac" stroke="#fff" stroke-miterlimit="3.97" stroke-width="0.8"/><path id="burundi" d="M383.9,374.1c1-3.3,2.8.3,3,.3,3.6.4,4.3-.8,4.6-4.3,2,1.7,1.3-.8,5.8.8-.8.4-2.7,2.4-1.2,2.4-1.3,3.3,1.2,3.4,2.6,3-.8,1.3,1.1,1.8-.8,3.1-1.1.8-1.1.3-1.3,1.8-.1.4-1.4.2-1.6.6s.8,1.7.7,2a5.25,5.25,0,0,1-1.6,2c-1.5,1.1-1.7,2.4-3.2,3.4a4.07,4.07,0,0,1-2.2.6c-.3-.9-1.9-4.5-2.3-5.6-.5-1.7.2-3.4-.9-4.8.1-.8.5-1.8-.1-2.7a8.71,8.71,0,0,1-1.5-2.6" transform="translate(-5.1 -2.42)" fill="#bbddac" stroke="#fff" stroke-miterlimit="3.97" stroke-width="0.8"/><path id="djibouti" d="M487.1,246.5c0-2.5-1-5,.5-7.2,1.1-1.7,2.2-3.2,3.2-5,1.1-2.1,1.7-1,3.4-.5.8.2.8-1.1,1.1-1.5.5-.7,1.4-.9,2.1-1.3.7,1.6,3.7,4.5,2.3,6.3-.7.9-3.1,2-4.2,2.5s-1.3,1.8-2.6,2c.9,1.1,3.4-.7,4.6-.2,2.2.9,0,3-.6,4.3-.9,1.9-2.3-.1-3.7.3-1.4.2-5.2,2-6.1.3" transform="translate(-5.1 -2.42)" fill="#bbddac" stroke="#fff" stroke-miterlimit="3.97" stroke-width="0.8"/><path id="congo" d="M237.5,385.1a5.61,5.61,0,0,1,2.6-3.6c1.4-1,1.9,2.4,3.7,1.3.3-.2-.1-1.7.2-2.3.6-1.2-.7-1.5-1.4-2s1.2-4.5-1.7-3.7c1-1.4.7-3,.3-4.6a8.83,8.83,0,0,0,2.8.2c.5,0,.7.8,1.2.6,1.4-.3,3.8,0,3.5-2.1-.2-1.4-.7-4.5,2-3,1,.5,2.8,3.5,2.1,4.6,1.3-.7,2.5.8,3.8.5,1.1-.3,2.2-2.1,2.5-3.1.3.6,1,4.1,1.7,4.1s2.1-1.6,2-2.2.1-3,.7-3.4c.9-.5,1.8-2.2.6-3,1.6-.5.8-3.5.5-4.6-.5-1.7,1.2-3.5.4-5a2.88,2.88,0,0,0-2.6-1.1c-.5-.4-.1-1.6-1.1-1.7-2.7-.3-.6-1.7-.9-3.3-.2-1.1.2-3.4,1.2-4.1s2.1-.4,2.8-1.9c.5-1.2-.3-2-.8-3.1-.8-1.8-1-3.5-3.4-3.2-2.1.3-3.9,1.4-5.9,1.8.6-1.5-.1-3.2-.2-4.7-.2-1.7.9-3.3,1-4.1s8.2.2,9,.1a16.55,16.55,0,0,1,3.2.3c1.1.1,1.3,1.6,2.8,1.2,2.9-.8,6,1.3,8,3.2.9-1.3,0-2.3.1-3.7,0-1.2,1.2-1.9,1.6-2.9a28.71,28.71,0,0,0,1.7-4.4c.3-1.2-.2-2.3.1-3.5.2-.9.4-2.2,1.3-2.7,1.1-.6,2.6,0,3.8-.5s2.4-1.5,3.8-.8,2.4,1.3,4.1,1c2-.3,4.7-1.1,4.4,1.8-.2,2.4-1.9,5.8-3.1,7.9-1.4,2.4-1.3,4-1.4,6.9a15,15,0,0,1-.8,4.7,12.23,12.23,0,0,0-.9,4.3c0,1.2-.1,2.3-.2,3.5a25.34,25.34,0,0,1-.7,3.8c-.7,2.9.7,4.8-1.8,7.4-2.2,2.4-4.4,3-5.9,5.7a28.75,28.75,0,0,0-1.8,4c-1,2.6-3.5,2.9-3.3,4.5a69.38,69.38,0,0,1,0,7.9c0,2.8-1.2,7-3.9,7.5a3.38,3.38,0,0,0-2.3,2.2c-.2.5-1.9,1.3-2.4,1.9a41.14,41.14,0,0,1-2.7,3.5c-1.4,1.4-2.7-.3-3.5.8,0-1-.9-2.8-.2-3.6.5-.7.8-1.2-.3-1.6-1.4-.4-3.3,2.5-4.5.9-.6.6-.5,1.4-.8,2.2-.4,1-1.7,1.3-2.4,2.1-.1-1.3-1.9-1.5-2.2-2.7-1,1.8-1.9-3.5-3.6-.9-.6.9-1.5.8-2.2,1.4a35.76,35.76,0,0,0-2.6,2.8c-1.7,1.9-2.2-1.6-2.5-2.6-.7-2.8-3.5-5.1-5.5-6.9" transform="translate(-5.1 -2.42)" fill="#bbddac" stroke="#fff" stroke-miterlimit="3.97" stroke-width="0.8"/><path id="rwanda" d="M382.7,371.7c-.6-1.2,2.4-3.2,2.3-4.7-.1-2.7,1.2-3.9,3.5-5.3.3-.2,1.7-1.1,2.1-.8s.7,1.7,1.5.8c.6-.7,2.7-3.7,3.8-3.3-.5,1.6.8,3.5,1.5,4.7a10.62,10.62,0,0,1,1.6,5.6c-.3,2.1-1.5,2.4-3.3,1.7-2-.8-2.5,1.1-4.2-.5-.2,1.9-.1,4-2.4,4.4-1.2.2-2.3.4-2.8-.8s-2.3-1.2-2.4.4a2.61,2.61,0,0,1-1.2-2.2" transform="translate(-5.1 -2.42)" fill="#bbddac" stroke="#fff" stroke-miterlimit="3.97" stroke-width="0.8"/><path id="senegal" d="M6.7,212.1a1.35,1.35,0,0,0-1.2.5c-.1-1.3,2.3-1.7,3.1-2.5a21.7,21.7,0,0,0,4-6c.5-1,2.7-10.6,5.1-8.4,1.1,1,6.7,0,7.6-1.1,1.4-1.6,6.9.2,8,1.6,1.6,1.9,1.8,2.6,4.3,2.9,1.4.1,2.9,2.9,2.6,4.2-.1.6,1.9,1.7,2.2,2.4a11.88,11.88,0,0,0,1.3,2.5c.6.7,1.9.8,2.3,1.6.6,1.2,2.5,1.9,2.6,3.4.1.6-1,1.4-.3,2.1s1.1.9,1.1,1.9,1,3.4.2,4.2c-.8.2-.9.6-.2,1.2a2.55,2.55,0,0,0,.8,1.2c.7.4,0,1.2,1.1,1.5.6-2.2,2.3,1.6,2.6,2.2a3,3,0,0,1,.4,2.6c-.3,1.2.5,2.7.1,3.7-1.3-.6-2.8.3-4.2.1s-2.3.6-3.7.8-3.7-2.3-4.9-1.5c-.9.6-.6-1.1-.8-1.2-1.3-.4-.8-.6-1.9-.6H25.4c-1.8,0-2.5.1-3.8,1.2-1.2.9-2.8.8-4.5.8-1.5-.1-2.6.8-4,1.1-.7.1-1.5-.1-2.1.3-.1-.3-.9-1.1-.5-1.5,1-1.1,1.5-1.6,2.8-.8,1,.6,2.2-.3,3.2-.4.8,0,1.1.6,1.9.3a1.69,1.69,0,0,1,1.4.1c1,.3.9-2.2,2-2.5-1.7.1-.7,1.5-1.7,2.2s-3.2-.2-3.5-1.2c-.6,2.6-5.8.7-4.6-.6-.5.7-.4,1.9-1.5,2.1A1.28,1.28,0,0,1,11,231c-1.4.3-.6-1.8-.3-2.7.5-1.4,2-1.5,3.3-1.5h4.4c.8.5-.9-.3.5-1.2s2.6-.3,3.8-.6c1.4-.4.6-2.3,2.5-1.2,2.5,1.6,5.1,3.2,8,2.3,1.1-.4,2.4-1.5.9-2.2-1.8-1-2.2.4-3.6.3s-1.1-2.2-2.7-1.5c-.6.2-1.2-.6-1.4-1-.4-.9-1.7-.6-2.6-.1-1.1.7-1.4-.4-2,.2-.4.5-.3,1-.8,1.3H13c.3-.7-.3-1.1-1.1-1.2.1-.6.5-.9,1.2-.6a3.06,3.06,0,0,1,.2-1.9,2.81,2.81,0,0,1-2.1,1.7c-.3-.9,2.2-3.1,3.1-3.2-.9-.4-3.5,1.9-3.5,2.8.1-3-1.4-7.6-4.1-8.6" transform="translate(-5.1 -2.42)" fill="#bbddac" stroke="#fff" stroke-miterlimit="3.97" stroke-width="0.8"/><path id="togo" d="M145.6,245.5a35.93,35.93,0,0,1,4.7,1.2,6.35,6.35,0,0,0,4.1-.2c-.6,1.8-2,4.8-.5,6.5.8,1,3.8,2.1,3.9,3.4.2,2-.3,4.3.8,6.1a9.79,9.79,0,0,1,1.6,5.8c-.1,4.2,0,8.3.1,12.5,0,.7.2,3.1-.9,3.1.4,1.2.2,2.6.7,3.7a7.62,7.62,0,0,1,1.3,2.9,16.58,16.58,0,0,0-4.9,1.6c0-.8-2-1.8-2.5-2.3a11,11,0,0,1-2.7-3c-1-1.8.9-3.5.9-5.3,0-1.2-1.4-1.3-1.1-2.5.3-1.4,1.1-2.2.9-3.7a5.28,5.28,0,0,1,0-2.5c.2-.5.9-1,.7-1.5-.5-1.6-2.1-2.3-2.6-3.7,1.8-.2.6-2.7,1.1-3.9a2.65,2.65,0,0,0,0-2.3c-.6-1.2-1.5.1-2.4,0,.5-.7,0-1.5,1.2-1.3-.2-1.3.7-3.5.2-4.5-.7-1.8.6-2-1.3-3.1-1-.6-2.4-2.5-2.2-3.6.1-.9,1-1.5.6-2.5-.5-.6-1.4-.6-1.7-.9" transform="translate(-5.1 -2.42)" fill="#bbddac" stroke="#fff" stroke-miterlimit="3.97" stroke-width="0.8"/><path id="gabon" d="M218.7,356.9a2.39,2.39,0,0,1-.5-2.4,2.36,2.36,0,0,0,.7,1.6c.2-1.7,1.2-.3,1.2.7.2-2.1,2.3-3.4,2.6-5.4.2-1.4-.8-4.3.5-5.4a6.08,6.08,0,0,0,.9,1.8c.2-1.2,1.9-.5,2.5.5-.1-1,.9-1.3,1.7-1.3-2,0-3.5-.4-4.6-2.1-.4-.7-1.9-1.6-.3-1.9.7-.1,1.6.2,1.6,1,.6-1.3-.4-3,0-4.3.2-.7,1.1-.7,1.7-.4,1,.5,1.7-.1,2.8-.1l9.6.2V328.8c.4-2.5,1.4-1.5,3.3-1.4a43.49,43.49,0,0,0,5.1.2,37.54,37.54,0,0,1,4.2.4c2.5-.1,4.5-1.4,2.8,2.5-1.1,2.5.7,4.8-.2,7,1.8-.3,3.5-1.3,5.3-1.7,3.4-.7,3,1.3,4,3s1.8,4-1.5,4.7c-1.8.4-1.9,3.5-1.7,4.9.1.7-1.3,2.5.2,2.6.8,0,1.6.6,1.5,1.2-.1.8,1.7.7,2.4,1.3,1.5,1.5-.3,3.4-.1,5,.2,1,1.4,4.1-.4,5,1.2.8.4,2.8-.7,3.2-.3.1-.7,2.7-.6,2.8.7.8-1.2,2.7-2,2.6s-1.3-3.3-1.7-4.1c-.3,1-1.5,3-2.6,3.2s-2.5-1.3-3.6-.6c.8-3-5-7.8-4.2-2.8.5,3-.7,3-3.4,3.3-.9.1-.6-.7-1.5-.6a5.39,5.39,0,0,1-2.5-.3c.4,1.5.7,3.2-.3,4.6,1.1-.4,1.9.2,1.8,1.3a22,22,0,0,0-.1,2.3c.5.5,1.1.5,1.3.9.7,1-.1,1.2,0,2s.5,1.7-.7,1.8-1.4-1.1-2.3-1.7-3.1,3-3.3,3.7c-1.8-1.4-3.3-4.3-4.5-6.2-1.8-2.8-4.5-5-6.9-7.2,1.3-.8,1.7,2.2,2.9.7-.9.1-2.1-1-3.1-1.2-1.5-.4-2.6-3.9-3.6-5.1,1,.1,1.3,1.2,2.2,1.4-.8-1.3-1-1-2.2-1.7-.5-.3-.4-1.3-.5-1.7-.3-1.2-1.2-2.1-1.7-3.1.7.6,2.2,2,2,3.1a6.72,6.72,0,0,1,2.4-.4,6.28,6.28,0,0,1-1.1-1.2c-.2.6-.6.9-1.2.6.1-.8.7-1.5.4-2.4-1.2,3.4-3.4-3.4-4-3.8" transform="translate(-5.1 -2.42)" fill="#bbddac" stroke="#fff" stroke-miterlimit="3.97" stroke-width="0.8"/><g id="malawi"><title>Malawi</title><path d="M412.4,475.6a29.44,29.44,0,0,0,2.2-4.4c.5-1.5.4-2,.1-4-.3-1.8,3.9-3,4.7-3.9-3-.9-1.8-5.9-1.8-8.1,0-1.8,1.2-2.6.2-4.4-1.2-2.1.6-1.7,1.7-2.5,1.3-1,1.7-3.1-.6-5.7-1.8-2.1.5-2.7-1.3-3.9-1.4-.9-2-.9-2.3-1.3-.2-.2.3-1.4-.2-2a10.68,10.68,0,0,0,2.9,1c1.1.1.8.9,1.7,1.1s2.8,0,3.3,1a7.05,7.05,0,0,0,1.8,5.1c1.5,1.9.1,2.2.3,3.7.2,1.3.7,7.2.7,7.9.1,2.7-3.5,5.5-2.5,7.1,3.6,6.3,2.5,6.2,2.3,7.4-.8,5.2,2.7,4.1,2.2,6.4-1.3,5.8,2.2,4.9,2,2.1l2.9,3.7c.7.3.3-4.8-1.7-6.3-1.8.3-1-1.4-1.2-1.9,1.4.7,1.5.8,3.2,3.3,1.1,1.6,2.1,3.4,3.5,5.1,1.6,1.9,1.7,3.7,1.1,6.1-.5,2.1.3,4.2-.1,6.4a4,4,0,0,1-1.2,2.7c-.9.7-2.2.5-3.1,1.2s-.6,2.3-1.8,3.3a8.81,8.81,0,0,1,1.3,3.2c0,.4,0,1.7-.4,2.1s-1.9.3-1.7-.5c.5-1.7,1.2-1.2-.5-2.9-1.2-1.1-4.5-4.4-4.6-5.7-.3-2.2-.9-1.7-.4-3.5a11.33,11.33,0,0,1,1.3-3.3c.9-1.2.8-1.5.9-3.1.2-1.8.2-4.2-1-5.9-.5-.7-1.9.3-3.2.4-1.1.1-2.6-.2-2.7.8-.6-.7-4.7-5.4-4.9-5.3-1.2.7-3.3-1.6-3.1-2.5Z" transform="translate(-5.1 -2.42)" fill="#bbddac" stroke="#fff" stroke-miterlimit="3.97" stroke-width="0.8"/></g><g id="morocco"><title>Morocco</title><path d="M44.9,92.3a27.33,27.33,0,0,1,2-2.5c1.5-.6,3.2-.6,4.7-1,2.9-.6,5.9-1.6,8-3.7s4.4-3.7,6.6-5.6S70,75.2,71.7,73c1.2-1.5,3.9-5.8,1.6-7.5-.9-.6-1.5-.7-.9-1.8a8.81,8.81,0,0,0,.6-3.6c.2-3.6,1.5-5.1,3.6-7.8,1.2-1.5.9-3.1,1.4-4.8a7.26,7.26,0,0,1,2.4-3.1c2-1.8,3.6-4.1,6.1-5.2a77.51,77.51,0,0,0,8.3-3.7c5.2-3,7.7-10.2,9.7-15.5.2-.5.9-3.1,1.7-3a5.3,5.3,0,0,0,2.8-.7c1-.6,1.2.8,1.6,1.6a7.68,7.68,0,0,0,2.6,3.3c2.7,1.9,4.9,1.4,7.9,1,2.5-.3,5.7,1.2,7.3-1.7a4.88,4.88,0,0,0,.4,1.9c.1.8,1.6,1.2.3-.1a2.52,2.52,0,0,0,3,.9c1.1-.5,1.8.6,2.4,1.2s2,1.1,2.5,2c.5,1.1-.6,2.1.9,2.7-.8.6-.6,1.8-.4,2.7.2,1.4-.2,2.6-.1,3.9.1,1.1.8,1.7.5,2.9a4.28,4.28,0,0,0,.6,3.8c.4.8,0,1.4.5,2.1a8.81,8.81,0,0,0,2.5,2.2c1.7,1.3-3.3,3.5-.7,4.5-2.8.7-12.5-2.6-13.9,1.1-.7,2-2.7,2.7-4.8,2.5-1.6-.1-3.5,2.1-1.4,2.7-1.8,1.7,1.5,2.9.7,3.7s-2.5.6-3.5,1.3a12.75,12.75,0,0,1-3.4,2.3,12.9,12.9,0,0,0-2.8.8c-1.7.9-2.4,2.9-3.6,4.3-1.4,1.6-4,2.2-6.1,2.3-1.5.1-3.2-.6-3.8,1.3s-2.6.5-4.1.6a3.34,3.34,0,0,0-2.4,1.4c-.7.8-1.6.6-2.4,1a10,10,0,0,0-2.5,2.1c-.9.7-1.9,1.2-2.8,1.9-1.7,1.4-3.3,1.6-3.1,4a37.75,37.75,0,0,1-.4,7.5c-.1,1.1-32.3.3-35.6.3" transform="translate(-5.1 -2.42)" fill="#bbddac" stroke="#fff" stroke-miterlimit="3.97" stroke-width="0.8"/></g><path id="liberia" d="M52.8,284.5c1.1-.4,1.2-2.2,1.9-3,1.5-1.5,3.2-2.7,4.6-4.3.9-1,.3-2.4,1-3.3,1-1.3,1.7-.6,2.4-2.5.3-.8,0-.9.2-1.1-1.5-.5,1.5-.5,2.2-.2s1.1-.6,1.8-.5c1,.1,1.7,1.2,2.3,1.7-.5.6-.2,1.1,0,1.7.2.4-.1,1.4.4,1a11.11,11.11,0,0,1-.5,6.5c1.5-.5,2.9-.3,3,1.5,1.7-.7,2.5-1.2,3-3,.2-.5.3-1.6,1-1.7s1.5,1.6,1.8,2.2a8.07,8.07,0,0,1,.6,5.7,3.06,3.06,0,0,1-1.3,2.1,2.73,2.73,0,0,0-1.1,1c.1.3.5.7,1.8.7-.6,2.3,3.9.4,4.4,2.1.2.6-.1,1.4,1.1,2.2a5,5,0,0,1,2.3,2.5c.8,2.4,0,3.7-.3,5-.8,2.8-1.8,4.7-.5,7.3a4.74,4.74,0,0,1-3.3-.9c-1.4-.8-3-.9-4.2-1.9-2.2-1.8-5.2-2.7-7.3-4.8-2.3-2.3-4.2-5.1-6.5-7.3-.7-.7-6.2-2.6-4.9-3.8-1,.1-2.2-1.4-3.1-1.9-1.7-.9-1.5-1.8-2.8-3" transform="translate(-5.1 -2.42)" fill="#bbddac" stroke="#fff" stroke-miterlimit="3.97" stroke-width="0.8"/><path id="central_African_Republic" data-name="central African Republic" d="M264.3,292.6a6.69,6.69,0,0,1,2.1-2c1.2-1,1.3-2.1,2-3.3,1.3-2.1,2.2-5.2,3.6-7.1,1.8-2.4,2.1-.8,4.4-1.4a31.8,31.8,0,0,0,3.3-1c1.2-.4.8-1.6,2.1-2.1.3,1.3,1.3,2,2.1,3.1.6-1.3,2.6-1.9,3.2-2.4,1.9-1.5,4.9-2,7.2-2,2,0,4,.6,4.9-1.3.7-1.3,3.5-3.6,3.3-4.9-.1-.8-1.8-.6-1.9-1.6-.1-1.5,4.5-1.6,5.8-1.5a13.24,13.24,0,0,0,10.5-4.5c1.3-1.6,2.1-3.4,3.8-4.6.9-.6,3.2-2.8,2.8-3.8-.6-1.3.4-2.5,1.9-2.9,1.7-.4,3-2.6,5-2.6,2.4-.1,3,1.5,4,2.8,1.7,2,3.5,3.5,4.5,5.7a12.07,12.07,0,0,1,.9,6.2c-.1,2.2-2,2.5-1.7,4.1a6.89,6.89,0,0,0,.8-.3,4,4,0,0,1-.5,2.4c1.7.3,3.7-.1,5.3.7s-1.1,3.4,2.1,3.9c1.1.2,2.6.1,3.5.8,1.1.8,1.6,1.7,2.8,2.6,1.8,1.3.4,2.4.4,3.1,0,1.1,1.6,2,2.4,2.5s2,1.2,2.9,1.7c1.9,1,1.3,1.5,2,2.6.5.8,2.6,1.2,2,2.3-.8,1.5-.1,1.8.8,2.7s-.1,1.5,1.4,2.5c1,.6,1.9.9,2.9,1.5a3.45,3.45,0,0,1,2.2,3.7c-.1,1.7,1.1,2.6,1.6,4.1-1.3-1.5-3.1-2.1-4.3-.8-.5.5-1.6.4-2.2.3a1,1,0,0,0-.9.1c-.7.4-.9-.3-1.5-.5-1.1-.4-1.9-1.3-3.1-1-2.3.6-2.4-.9-3.8-1.1-.9-.1-1.6.5-1.4,1.4.3,1.5-1.5,1.7-2.5,2.1s-2.5.8-3.4.1c-.5-.4-1.7-2-2-1-.4,1.4-3.3,2.3-4.5,2.6-2.2.4-3.6,2.5-4.6,1.5-1.1-1.2-2.2-2.8-4-.8-.5.6-.5,1.6-.9,2.3-.6.9-.7,2.2-1.7,2.9-1.4,1-4.7-1.1-6.4-1.1-1,0-1.2.3-2.4-.1s-1.6.2-2.5-.9-2.6-.2-3.8-.4c-1.5-.3-1.5-2.3-2.4-3.1a26,26,0,0,0-5-3.2c-2-1.2-4.8,1.3-5.8,3a18.34,18.34,0,0,0-1.8,3c-.3.8-1.5.7-1.8,1.2-.5.8.8,2.3.7,3.2a25.83,25.83,0,0,0-.2,4.7c-1.1-1.8-3.8-.2-5.6-.5a18.15,18.15,0,0,1-3-1.1c-1.5-.7-2.7.7-4.1,1-2.2.4-3.9-.3-4.4,2.4-.3,1.5-.1,3-.4,4.5-.4,1.9-1.6,3.7-2.3,5.5a32.08,32.08,0,0,1-1-6.2c-.2-2.2-2.4-2.1-3.6-3.3-.6-.6-6.4-7.4-3.7-7.5-1.4-1-1.1-3.1-2.5-4.2-1.8-1.4-1.6-3.5-1.6-5.6,0-.8-1.1-1.4-1-1.9a21,21,0,0,1,.6-2.4,6.66,6.66,0,0,0-.2-2.8c-.1-1.3-1.1-.9-1.4-2" transform="translate(-5.1 -2.42)" fill="#bbddac" stroke="#fff" stroke-miterlimit="3.97" stroke-width="0.8"/><g id="zimbabwe"><title>Zimbabwe</title><path d="M351.4,513.7a5.46,5.46,0,0,0,3.1.1c1-.4,1.5,1.1,2.2,1.6s2-.7,2.6-.8c.9-.1,2.2.9,3,1.2,2.3,1,3.6-1.1,4.8-2.7,1.6-2.2,3.2-4.2,4.4-6.2a8.49,8.49,0,0,1,2.2-2,16.49,16.49,0,0,1,3.7-2c2.6-1.1,3.1-1.4,3.3-4.4.1-1.5,2.5-3.3,3.9-3.8a12.07,12.07,0,0,1,4.1-1.2c1.6-.1,3.3.5,4.9,0,0,3.1-.3,3.4,3.1,3.4a12.06,12.06,0,0,1,5.4,1.4c1.2.5,3.8,2,4.9,2.6,1.6.8,4.2.5,4.9,1.8a1.6,1.6,0,0,0,2.2.8c-.2,1.4-1.1,2.2-.4,3.7.8,1.7-.2,3,.3,4.6s-.7,3.3-.3,5c.2,1.2.9,2.2-.1,3.1-.8.7-.1,2.3-.5,2.5-1.1.6-1.4.5-1.8,1.9-.2.6.8.8,1.1,1.1s0,1.1,0,1.4c-.1.6-.6,1-.8,1.6a12.55,12.55,0,0,0,.7,2.6c.3-.1.5-.2.8-.3-.1,1.7.6,2.3-.4,4.1-.8,1.4-1.3,3.7-2.9,4.4s-.4,1.8-.7,3.1c-.4,1.6-1.6,2.5-.4,4.1-1.3-.9-7.1,7.6-8.1,8.3s-1.5,2.1-1.9,2.1c-.9-1.9-4.5-1.1-6.3-1.1a14.14,14.14,0,0,1-4.5-1.1c-3.4-1.2-4.4-.3-4.6-.5-.9-1.1-1-.5-2-1.1s0-1.6-.4-2.1c-1.6-2.1-7.6-.8-8.5-3s-2.6-4.2-1.9-6.3c1-2.9-.4-3.6-3.4-3,.5-2.8-.2-3.9-2.8-4.7a12.93,12.93,0,0,1-5.9-4.7c-1.8-2.7-1.8-6.1-3.9-8.8-.9-1.2-3.8-5.2-3.1-6.7" transform="translate(-5.1 -2.42)" fill="#bbddac" stroke="#fff" stroke-miterlimit="3.97" stroke-width="0.8"/></g><path id="benin" d="M153.3,249.4c.4-.8.5-2.1,1-2.8s.7-.5,1.2-1c1.1-1.1,2.7-4.2,4.2-2.7.4.4,4.8-.6,5.6-2.1a8.3,8.3,0,0,0,1.3-3.4c0-.7-.9-2.3.2-2.5.7-.1,1.7,0,2-.4,1.1-1.6,2.5.2,3.3,1.1.6.7.9,1.2,1.5,1.9s1.6,1.6,2.3,2.5c.4.5-.5,1.8-.6,2.4-.3,1.2.9,2.2,1.5,3.1.7,1.1.1,2.2.6,3.1.5,1.2,1.2,2.1.5,3.3-.4.7-1.3,0-1.5.8-.4,1.2,1.2,2-.2,3.6-.6.7-1.5.9-2,1.8a13.44,13.44,0,0,1-1.2,2.4c-1.2,1.5.7,3.6-2,4.3-.9.2-1.4-.2-1.6.8s-.7,1.9-.6,2.8a54.52,54.52,0,0,1-.1,7c-.1,1,1,3.1.8,4.5s-.2,2.4-.4,3.5c-.3,1.7.3,2.3.2,3.2s-.8,2.5-.6,3.1a27.33,27.33,0,0,0-4,.5c-1.6.3-3.3.6-4.9.8a1.87,1.87,0,0,1,1.4-.5,5.81,5.81,0,0,0-1.1-2.4,14.48,14.48,0,0,1-1-4.1c.2,0,1-.3.9-2.5-.2-4.1,0-8.2,0-12.4,0-2.3-.1-4.1-1.4-6.1s-.8-4.1-.9-6.2c-.1-1.6-2.5-2.4-3.7-3.6-1-1-.8-2.5-.7-3.8" transform="translate(-5.1 -2.42)" fill="#bbddac" stroke="#fff" stroke-miterlimit="3.97" stroke-width="0.8"/><path id="eritrea" d="M442.5,208.3c1.3-1.2,1.2-3,1.7-4.5.5-1.7,1.2-3.3,1.8-4.9s-1-7.7,1.4-8.1c.5-.1,2.3.3,2.6-.2.8-1.3.2-2.3,1.7-2.8,1.2-.4,2.7-1.4,4-1.9,1.9-.8,2-2.7,3.4-4a59.45,59.45,0,0,1,5.3,14.6,24.47,24.47,0,0,0,.8,3.7,16.9,16.9,0,0,1,1.5,3.7c.2,1,1.4,1,1.6,2s.4,2.5,1.3,3.2c1-.7-.7-3.5.4-3.7s1.7,1.1,1.7,1.9.7,2.5,1.6,2.9c1.2.6,2-1.1,3.3.3,1.1,1.2,1.2,2,2.9,2.3,2,.3,2.7,1.8,3.7,3.3a13.17,13.17,0,0,0,3.4,4,15.58,15.58,0,0,1,2,1.6c.3.3,1.8,2.4,1.1.5,1,.7,1,2.1,1.4,3.2.3.9,1.3.7,1.9,1.3s2.8,4.8,3.6,2.7c.8.8,1.3,1.2.8,1.7-1.2.6-2.2,1.4-2.2,2.1-.1,2.4-1.9-1-4.1.6.3-.6-.4-2.5-2.7-4.1-2-3.1-3.3-5.2-4.6-5.5-2.2-.6-2.9-3.3-4.2-5.1-1.4-2-3.6-2.1-5.4-3.5s-2.7-.2-4.3-.7c-1.2-.4-3.4-1.5-4.6,0,0-1-2-2.9-1.5-2.2.2.3-1.4,2-2.5,2.1-.8,0-2.4.3-3.2-.9-1.4-2.2-1.9-.4-3.6-3.2a55.54,55.54,0,0,1-2.5,7.2c-.5-.7-1.9-3.5-3.1-2.8-.8.4-.7,1.2-1.8,1.1-3.1-.2-3-.4-3.8,1.6a50.85,50.85,0,0,1-.7-9.4" transform="translate(-5.1 -2.42)" fill="#bbddac" stroke="#fff" stroke-miterlimit="3.97" stroke-width="0.8"/><path id="swaziland" d="M393.2,596.1h.2a10.08,10.08,0,0,1,1.7,1.9,16.6,16.6,0,0,0,1.6,2.1c.9.9,3,2.2,4.6.9.7-.6.4-.6.8-1.5l1-1.9h1.4v-.5c-1.7-6.6.4-2.1-1.2-6.4a16.59,16.59,0,0,0-2.7-2.3l-2.6-.1c-.9,1.1-1.5,1.2-2.3,2.4-.4.7-.6,1.2-.8,1.6S393.8,595.7,393.2,596.1Z" transform="translate(-5.1 -2.42)" fill="#bbddac" stroke="#fff" stroke-miterlimit="3.97" stroke-width="0.8"/><path id="the_Gambia" data-name="the Gambia" d="M10.5,224.8c1.5-1.2,1.3-1.1,2.1.6.6,1.3,2.4-.4,3.3.2-1.9-1,4-1.6,4.3-1.8a11.36,11.36,0,0,0-4.8.6c-1.2.5-1.9.9-2.7-.5s.7-1.3,1.6-1.2c2.3.2,4.6.1,6.9.1.6,0,.3-1.9,1.7-1.5,1.1.3,2.2-1,3.3-.4.6.3.7,1,1.3,1.4s1.1-.3,1.6,0,.4,1.2,1.1,1.5,1.6-.3,2.3-.5,2.7-.1,2.5,1.1-1.9,1.5-2.7,1.6c-3.7.5-7.5-3.7-8.1-2.7-.6,1.2-.8,1.6-3,1.5-.8,0-3,.5-2.5,1.7.1.2-7.2-.6-7.5,1.1a4.69,4.69,0,0,1-.7-2.8" transform="translate(-5.1 -2.42)" fill="#bbddac" stroke="#fff" stroke-miterlimit="3.97" stroke-width="0.8"/><path id="sao_Tome_Principe_2-2" data-name="sao Tome   Principe 2" d="M206.9,334.5a1.54,1.54,0,0,0,.1-1.6.94.94,0,0,0-.1,1.6" transform="translate(-5.1 -2.42)" fill="#bbddac" stroke="#fff" stroke-miterlimit="3.97" stroke-width="0.48"/></g></svg>