<svg width="18px" height="19px" viewBox="0 0 18 19" version="1.1" xmlns="http://www.w3.org/2000/svg">
    <title>Icn_Facebook</title>
    <path d="M0,0 L18,0 L18,18.0540541 L12.69936,18.0540541 L12.69936,10.3543611 L15.34968,10.3543611 L15.71688,7.56825946 L12.69936,7.56825946 L12.69936,6.28064432 L12.69936,5.67619459 L12.69936,5.57148108 C12.69936,5.18656865 12.7692,4.8839827 12.9096,4.66444541 C13.04928,4.44563027 13.36392,4.33586162 13.85424,4.33586162 L15.6384,4.33586162 L15.69096,1.76063135 C14.95656,1.69130378 14.30856,1.65591784 13.74912,1.65591784 C12.36744,1.65591784 11.3616,2.01483243 10.7316,2.73338378 C10.10232,3.45193514 9.78696,4.27447784 9.78696,5.20317838 L9.78696,7.56825946 L7.74072,7.56825946 L7.74072,10.3543611 L9.78696,10.3543611 L9.78696,18.0540541 L0,18.0540541 L0,0 Z" id="Icn_Facebook"></path>
</svg>