<svg xmlns="http://www.w3.org/2000/svg" width="16.2" height="16.2" viewBox="-1261.8 945.5 16.2 16.2"><title>instagram_icn</title><path d="M-1251 953.6c0 .7-.3 1.4-.8 1.9s-1.1.8-1.9.8c-.7 0-1.4-.3-1.9-.8s-.8-1.1-.8-1.9.3-1.4.8-1.9 1.1-.8 1.9-.8c.7 0 1.4.3 1.9.8s.8 1.3.8 1.9zm1.4 0c0-1.1-.4-2.1-1.2-2.9-.8-.8-1.8-1.2-2.9-1.2s-2.1.4-2.9 1.2c-.8.8-1.2 1.8-1.2 2.9 0 1.1.4 2.1 1.2 2.9.8.8 1.8 1.2 2.9 1.2 1.1 0 2.1-.4 2.9-1.2.8-.7 1.2-1.7 1.2-2.9zm1.1 4.3c0-.3-.1-.5-.3-.7-.2-.2-.4-.3-.7-.3-.3 0-.5.1-.7.3-.2.2-.3.4-.3.7 0 .3.1.5.3.7.2.2.4.3.7.3.3 0 .5-.1.7-.3.2-.2.3-.5.3-.7zm-5.2 2.3h-2.9c-.4 0-.8-.1-1.1-.1-.3-.1-.5-.1-.7-.2-.3-.1-.7-.3-.9-.6-.3-.3-.5-.6-.6-.9-.1-.2-.1-.4-.2-.7s-.1-.7-.1-1.1V950.8s.1-.8.1-1.1c.1-.3.1-.5.2-.7.1-.3.3-.7.6-.9.3-.3.6-.5.9-.6.2-.1.4-.1.7-.2.3-.1.7-.1 1.1-.1h5.8c.4 0 .8.1 1.1.1.3.1.5.1.7.2.3.1.7.3.9.6.3.3.5.6.6.9.1.2.1.4.2.7.1.3.1.7.1 1.1v5.8s-.1.8-.1 1.1c-.1.3-.1.5-.2.7-.1.3-.3.7-.6.9-.3.3-.6.5-.9.6-.2.1-.4.1-.7.2-.3.1-.7.1-1.1.1h-2.9zm8-6.6c0-1.6 0-2.7-.1-3.3-.1-1.4-.5-2.6-1.3-3.4-.8-.8-1.9-1.2-3.4-1.3-.6 0-1.7-.1-3.3-.1s-2.7 0-3.3.1c-1.4.1-2.6.5-3.4 1.3-.8.8-1.2 1.9-1.3 3.4 0 .6-.1 1.7-.1 3.3s0 2.7.1 3.3c.1 1.4.5 2.6 1.3 3.4.8.8 1.9 1.2 3.4 1.3.6 0 1.7.1 3.3.1s2.7 0 3.3-.1c1.4-.1 2.6-.5 3.4-1.3s1.2-1.9 1.3-3.4c.1-.6.1-1.7.1-3.3z"/></svg>