<svg xmlns="http://www.w3.org/2000/svg" width="30" height="25" viewBox="0 0 30 25">
<title>Icn_Twitter</title>
<g>
	<path d="M29.2,0.4c-0.2,0.7-0.6,1.4-1,2c-0.5,0.6-1,1.1-1.7,1.5c0.6-0.1,1.2-0.2,1.8-0.4c0.6-0.2,1.2-0.4,1.7-0.6
		c-0.4,0.6-0.9,1.2-1.4,1.8c-0.5,0.5-1.1,1-1.7,1.5c0,0.1,0,0.2,0,0.4v0.4c0,2-0.4,4.1-1.2,6.2c-0.8,2.1-1.9,4-3.4,5.6
		c-1.5,1.7-3.3,3.1-5.5,4.1c-2.2,1.1-4.7,1.6-7.5,1.6c-1.7,0-3.4-0.2-5-0.7c-1.6-0.5-3.1-1.2-4.4-2c0.2,0,0.5,0.1,0.7,0.1
		c0.2,0,0.5,0,0.8,0c1.4,0,2.8-0.2,4.1-0.7c1.3-0.5,2.5-1.1,3.5-2c-1.4,0-2.6-0.4-3.6-1.2c-1-0.8-1.8-1.8-2.2-3
		c0.2,0,0.4,0.1,0.6,0.1c0.2,0,0.4,0,0.6,0c0.3,0,0.6,0,0.8-0.1c0.3,0,0.5-0.1,0.8-0.2c-1.4-0.3-2.6-1-3.5-2.1s-1.4-2.4-1.4-3.9v0v0
		C1.6,8.8,2.1,9,2.5,9.1C3,9.2,3.5,9.3,4,9.3C3.2,8.8,2.5,8.1,2,7.2c-0.5-0.9-0.7-1.9-0.7-3c0-0.5,0.1-1.1,0.2-1.6
		c0.1-0.5,0.3-1,0.6-1.5c0.8,0.9,1.6,1.8,2.5,2.5c0.9,0.8,1.9,1.4,3,2c1.1,0.6,2.2,1,3.4,1.3c1.2,0.3,2.4,0.5,3.7,0.6
		c-0.1-0.2-0.1-0.5-0.1-0.7c0-0.2,0-0.5,0-0.7c0-1.7,0.6-3.1,1.8-4.3C17.6,0.6,19.1,0,20.8,0c0.9,0,1.7,0.2,2.5,0.5
		c0.8,0.3,1.4,0.8,2,1.4c0.7-0.1,1.4-0.3,2-0.6C27.9,1.1,28.6,0.8,29.2,0.4"/>
</g>
</svg>
