<?xml version="1.0" encoding="utf-8"?>
<!-- Generator: Adobe Illustrator 21.0.0, SVG Export Plug-In . SVG Version: 6.00 Build 0)  -->
<svg version="1.1" id="Layer_1" xmlns="http://www.w3.org/2000/svg" xmlns:xlink="http://www.w3.org/1999/xlink" x="0px" y="0px"
	 viewBox="0 0 16 13.2" style="enable-background:new 0 0 16 13.2;" xml:space="preserve">
<title>twitter_icn</title>
<path d="M16,1.8c-0.5,0.7-1,1.2-1.6,1.7v0.4c0,0.9-0.1,1.8-0.4,2.6c-0.3,0.9-0.6,1.7-1.2,2.5c-0.6,0.8-1.1,1.5-1.9,2.1
	c-0.8,0.6-1.6,1.1-2.6,1.5S6.2,13.2,5,13.2c-1.8,0-3.5-0.5-5-1.5h0.8c1.5,0,2.9-0.5,4.1-1.4c-0.7,0-1.3-0.2-1.9-0.7S2.1,8.6,1.8,8
	C2,8,2.2,8.1,2.4,8.1c0.3,0,0.6,0,0.9-0.1C2.5,7.8,1.9,7.5,1.4,6.9S0.7,5.6,0.7,4.8c0.5,0.3,1,0.4,1.5,0.4C1.8,4.9,1.4,4.5,1.1,4
	C0.8,3.5,0.7,3,0.7,2.4s0.1-1.1,0.4-1.7c0.8,1,1.8,1.8,3,2.4c1.2,0.6,2.4,0.9,3.8,1C7.8,3.8,7.8,3.6,7.8,3.3c0-0.9,0.3-1.7,1-2.3
	s1.4-1,2.3-1c0.9,0,1.7,0.3,2.4,1c0.7-0.1,1.4-0.4,2.1-0.8C15.3,1,14.9,1.6,14.2,2C14.7,2.3,15.4,2.1,16,1.8L16,1.8z"/>
</svg>
