<svg xmlns="http://www.w3.org/2000/svg" width="25" height="18" viewBox="0 0 25 18">
<title>Icn_YouTube</title>
<path id="Icn_YouTube" d="M9.6,11.7l6.5-3.4L9.6,4.9V11.7z M23.9,3.7c0.2,1.6,0.2,3,0.2,4v1.8c0,1-0.1,2.3-0.2,3.9
	c-0.3,1.2-0.6,2-1,2.4c-0.5,0.5-0.9,0.8-1.4,0.9c-0.5,0.1-0.8,0.1-1,0.2c-0.8,0.1-1.8,0.1-2.7,0.2c-1,0-1.9,0.1-2.7,0.1s-1.8,0-3,0
	c-1.3,0-2.5,0-3.4,0c-0.9,0-1.8,0-2.7-0.1c-0.9,0-1.6-0.1-2.1-0.1c-0.3-0.1-0.7-0.1-1.2-0.2c-0.5-0.1-1-0.4-1.5-0.9
	c-0.4-0.4-0.7-1.2-1-2.4C0.1,11.7,0,10.4,0,9.5V7.6c0-1,0.1-2.3,0.2-4c0.3-1.2,0.6-2,1-2.4c0.5-0.5,0.9-0.8,1.4-0.9
	c0.5-0.1,0.8-0.1,1-0.2c0.8-0.1,1.8-0.1,2.7-0.1c1,0,1.9-0.1,2.7-0.1s1.8,0,3,0s2.1,0,3,0s1.8,0,2.7,0.1c1,0,1.9,0.1,2.7,0.1
	c0.2,0,0.6,0.1,1,0.2c0.5,0.1,0.9,0.4,1.4,0.9C23.4,1.6,23.7,2.4,23.9,3.7L23.9,3.7z"/>
</svg>
