<svg width="379" height="52.5" id="Arcadia_Logo" xmlns="http://www.w3.org/2000/svg" viewBox="0 0 379 52.5">
<style type="text/css">
	.st0{fill:#EDB11F;}
	.st1{fill:#FFFFFF;}
</style>
<title>Arcadia logo</title>
<path class="st0" d="M70.7,10.7H73l10.2,21.8h-2.7l-2.6-5.7H65.7l-2.6,5.7h-2.6L70.7,10.7z M76.9,24.6l-5.1-11l-5.1,11H76.9z"/>
<path class="st0" d="M88.9,10.9h9.6c2.3-0.1,4.6,0.6,6.3,2.2c1.1,1.1,1.7,2.7,1.7,4.3v0.1c0,3.6-2.5,5.7-6,6.3l6.8,8.9h-3.1
	l-6.5-8.4h-6.4v8.4h-2.5V10.9z M98.2,21.9c3.3,0,5.7-1.7,5.7-4.5v-0.1c0-2.7-2.1-4.3-5.7-4.3h-6.9v8.8H98.2z"/>
<path class="st0" d="M112.2,21.8L112.2,21.8c-0.1-6.2,4.8-11.2,10.9-11.3c0.1,0,0.2,0,0.3,0c3.3-0.1,6.4,1.2,8.7,3.5l-1.7,1.8
	c-1.8-1.9-4.4-3-7-3c-4.7,0-8.6,3.8-8.6,8.6c0,0.1,0,0.2,0,0.3v0.1c-0.2,4.8,3.6,8.8,8.4,8.9c0.1,0,0.2,0,0.3,0
	c3.1,0,5.1-1.1,7.2-3.1l1.6,1.6c-2.3,2.5-5.5,3.9-8.9,3.8c-6.1,0.1-11.1-4.8-11.2-10.8C112.2,22,112.2,21.9,112.2,21.8z"/>
<path class="st0" d="M146.2,10.7h2.4l10.1,21.8H156l-2.6-5.7h-12.1l-2.6,5.7h-2.6L146.2,10.7z M152.4,24.6l-5.1-11l-5.1,11H152.4z
	"/>
<path class="st0" d="M164.4,10.9h7.7c7,0,11.8,4.7,11.8,10.8v0.1c0,6.1-4.8,10.8-11.8,10.8h-7.7V10.9z M166.9,13.2v17.1h5.2
	c5.6,0,9.2-3.7,9.2-8.5v-0.1c0-4.8-3.6-8.6-9.2-8.6L166.9,13.2z"/>
<path class="st0" d="M190.8,10.9h2.5v21.7h-2.5V10.9z"/>
<path class="st0" d="M209.4,10.7h2.4l10.1,21.8h-2.7l-2.6-5.7h-12.1l-2.6,5.7h-2.6L209.4,10.7z M215.6,24.6l-5.1-11l-5.1,11H215.6
	z"/>
<path class="st0" d="M37.3,39c-2.6-2-3.6-4.8-5.4-7.5c-2.5,1.7-5,3.8-7.5,5.5c-2.9,1.8-6.2,3-9.6,3.5c-3.7,0.3-7.1,0.2-9.6-0.8
	c8.3,10.7,23.7,12.7,34.4,4.4c1.6-1.2,3.1-2.7,4.3-4.3C41.7,40.6,39.2,40.4,37.3,39z"/>
<path class="st0" d="M10.7,26.5c1.2-1,8.3-6.9,11.8-13.3c-1.8-4.3-4.7-10.1-10.2-9.9C1.5,9.5-2.9,22.8,2,34.2
	C4,32,9.6,27.4,10.7,26.5z"/>
<path class="st0" d="M11.1,30.2c3.6,2.4,8,3.2,12.3,2.4c1.6-0.4,5.5-2.1,6.8-4.2c0,0-5.2-10.7-5.3-10.8
	C20.6,21.5,14.9,25.6,11.1,30.2z"/>
<path class="st0" d="M30.1,7.7c2,3.4,10.5,19.9,11.4,21.6c2.2,4.2,4,5.6,5.1,5.9c5.9-12.2,0.8-26.9-11.3-32.8
	c-6.5-3.2-14-3.3-20.7-0.4C16,1.6,17.5,1.3,19,1.3C25.9,1.3,27.8,3.8,30.1,7.7z"/>
<path class="st0" d="M12.1,3.3h0.2c0.7-0.4,1.5-0.8,2.3-1.2C13.7,2.4,12.9,2.8,12.1,3.3z"/>
<path class="st1" d="M41.5,29.4c-0.9-1.7-9.5-18.3-11.4-21.6c-2.3-4-4.2-6.4-11.2-6.4c-1.5,0-2.9,0.3-4.3,0.8
	c-0.8,0.3-1.6,0.7-2.3,1.2c5.5-0.1,8.4,5.6,10.2,9.9c-3.5,6.4-10.6,12.3-11.8,13.3S4,32,2,34.2c0.8,1.9,1.9,3.7,3.2,5.4
	c2.4,1,5.9,1.1,9.6,0.8c3.4-0.4,6.7-1.6,9.6-3.5c2.6-1.7,5-3.8,7.5-5.5c1.8,2.7,2.8,5.5,5.4,7.5c1.9,1.4,4.4,1.6,6.6,0.7
	c1.1-1.4,2-2.8,2.7-4.4C45.5,34.9,43.7,33.6,41.5,29.4z M23.5,32.6c-4.3,0.8-8.7-0.1-12.3-2.4c3.7-4.5,9.4-8.7,13.8-12.6
	c0.1,0,5.3,10.8,5.3,10.8C29,30.5,25.1,32.2,23.5,32.6z"/>
<path class="st0" d="M64.1,42.4h1.3l3.6,8.3h-1.5l-0.8-2h-3.9l-0.8,2h-1.5L64.1,42.4z M66.1,47.4l-1.4-3.3l-1.4,3.3L66.1,47.4z"/>
<path class="st0" d="M73.5,47.6L73.5,47.6c0-1.8,1.4-3.2,3.2-3.2c0,0,0,0,0.1,0c0.9,0,1.9,0.4,2.5,1.1l-0.9,1
	c-0.4-0.5-1-0.8-1.6-0.8c-1,0-1.8,0.9-1.8,1.9c0,0,0,0,0,0.1l0,0c-0.1,1,0.7,1.9,1.8,2c0,0,0.1,0,0.1,0c0.6,0,1.2-0.3,1.6-0.8
	l0.9,0.8c-1.2,1.4-3.2,1.6-4.6,0.4c-0.7-0.6-1.1-1.5-1.2-2.4L73.5,47.6z"/>
<path class="st0" d="M80.5,42.1h1.4v3.3c0.4-0.7,1.1-1.1,1.9-1.1c1.2-0.1,2.2,0.8,2.2,2c0,0.1,0,0.2,0,0.4v4h-1.4v-3.6
	c0-1-0.5-1.5-1.3-1.5c-0.8,0-1.4,0.6-1.4,1.4c0,0.1,0,0.1,0,0.2v3.5h-1.4V42.1z"/>
<path class="st0" d="M87.4,48.9L87.4,48.9c0-1.3,1-2,2.6-2c0.6,0,1.1,0.1,1.7,0.3V47c0-0.9-0.5-1.3-1.5-1.3
	c-0.6,0-1.2,0.1-1.8,0.4l-0.4-1.1c0.7-0.3,1.5-0.5,2.3-0.5c0.7-0.1,1.5,0.2,2.1,0.7c0.5,0.5,0.7,1.2,0.7,1.9v3.7h-1.4v-0.8
	c-0.5,0.6-1.2,0.9-2,0.9c-1.1,0.1-2.1-0.7-2.2-1.8C87.4,49,87.4,48.9,87.4,48.9z M91.6,48.4V48c-0.5-0.2-0.9-0.3-1.4-0.2
	c-0.9,0-1.5,0.4-1.5,1l0,0c0,0.6,0.5,0.9,1.2,0.9C90.9,49.8,91.6,49.2,91.6,48.4z"/>
<path class="st0" d="M94.7,44.5h1.4v1.4c0.3-0.9,1.2-1.6,2.2-1.5v1.5h-0.1c-1.2,0-2.1,0.8-2.1,2.5v2.4h-1.4V44.5z"/>
<path class="st0" d="M99.6,42.2h1.5v1.3h-1.5V42.2z M99.6,44.5h1.4v6.2h-1.4V44.5z"/>
<path class="st0" d="M103.2,48.9v-3.3h-0.8v-1.2h0.8v-1.7h1.4v1.7h1.7v1.2h-1.7v3c-0.1,0.4,0.2,0.7,0.6,0.8c0.1,0,0.1,0,0.2,0
	c0.3,0,0.6-0.1,0.9-0.2v1.2c-0.4,0.2-0.8,0.3-1.3,0.3c-0.9,0.1-1.7-0.5-1.8-1.4C103.2,49.2,103.2,49.1,103.2,48.9z"/>
<path class="st0" d="M107.3,48.9L107.3,48.9c0-1.3,1-2,2.6-2c0.6,0,1.1,0.1,1.7,0.3V47c0-0.9-0.5-1.3-1.5-1.3
	c-0.6,0-1.2,0.1-1.8,0.4l-0.4-1.1c0.7-0.3,1.5-0.5,2.3-0.5c0.7-0.1,1.5,0.2,2.1,0.7c0.5,0.5,0.7,1.2,0.7,1.9v3.7h-1.4v-0.8
	c-0.5,0.6-1.2,0.9-2,0.9c-1.1,0.1-2.1-0.7-2.2-1.8C107.3,49,107.3,48.9,107.3,48.9z M111.6,48.4V48c-0.5-0.2-0.9-0.3-1.4-0.2
	c-0.9,0-1.5,0.4-1.5,1l0,0c0,0.6,0.5,0.9,1.2,0.9C110.8,49.8,111.5,49.2,111.6,48.4L111.6,48.4z"/>
<path class="st0" d="M116,49.7v1h-1.4v-8.6h1.4v3.4c0.5-0.7,1.3-1.2,2.1-1.2c1.7,0.1,3,1.4,2.9,3.1c0,0,0,0.1,0,0.1l0,0
	c0.1,1.7-1.1,3.1-2.8,3.2c0,0-0.1,0-0.1,0C117.3,50.8,116.5,50.4,116,49.7z M119.5,47.6L119.5,47.6c0.1-1-0.7-1.9-1.7-2
	c0,0-0.1,0-0.1,0c-1,0-1.8,0.9-1.8,1.9c0,0,0,0.1,0,0.1l0,0c-0.1,1,0.7,1.9,1.7,2c0,0,0.1,0,0.1,0c1,0,1.8-0.8,1.8-1.8
	C119.6,47.7,119.6,47.6,119.5,47.6L119.5,47.6z"/>
<path class="st0" d="M122.6,42.1h1.4v8.6h-1.4L122.6,42.1z"/>
<path class="st0" d="M125.5,47.6L125.5,47.6c-0.1-1.7,1.2-3.1,2.9-3.2c0,0,0,0,0.1,0c2,0,3,1.5,3,3.3c0,0.1,0,0.3,0,0.4h-4.6
	c0.1,0.9,0.9,1.6,1.8,1.6c0.6,0,1.3-0.3,1.7-0.7l0.8,0.7c-0.6,0.8-1.6,1.2-2.5,1.2c-1.7,0.1-3.1-1.3-3.2-3
	C125.5,47.8,125.5,47.7,125.5,47.6z M130.1,47.1c0-0.9-0.7-1.6-1.6-1.6c-0.9,0-1.6,0.7-1.6,1.6H130.1z"/>
<path class="st0" d="M136.8,45.7H136v-1.2h0.8V44c0-0.6,0.1-1.1,0.5-1.5c0.4-0.3,0.9-0.5,1.4-0.5c0.4,0,0.8,0,1.1,0.2v1.2
	c-0.3-0.1-0.5-0.1-0.8-0.2c-0.5,0-0.8,0.3-0.8,0.9v0.3h1.6v1.2h-1.6v5h-1.4L136.8,45.7z"/>
<path class="st0" d="M140.8,48.4v-4h1.4V48c0,1,0.5,1.5,1.3,1.5c0.8,0,1.4-0.6,1.4-1.3c0-0.1,0-0.1,0-0.2v-3.5h1.4v6.2h-1.4v-1
	c-0.4,0.7-1.1,1.1-1.9,1.1c-1.2,0.1-2.2-0.9-2.2-2C140.8,48.6,140.8,48.5,140.8,48.4z"/>
<path class="st0" d="M148.1,44.5h1.4v1c0.4-0.7,1.1-1.1,1.9-1.1c1.2-0.1,2.2,0.8,2.2,2c0,0.1,0,0.2,0,0.4v4h-1.4v-3.6
	c0-1-0.5-1.5-1.3-1.5c-0.8,0-1.4,0.6-1.4,1.4c0,0.1,0,0.1,0,0.2v3.5h-1.4L148.1,44.5z"/>
<path class="st0" d="M155.1,47.6L155.1,47.6c-0.1-1.7,1.1-3.1,2.8-3.2c0,0,0.1,0,0.1,0c0.8,0,1.6,0.4,2.1,1.1v-3.3h1.4v8.6h-1.4
	v-1c-0.5,0.7-1.3,1.1-2.1,1.1c-1.7-0.1-3-1.4-2.9-3.1C155.1,47.6,155.1,47.6,155.1,47.6z M160.1,47.6L160.1,47.6
	c0.1-1-0.7-1.9-1.7-2c0,0-0.1,0-0.1,0c-1,0-1.8,0.8-1.8,1.9c0,0,0,0.1,0,0.1l0,0c-0.1,1,0.7,1.9,1.7,2c0,0,0.1,0,0.1,0
	C159.3,49.5,160.1,48.7,160.1,47.6C160.1,47.6,160.1,47.6,160.1,47.6L160.1,47.6z"/>
<path class="st0" d="M166.5,47.6L166.5,47.6c0-1.8,1.5-3.3,3.3-3.3c1.8,0,3.3,1.5,3.3,3.3l0,0c0,1.8-1.5,3.2-3.2,3.2
	c0,0,0,0-0.1,0c-1.8,0-3.2-1.3-3.3-3.1C166.5,47.7,166.5,47.6,166.5,47.6z M171.7,47.6L171.7,47.6c0-1.1-0.8-1.9-1.8-2
	c0,0-0.1,0-0.1,0c-1,0-1.9,0.8-1.9,1.8c0,0.1,0,0.1,0,0.2l0,0c0,1.1,0.8,1.9,1.8,2c0,0,0,0,0.1,0c1,0,1.9-0.8,1.9-1.8
	C171.7,47.7,171.7,47.6,171.7,47.6L171.7,47.6z"/>
<path class="st0" d="M174.9,45.7h-0.8v-1.2h0.8V44c0-0.6,0.1-1.1,0.5-1.5c0.4-0.3,0.9-0.5,1.4-0.5c0.4,0,0.8,0,1.1,0.2v1.2
	c-0.3-0.1-0.5-0.1-0.8-0.2c-0.5,0-0.8,0.3-0.8,0.9v0.3h1.6v1.2h-1.6v5h-1.4L174.9,45.7z"/>
<path class="st0" d="M182.6,42.4h1.4v6.9h4.3v1.3h-5.8L182.6,42.4z"/>
<path class="st0" d="M189.8,42.2h1.5v1.3h-1.5V42.2z M189.8,44.5h1.4v6.2h-1.4V44.5z"/>
<path class="st0" d="M192.6,49.8l0.6-1c0.6,0.5,1.3,0.7,2,0.8c0.6,0,1-0.3,1-0.7l0,0c0-0.5-0.7-0.7-1.4-0.9
	c-0.9-0.3-1.9-0.6-1.9-1.8l0,0c0.1-1.1,1-2,2.1-1.9c0,0,0.1,0,0.1,0c0.8,0,1.6,0.3,2.3,0.7l-0.6,1c-0.5-0.3-1.1-0.5-1.8-0.6
	c-0.6,0-0.9,0.3-0.9,0.6l0,0c0,0.5,0.7,0.7,1.4,0.9c0.9,0.3,1.9,0.7,1.9,1.8l0,0c0,1.3-1,2-2.3,2
	C194.3,50.7,193.4,50.4,192.6,49.8z"/>
<path class="st0" d="M200.4,49.7v1H199v-8.6h1.4v3.4c0.5-0.7,1.3-1.2,2.1-1.2c1.7,0.1,2.9,1.5,2.9,3.1c0,0,0,0.1,0,0.1l0,0
	c0.1,1.7-1.1,3.1-2.8,3.2c0,0-0.1,0-0.1,0C201.7,50.8,200.9,50.4,200.4,49.7z M203.9,47.6L203.9,47.6c0.1-1-0.7-1.9-1.7-2
	c0,0-0.1,0-0.1,0c-1,0-1.8,0.9-1.8,1.9c0,0,0,0.1,0,0.1l0,0c-0.1,1,0.7,1.9,1.7,2c0,0,0.1,0,0.1,0c1,0,1.8-0.8,1.8-1.8
	C204,47.7,203.9,47.6,203.9,47.6L203.9,47.6z"/>
<path class="st0" d="M206.5,47.6L206.5,47.6c-0.1-1.7,1.2-3.1,2.9-3.2c0,0,0,0,0.1,0c2,0,3,1.5,3,3.3c0,0.1,0,0.3,0,0.4H208
	c0.1,0.9,0.9,1.6,1.8,1.6c0.6,0,1.3-0.3,1.7-0.7l0.8,0.7c-0.6,0.8-1.6,1.2-2.5,1.2c-1.7,0.1-3.1-1.3-3.2-3
	C206.5,47.8,206.5,47.7,206.5,47.6z M211.1,47.1c0-0.9-0.7-1.6-1.6-1.6c-0.9,0-1.6,0.7-1.6,1.6H211.1z"/>
<path class="st0" d="M214.2,48.9v-3.3h-0.8v-1.2h0.8v-1.7h1.4v1.7h1.7v1.2h-1.7v3c-0.1,0.4,0.2,0.7,0.6,0.8c0.1,0,0.1,0,0.2,0
	c0.3,0,0.6-0.1,0.9-0.2v1.2c-0.4,0.2-0.8,0.3-1.3,0.3c-0.9,0.1-1.7-0.5-1.8-1.4C214.2,49.2,214.2,49.1,214.2,48.9z"/>
<path class="st0" d="M222.4,42.4h3.7c0.9,0,1.7,0.2,2.4,0.8c0.5,0.5,0.7,1.1,0.7,1.8l0,0c0,1.2-0.8,2.2-1.9,2.5l2.2,3.1h-1.7
	l-2-2.9h-1.8v2.9h-1.4L222.4,42.4z M226,46.5c1,0,1.7-0.5,1.7-1.4l0,0c0-0.9-0.6-1.4-1.7-1.4h-2.1v2.8L226,46.5z"/>
<path class="st0" d="M230.4,48.9L230.4,48.9c0-1.3,1-2,2.6-2c0.6,0,1.1,0.1,1.7,0.3V47c0-0.9-0.5-1.3-1.5-1.3
	c-0.6,0-1.2,0.1-1.8,0.4l-0.4-1.1c0.7-0.3,1.5-0.5,2.3-0.5c0.7-0.1,1.5,0.2,2.1,0.7c0.5,0.5,0.7,1.2,0.7,1.9v3.7h-1.4v-0.8
	c-0.5,0.6-1.2,0.9-2,0.9c-1.1,0.1-2.1-0.6-2.2-1.7C230.4,49,230.4,48.9,230.4,48.9z M234.6,48.4V48c-0.5-0.2-0.9-0.3-1.4-0.2
	c-0.9,0-1.5,0.4-1.5,1l0,0c0,0.6,0.5,0.9,1.2,0.9C233.9,49.8,234.6,49.2,234.6,48.4L234.6,48.4z"/>
<path class="st0" d="M237.6,48.4v-4h1.4V48c0,1,0.5,1.5,1.3,1.5c0.8,0,1.4-0.6,1.4-1.3c0-0.1,0-0.1,0-0.2v-3.5h1.4v6.2h-1.4v-1
	c-0.4,0.7-1.1,1.1-1.9,1.1c-1.2,0-2.2-0.9-2.2-2.1C237.6,48.6,237.6,48.5,237.6,48.4z"/>
<path class="st0" d="M244.4,49.8l0.6-1c0.6,0.5,1.3,0.7,2,0.8c0.6,0,1-0.3,1-0.7l0,0c0-0.5-0.7-0.7-1.4-0.9
	c-0.9-0.3-1.9-0.6-1.9-1.8l0,0c0.1-1.1,1-2,2.1-1.9c0.1,0,0.1,0,0.2,0c0.8,0,1.6,0.3,2.3,0.7l-0.6,1c-0.5-0.3-1.1-0.5-1.8-0.6
	c-0.6,0-0.9,0.3-0.9,0.6l0,0c0,0.5,0.7,0.7,1.4,0.9c0.9,0.3,1.9,0.7,1.9,1.8l0,0c0,1.3-1,2-2.3,2
	C246.2,50.7,245.2,50.4,244.4,49.8z"/>
<path class="st0" d="M250.9,42.2h1.5v1.3h-1.5V42.2z M250.9,44.5h1.4v6.2h-1.4V44.5z"/>
<path class="st0" d="M254.2,44.5h1.4v1c0.4-0.7,1.1-1.1,1.9-1.1c1.2-0.1,2.2,0.8,2.2,2c0,0.1,0,0.2,0,0.4v4h-1.4v-3.6
	c0-1-0.5-1.5-1.3-1.5c-0.8,0-1.4,0.6-1.4,1.4c0,0.1,0,0.1,0,0.2v3.5h-1.4L254.2,44.5z"/>
<path class="st0" d="M261.5,51.8l0.5-1.1c0.7,0.4,1.4,0.7,2.2,0.7c0.9,0.2,1.8-0.5,2-1.4c0-0.2,0-0.3,0-0.5V49
	c-0.5,0.7-1.3,1.2-2.2,1.2c-1.5,0-2.8-1.2-2.8-2.7c0-0.1,0-0.1,0-0.2l0,0c-0.1-1.5,1.1-2.8,2.6-2.9c0.1,0,0.1,0,0.2,0
	c0.9,0,1.7,0.4,2.2,1.1v-0.9h1.4v4.9c0.1,0.9-0.2,1.7-0.8,2.3c-0.7,0.6-1.6,0.9-2.5,0.8C263.3,52.6,262.3,52.3,261.5,51.8z
	 M266.2,47.2L266.2,47.2c0-1-0.8-1.7-1.8-1.7c0,0,0,0-0.1,0c-0.9,0-1.7,0.7-1.8,1.6c0,0,0,0.1,0,0.1l0,0c0,0.9,0.7,1.7,1.7,1.7
	c0,0,0.1,0,0.1,0C265.3,49,266.1,48.3,266.2,47.2C266.2,47.3,266.2,47.3,266.2,47.2L266.2,47.2z"/>
<path class="st0" d="M272.5,48.9L272.5,48.9c0-1.3,1-2,2.6-2c0.6,0,1.1,0.1,1.7,0.3V47c0-0.9-0.5-1.3-1.5-1.3
	c-0.6,0-1.2,0.1-1.8,0.4l-0.4-1.2c0.7-0.3,1.5-0.5,2.3-0.5c0.7-0.1,1.5,0.2,2,0.7c0.5,0.5,0.7,1.2,0.7,1.9v3.7h-1.4v-0.8
	c-0.5,0.6-1.2,0.9-2,0.9c-1.1,0.1-2.1-0.7-2.2-1.8C272.5,49,272.5,48.9,272.5,48.9z M276.7,48.4V48c-0.5-0.2-0.9-0.3-1.4-0.2
	c-0.9,0-1.5,0.4-1.5,1l0,0c0,0.6,0.5,0.9,1.2,0.9C276,49.8,276.7,49.2,276.7,48.4z"/>
<path class="st0" d="M279.8,44.5h1.4v1c0.4-0.7,1.1-1.1,1.9-1.1c1.2-0.1,2.2,0.8,2.2,2c0,0.1,0,0.2,0,0.4v4h-1.4v-3.6
	c0-1-0.5-1.5-1.3-1.5c-0.8,0-1.4,0.6-1.4,1.4c0,0.1,0,0.1,0,0.2v3.5h-1.4L279.8,44.5z"/>
<path class="st0" d="M286.7,47.6L286.7,47.6c-0.1-1.7,1.1-3.1,2.8-3.2c0,0,0.1,0,0.1,0c0.8,0,1.6,0.4,2.1,1.1v-3.4h1.4v8.6h-1.4
	v-1c-0.5,0.7-1.3,1.2-2.1,1.2c-1.7-0.1-2.9-1.5-2.9-3.1C286.7,47.6,286.7,47.6,286.7,47.6z M291.7,47.6L291.7,47.6
	c0.1-1-0.7-1.9-1.7-2c0,0-0.1,0-0.1,0c-1,0-1.8,0.8-1.8,1.9c0,0,0,0.1,0,0.1l0,0c-0.1,1,0.7,1.9,1.7,2c0,0,0.1,0,0.1,0
	C291,49.5,291.8,48.7,291.7,47.6C291.7,47.6,291.7,47.6,291.7,47.6L291.7,47.6z"/>
<path class="st0" d="M298.6,42.4h3.2c1.9,0,3.1,1.1,3.1,2.8l0,0c0,1.8-1.5,2.8-3.3,2.8H300v2.6h-1.4V42.4z M301.7,46.7
	c1.1,0,1.8-0.6,1.8-1.5l0,0c0-1-0.7-1.5-1.8-1.5H300v3L301.7,46.7z"/>
<path class="st0" d="M305.9,47.6L305.9,47.6c-0.1-1.7,1.2-3.1,2.9-3.2c0,0,0.1,0,0.1,0c2,0,3,1.5,3,3.3c0,0.1,0,0.3,0,0.4h-4.6
	c0.1,0.9,0.9,1.6,1.8,1.6c0.6,0,1.3-0.3,1.7-0.7l0.8,0.7c-0.6,0.8-1.6,1.2-2.5,1.2c-1.7,0.1-3.1-1.3-3.2-3
	C305.9,47.7,305.9,47.7,305.9,47.6z M310.5,47.1c0-0.9-0.7-1.6-1.6-1.6c-0.9,0-1.6,0.7-1.6,1.6H310.5z"/>
<path class="st0" d="M313.6,48.9v-3.3h-0.8v-1.2h0.8v-1.7h1.4v1.7h1.7v1.2H315v3c-0.1,0.4,0.2,0.7,0.6,0.8c0.1,0,0.1,0,0.2,0
	c0.3,0,0.6-0.1,0.9-0.2v1.2c-0.4,0.2-0.8,0.3-1.3,0.3c-0.9,0.1-1.7-0.5-1.8-1.4C313.6,49.2,313.6,49.1,313.6,48.9z"/>
<path class="st0" d="M317.6,47.6L317.6,47.6c-0.1-1.7,1.2-3.1,2.9-3.2c0,0,0.1,0,0.1,0c2,0,3,1.5,3,3.3c0,0.1,0,0.3,0,0.4H319
	c0.1,0.9,0.9,1.6,1.8,1.6c0.6,0,1.3-0.3,1.7-0.7l0.8,0.7c-0.6,0.8-1.6,1.2-2.5,1.2c-1.7,0-3.1-1.3-3.1-3
	C317.6,47.7,317.6,47.6,317.6,47.6z M322.2,47.1c0-0.9-0.7-1.6-1.6-1.6c-0.9,0-1.6,0.7-1.6,1.6L322.2,47.1z"/>
<path class="st0" d="M325,44.5h1.4v1.4c0.3-0.9,1.2-1.6,2.2-1.5v1.5h-0.1c-1.2,0-2.1,0.8-2.1,2.5v2.4H325V44.5z"/>
<path class="st0" d="M333.6,42.4h3.7c0.8,0,1.6,0.2,2.1,0.7c0.4,0.4,0.6,0.9,0.5,1.4l0,0c0,0.8-0.5,1.5-1.2,1.8c1,0.2,1.6,1,1.6,2
	l0,0c0,1.5-1.2,2.2-3,2.2h-3.8L333.6,42.4z M338.5,44.8c0-0.7-0.5-1-1.4-1H335v2.1h2C337.9,45.9,338.5,45.5,338.5,44.8L338.5,44.8
	z M337.3,47.1H335v2.2h2.4c1,0,1.6-0.4,1.6-1.1l0,0C339,47.5,338.4,47.1,337.3,47.1L337.3,47.1z"/>
<path class="st0" d="M341.5,48.9L341.5,48.9c0-1.3,1-2,2.6-2c0.6,0,1.1,0.1,1.7,0.3V47c0-0.9-0.5-1.3-1.5-1.3
	c-0.6,0-1.2,0.1-1.8,0.4l-0.4-1.2c0.7-0.3,1.5-0.5,2.3-0.5c0.7-0.1,1.5,0.2,2,0.7c0.5,0.5,0.7,1.2,0.7,1.9v3.7h-1.3v-0.8
	c-0.5,0.6-1.2,0.9-2,0.9c-1.1,0.1-2.1-0.7-2.2-1.8C341.5,49,341.5,48.9,341.5,48.9z M345.7,48.4V48c-0.5-0.2-0.9-0.3-1.4-0.2
	c-0.9,0-1.5,0.4-1.5,1l0,0c0,0.6,0.5,0.9,1.2,0.9C345,49.8,345.7,49.2,345.7,48.4L345.7,48.4z"/>
<path class="st0" d="M348.9,42.1h1.4v8.6h-1.4V42.1z"/>
<path class="st0" d="M351.8,47.6L351.8,47.6c-0.1-1.7,1.1-3.1,2.8-3.2c0,0,0.1,0,0.1,0c0.8,0,1.6,0.4,2.1,1.1v-3.4h1.4v8.6h-1.4
	v-1c-0.5,0.7-1.3,1.2-2.1,1.2c-1.7-0.1-2.9-1.5-2.9-3.1C351.8,47.6,351.8,47.6,351.8,47.6z M356.8,47.6L356.8,47.6
	c0.1-1-0.7-1.9-1.7-2c0,0-0.1,0-0.1,0c-1,0-1.8,0.8-1.8,1.9c0,0,0,0.1,0,0.1l0,0c-0.1,1,0.7,1.9,1.7,2c0,0,0.1,0,0.1,0
	C356.1,49.5,356.9,48.7,356.8,47.6C356.8,47.6,356.8,47.6,356.8,47.6L356.8,47.6z"/>
<path class="st0" d="M359.5,44.5h1.5l1.2,4.2l1.4-4.3h1.2l1.4,4.3l1.3-4.2h1.4l-2,6.2h-1.3l-1.4-4.2l-1.4,4.2h-1.3L359.5,44.5z"/>
<path class="st0" d="M370.1,42.2h1.5v1.3h-1.5V42.2z M370.2,44.5h1.4v6.2h-1.4V44.5z"/>
<path class="st0" d="M373.5,44.5h1.4v1c0.4-0.7,1.1-1.1,1.9-1.1c1.2-0.1,2.2,0.8,2.2,2c0,0.1,0,0.2,0,0.4v4h-1.4v-3.6
	c0-1-0.5-1.5-1.3-1.5c-0.8,0-1.4,0.6-1.4,1.4c0,0.1,0,0.1,0,0.2v3.5h-1.4V44.5z"/>
</svg>
