<svg xmlns="http://www.w3.org/2000/svg" viewBox="0 0 595.3 212.5" width="595.3" height="212.5">
<g>
    <g>
        <g>
            <path d="M14.2,57.7l0.3-13.6h52.8l0.3,13.6h-2.7l0-0.2c-0.9-5.1-2.1-7.7-3.7-9l0,0c-1.6-1.3-3.8-1.4-6.6-1.4l0,0
                c-0.5,0-1,0-1.6,0l0,0H45v36.7c0,5.2,0,8.2,0.8,9.9l0,0c0.8,1.6,2.3,2,5.7,2l0,0h3v2.9H27l0,0v-2.9h3.1c3.4,0,4.9-0.4,5.7-1.9
                l0,0c0.8-1.5,0.9-4.4,0.8-9.3l0,0c0-0.2,0-0.5,0-0.7l0,0V47.1H26.1c-3.3,0-5.1,0.7-6.3,2.3l0,0c-1.2,1.6-1.9,4.3-2.8,8.1l0,0
                l-0.1,0.2H14.2z"/>
        </g>
        <g>
            <path d="M91.9,98.5v-2.9h0.3c2.8,0,4.1-0.1,4.7-1.1c0.6-1,0.7-3.3,0.7-7.8v-9.7c0-2.8-0.1-7.1-3-8.7c-1.8-1-4.1-1-5.9-0.4
                c-1.5,0.6-2.9,1.6-4.1,2.7c-0.6,0.6-1.2,1.2-1.8,1.9c-0.3,0.3-1.6,1.5-1.6,1.9v12.2c0,4.3,0,6.6,0.6,7.7c0.5,1,1.6,1.2,4.2,1.2
                h0.3v2.9H69.2v-2.9h0.3c2.9,0,4.2-0.1,4.7-1c0.6-1,0.7-3.3,0.7-7.8V55.1c0-2.8,0-4.7-0.6-5.8c-0.6-1-1.8-1.5-4.4-1.5h-0.3V45h0.3
                c3.3,0,7.8-0.7,10.4-1.7l0.1,0h0.9v27.1c3.7-4,7.3-6.3,11.5-6.3c3.7,0,6.5,1,8.4,2.9c1.9,2,2.8,4.8,2.8,8.6v11.2
                c0,4.5,0,6.8,0.6,7.8c0.6,1,1.8,1.1,4.6,1.1h0.3v2.9H91.9z"/>
        </g>
        <g>
            <path d="M117.2,95.6c-3.2-2.9-5.5-7.3-5.5-13.3l0,0c0-5.1,1.7-9.6,4.6-12.9l0,0c2.9-3.3,6.9-5.2,11.6-5.2l0,0
                c8.6,0,13.6,6.8,13.9,13l0,0l0,0.3H119c-0.1,1.1-0.1,2.3-0.1,3.5l0,0c0,2.1,0,6,1.4,9.4l0,0c1.3,3.4,3.9,6.2,9,6.2l0,0
                c1.8,0,6.8-0.3,9.8-5.8l0,0l0.1-0.2h2.7l-0.1,0.4c-0.3,1.3-3.5,8.8-13.5,8.9l0,0C124.5,99.8,120.4,98.5,117.2,95.6L117.2,95.6z
                 M134.2,74.7c0.1-0.3,0.1-0.5,0.1-1l0,0c0,0,0-0.1,0-0.1l0,0c-0.1-4.7-3.6-6.5-6.8-6.5l0,0c-6.1,0-7.8,5.3-8.3,7.6l0,0H134.2
                L134.2,74.7z"/>
        </g>
    </g>
    <path d="M153.9,98.1v-3.3h3.1c10.5,0,10.5-2.8,10.5-18.8V36c0-18.2-1.2-17.6-13.7-17.6V15c8.9-0.4,22.9-0.9,30.1-0.9
        c4.8,0,34-1,34,19.8c0,15.9-17.6,18.7-23.1,19.4c13.9,0.8,27.7,6.1,27.7,21.8c0,18.3-16.1,22.8-30.6,22.8H153.9z M179.6,51.9
        c15.9,0.4,25.5-1.8,25.5-17.3c0-15.1-8.8-18.2-25.5-16.7V51.9z M179.6,73.3c0,19.1,0,21.5,10,21.5c18.4,0,19.4-12.7,19.4-19.6
        c0-13.4-5.8-20.9-29.5-19.7V73.3z"/>
    <path d="M246.2,80.9c0,12.8,0,13.9,7.4,13.9h1.8v3.3h-26.6v-3.3c8.7,0,8.7,0,8.7-13.9V66.7c0-13.9,0-13.8-8.7-13.8v-3.4
        c5.6-0.8,12.2-2.8,14.2-3.4l0.9-0.2c0.6,2,1.8,5.7,1.8,12.8c3.9-9.3,11.4-12.8,16.1-12.8c5.8,0,8.8,4.6,8.8,7.7
        c0,2.3-1.8,4.3-4.1,4.3c-3,0-3.9-2.5-4.4-3.8c-0.6-1.4-1.5-3.3-3.5-3.3c-3.5,0-12.2,6-12.2,18.8V80.9z"/>
    <path d="M290.5,80.9c0,10.9-0.9,13.9,6.9,13.9h1.9v3.3h-27.1v-3.3h2.1c5.6,0,7.4-0.2,7.4-9V66.3c0-13.8-0.1-13.8-8.9-13.8v-3.4
        c3.8-0.1,11.2-1.8,16.4-3.3h1.3V80.9z M284.8,13.8c3.5,0,6.3,3,6.3,6.5c0,3.5-2.8,6.5-6.3,6.5c-3.5,0-6.4-3-6.4-6.5
        C278.4,16.8,281.2,13.8,284.8,13.8z"/>
    <path d="M319.3,52.5v27.8c0,7.7,0,14.8,7.5,14.8c3.9,0,5.9-3.4,7-5l2.6,1.8c-3.9,8.2-12.2,8.2-13,8.2c-4.6,0-9-2.5-10.9-6.1
        c-1.6-3-1.9-5.6-1.9-14.8V52.5h-7.3v-3.4c5.5-0.3,11.7-4.6,13.5-16.9h2.5v16.9h14.8v3.4H319.3z"/>
    <path d="M357.2,80.4c0,10.9-0.9,14.4,6.9,14.4h1.9v3.3h-27.1v-3.3h2.1c5.6,0,7.4-1.3,7.4-10V66.3c0-13.8-0.8-13.8-9.5-13.8v-3.4
        c3.8-0.1,11.8-1.8,17.1-3.3h1.3V80.4z M351.5,13.8c3.5,0,6.3,3,6.3,6.5c0,3.5-2.8,6.5-6.3,6.5c-3.5,0-6.4-3-6.4-6.5
        C345.1,16.8,347.9,13.8,351.5,13.8z"/>
    <path d="M373.3,83.2h2.6c1.3,6,5.6,13.7,14.5,13.7c8,0,9.3-6.1,9.3-8.4c0-6.5-5.5-9.2-12.2-12.4c-6-3-14.2-7-14.2-16.2
        c0-6,2.7-13.9,13.4-13.9c4.5,0,8,1.9,10.9,5.3c1-1.1,2.3-4.1,2.4-4.4h2.3v15.6h-2.5c-1-4.8-4.8-13.1-12.8-13.1
        c-5.4,0-8.2,3.4-8.2,7c0,5.8,6,8.5,11.8,11.2c6.6,3,15.1,6.9,15.1,17.8c0,9.4-6.3,14.8-15.2,14.8c-6.5,0-9.6-2.6-12.5-5.3
        c-1.3,1.4-2.2,3.7-2.4,4.8h-2.4V83.2z"/>
    <path d="M329.7,181.8h2.6c1.3,6,5.6,13.7,14.5,13.7c8,0,9.3-6.1,9.3-8.4c0-6.5-5.5-9.2-12.2-12.4c-6-3-13.9-7-14.2-16.2
        c-0.2-6.4,3.1-13.9,13.4-13.9c4.5,0,8,1.9,10.9,5.3c1-1.1,2.3-4.1,2.4-4.4h2.3v15.6h-2.5c-1-4.8-4.8-13.1-12.8-13.1
        c-5.4,0-8.2,3.4-8.2,7c0,5.8,6,8.5,11.8,11.2c6.6,3,15.1,6.9,15.1,17.8c0,8.7-6.3,14.8-15.2,14.8c-6.5,0-9.5-2.8-12.4-5.5
        c-1.3,1.4-2.3,3.9-2.6,5h-2.4V181.8z"/>
    <path d="M462.6,80.4c0,13.8,0,14.4,8.5,14.4v3.3h-26v-3.3c8.7,0,8.7-0.6,8.7-14.4V65.3c0-11.7-3.6-15.4-10.9-15.1
        c-5.8,0.3-11.3,5.9-15.3,11v19.1c0,13.4,0,14.4,7.9,14.4v3.3H410v-3.3c8.8,0,8.8-0.5,8.8-14.4V31.5c0-8.8,0-11.7-8.3-11.7v-3.4
        c5.1,0,12.2-1.1,16.2-2.6h0.9v42.4c6-7.1,11.7-10.3,18.2-10.3c11.2,0,16.8,5.9,16.8,17.3V80.4z"/>
    <path d="M239.9,113.7h25.6v3.3h-3.1c-10.9,0-11.2,1-11.2,17.9v39.8c0,16.1,0,18.8,10.5,18.8h3.8v3.3h-39.8v-3.3h2.9
        c10.5,0,10.5-2.8,10.5-18.8v-51.2l-32.9,73.3h-2.9L170.6,122v55c0,11.4,3.8,15.6,13,16.4v3.3H154v-3.3c7.7-0.8,13-3.1,13-17.2
        v-41.9c0-16.8,0.1-17.4-10.8-17.4H154v-3.3h25.2l30.2,67.9L239.9,113.7z"/>
    <path d="M314.9,178.8c0,13.4,0,14.6,7.7,14.6v3.3c-4.3,0-10,0.4-13.4,2h-0.9c-2-3.6-2.1-8.6-2.1-11.5c-3.1,5.6-10,11.5-19.2,11.5
        c-14.6,0-15.6-11.5-15.6-16.8v-17.7c0-13.7,0-14.4-8.3-14.4v-3.3l17.1,0v34.7c0,4.8,0,12.7,9.7,12.7c3.4,0,16.3-3,16.3-17.9v-11.7
        c0-13.9,0-14.4-8.8-14.4v-3.3h17.6V178.8z"/>
    <path d="M381.9,164.1c-0.1,1.8-0.3,3.2-0.3,5.3c0,6.4,0.3,26,16.4,26c2.8,0,11.3-0.3,15.9-10h2.9c-0.4,1.8-5.3,13.3-20.4,13.3
        c-11,0-25-8.4-25-26.7c0-15.6,10.3-27.5,24.5-27.5c13,0,20.6,10.2,21,19.6H381.9z M406.1,161.1c0.1-0.8,0.3-1.4,0.3-2.5
        c0-8.3-5.9-11.3-10.9-11.3c-11.2,0-12.8,10.5-13.3,13.8H406.1z"/>
    <path d="M472.5,178.9c0,13.4,0,14.6,7.7,14.6v3.3c-4.3,0-10,0.4-13.4,2h-0.9c-2-3.6-2.1-9.2-2.1-12c-3.1,5.6-10,12-19.2,12
        c-14.6,0-15.6-11.5-15.6-16.8v-17.6c0-13.7,0-14.4-8.3-14.4v-3.3l17.1,0.6v34.2c0,4.7,0,12.6,9.7,12.6c3.4,0,16.3-3,16.3-17.9
        v-11.7c0-13.9,0-14.4-8.8-14.4v-3.3h17.6V178.9z"/>
    <path d="M518.8,149.3c-8.4,0-13.7,7-16.2,10.8V179c0,13.6,0,14.4,8.3,14.4v3.3h-25.3v-3.3c8.3,0,8.3-0.8,8.3-14.4v-13.9
        c0-13.7,0-14.4-8.3-14.4v-3.3c4.3-0.5,9.7-1.8,13.8-2.9h1.6c1,2.9,1.5,7.8,1.6,10.4c5.3-6.3,11.8-10.4,19.4-10.4
        c11.3,0,14.6,6.9,15.2,10.9c6-7,12.3-10.9,19.9-10.9c11,0,15.7,6,15.7,16.3V179c0,13.4,0,14.4,8.3,14.4v3.3h-25.7v-3.3
        c8.7,0,8.7-0.6,8.7-14.4v-14.7c0-6.6,0-15.1-10.2-15.1c-8.4,0-13.7,7-16.2,10.8V179c0,13.6,0,14.4,8.3,14.4v3.3h-25.3v-3.3
        c8.3,0,8.3-1,8.3-14.4v-13.9C528.9,159.6,529.9,149.3,518.8,149.3z"/>
</g>
</svg>